<svg width="161" height="64" viewBox="0 0 161 64" fill="none" xmlns="http://www.w3.org/2000/svg">
<g filter="url(#filter0_dd_1_2)">
<rect x="18" y="18" width="125" height="28" rx="7" fill="#0D1117"/>
<path fill-rule="evenodd" clip-rule="evenodd" d="M52.875 32.0475C52.875 27.6986 49.3488 24.1725 45 24.1725C40.6512 24.1725 37.125 27.6986 37.125 32.0475C37.125 35.9779 40.0043 39.2359 43.7695 39.8272V34.3245H41.7695V32.0475H43.7695V30.3125C43.7695 28.3392 44.9455 27.2483 46.7441 27.2483C47.6058 27.2483 48.5072 27.4023 48.5072 27.4023V29.3404H47.5137C46.536 29.3404 46.2301 29.9472 46.2301 30.5709V32.0475H48.414L48.0653 34.3245H46.2305V39.8279C49.9957 39.2369 52.875 35.979 52.875 32.0475Z" fill="#E8ECF2"/>
<path d="M65 27.624V28.98H61.508V31.128H64.184V32.46H61.508V36H59.828V27.624H65ZM71.3273 34.404H67.9913L67.4393 36H65.6753L68.6873 27.612H70.6433L73.6553 36H71.8793L71.3273 34.404ZM70.8713 33.06L69.6593 29.556L68.4473 33.06H70.8713ZM74.3731 31.8C74.3731 30.976 74.5571 30.24 74.9251 29.592C75.3011 28.936 75.8091 28.428 76.4491 28.068C77.0971 27.7 77.8211 27.516 78.6211 27.516C79.5571 27.516 80.3771 27.756 81.0811 28.236C81.7851 28.716 82.2771 29.38 82.5571 30.228H80.6251C80.4331 29.828 80.1611 29.528 79.8091 29.328C79.4651 29.128 79.0651 29.028 78.6091 29.028C78.1211 29.028 77.6851 29.144 77.3011 29.376C76.9251 29.6 76.6291 29.92 76.4131 30.336C76.2051 30.752 76.1011 31.24 76.1011 31.8C76.1011 32.352 76.2051 32.84 76.4131 33.264C76.6291 33.68 76.9251 34.004 77.3011 34.236C77.6851 34.46 78.1211 34.572 78.6091 34.572C79.0651 34.572 79.4651 34.472 79.8091 34.272C80.1611 34.064 80.4331 33.76 80.6251 33.36H82.5571C82.2771 34.216 81.7851 34.884 81.0811 35.364C80.3851 35.836 79.5651 36.072 78.6211 36.072C77.8211 36.072 77.0971 35.892 76.4491 35.532C75.8091 35.164 75.3011 34.656 74.9251 34.008C74.5571 33.36 74.3731 32.624 74.3731 31.8ZM85.6721 28.98V31.08H88.4921V32.412H85.6721V34.632H88.8521V36H83.9921V27.612H88.8521V28.98H85.6721ZM95.1308 31.704C95.6028 31.792 95.9908 32.028 96.2948 32.412C96.5988 32.796 96.7508 33.236 96.7508 33.732C96.7508 34.18 96.6388 34.576 96.4148 34.92C96.1988 35.256 95.8828 35.52 95.4668 35.712C95.0508 35.904 94.5588 36 93.9908 36H90.3788V27.624H93.8348C94.4028 27.624 94.8908 27.716 95.2988 27.9C95.7148 28.084 96.0268 28.34 96.2348 28.668C96.4508 28.996 96.5588 29.368 96.5588 29.784C96.5588 30.272 96.4268 30.68 96.1628 31.008C95.9068 31.336 95.5628 31.568 95.1308 31.704ZM92.0588 31.08H93.5948C93.9948 31.08 94.3028 30.992 94.5188 30.816C94.7348 30.632 94.8428 30.372 94.8428 30.036C94.8428 29.7 94.7348 29.44 94.5188 29.256C94.3028 29.072 93.9948 28.98 93.5948 28.98H92.0588V31.08ZM93.7508 34.632C94.1588 34.632 94.4748 34.536 94.6988 34.344C94.9308 34.152 95.0468 33.88 95.0468 33.528C95.0468 33.168 94.9268 32.888 94.6868 32.688C94.4468 32.48 94.1228 32.376 93.7148 32.376H92.0588V34.632H93.7508ZM101.978 36.084C101.194 36.084 100.474 35.9 99.8177 35.532C99.1617 35.164 98.6417 34.656 98.2577 34.008C97.8737 33.352 97.6817 32.612 97.6817 31.788C97.6817 30.972 97.8737 30.24 98.2577 29.592C98.6417 28.936 99.1617 28.424 99.8177 28.056C100.474 27.688 101.194 27.504 101.978 27.504C102.77 27.504 103.49 27.688 104.138 28.056C104.794 28.424 105.31 28.936 105.686 29.592C106.07 30.24 106.262 30.972 106.262 31.788C106.262 32.612 106.07 33.352 105.686 34.008C105.31 34.656 104.794 35.164 104.138 35.532C103.482 35.9 102.762 36.084 101.978 36.084ZM101.978 34.584C102.482 34.584 102.926 34.472 103.31 34.248C103.694 34.016 103.994 33.688 104.21 33.264C104.426 32.84 104.534 32.348 104.534 31.788C104.534 31.228 104.426 30.74 104.21 30.324C103.994 29.9 103.694 29.576 103.31 29.352C102.926 29.128 102.482 29.016 101.978 29.016C101.474 29.016 101.026 29.128 100.634 29.352C100.25 29.576 99.9497 29.9 99.7337 30.324C99.5177 30.74 99.4097 31.228 99.4097 31.788C99.4097 32.348 99.5177 32.84 99.7337 33.264C99.9497 33.688 100.25 34.016 100.634 34.248C101.026 34.472 101.474 34.584 101.978 34.584ZM111.4 36.084C110.616 36.084 109.896 35.9 109.24 35.532C108.584 35.164 108.064 34.656 107.68 34.008C107.296 33.352 107.104 32.612 107.104 31.788C107.104 30.972 107.296 30.24 107.68 29.592C108.064 28.936 108.584 28.424 109.24 28.056C109.896 27.688 110.616 27.504 111.4 27.504C112.192 27.504 112.912 27.688 113.56 28.056C114.216 28.424 114.732 28.936 115.108 29.592C115.492 30.24 115.684 30.972 115.684 31.788C115.684 32.612 115.492 33.352 115.108 34.008C114.732 34.656 114.216 35.164 113.56 35.532C112.904 35.9 112.184 36.084 111.4 36.084ZM111.4 34.584C111.904 34.584 112.348 34.472 112.732 34.248C113.116 34.016 113.416 33.688 113.632 33.264C113.848 32.84 113.956 32.348 113.956 31.788C113.956 31.228 113.848 30.74 113.632 30.324C113.416 29.9 113.116 29.576 112.732 29.352C112.348 29.128 111.904 29.016 111.4 29.016C110.896 29.016 110.448 29.128 110.056 29.352C109.672 29.576 109.372 29.9 109.156 30.324C108.94 30.74 108.832 31.228 108.832 31.788C108.832 32.348 108.94 32.84 109.156 33.264C109.372 33.688 109.672 34.016 110.056 34.248C110.448 34.472 110.896 34.584 111.4 34.584ZM121.661 36L118.613 32.268V36H116.933V27.624H118.613V31.38L121.661 27.624H123.689L120.233 31.776L123.785 36H121.661Z" fill="#E8ECF2"/>
</g>
<defs>
<filter id="filter0_dd_1_2" x="0" y="0" width="161" height="64" filterUnits="userSpaceOnUse" color-interpolation-filters="sRGB">
<feFlood flood-opacity="0" result="BackgroundImageFix"/>
<feColorMatrix in="SourceAlpha" type="matrix" values="0 0 0 0 0 0 0 0 0 0 0 0 0 0 0 0 0 0 127 0" result="hardAlpha"/>
<feOffset dx="6" dy="6"/>
<feGaussianBlur stdDeviation="6"/>
<feComposite in2="hardAlpha" operator="out"/>
<feColorMatrix type="matrix" values="0 0 0 0 0.0235294 0 0 0 0 0.0313726 0 0 0 0 0.0431373 0 0 0 0.5 0"/>
<feBlend mode="normal" in2="BackgroundImageFix" result="effect1_dropShadow_1_2"/>
<feColorMatrix in="SourceAlpha" type="matrix" values="0 0 0 0 0 0 0 0 0 0 0 0 0 0 0 0 0 0 127 0" result="hardAlpha"/>
<feOffset dx="-6" dy="-6"/>
<feGaussianBlur stdDeviation="6"/>
<feComposite in2="hardAlpha" operator="out"/>
<feColorMatrix type="matrix" values="0 0 0 0 0.0784314 0 0 0 0 0.101961 0 0 0 0 0.137255 0 0 0 0.5 0"/>
<feBlend mode="normal" in2="effect1_dropShadow_1_2" result="effect2_dropShadow_1_2"/>
<feBlend mode="normal" in="SourceGraphic" in2="effect2_dropShadow_1_2" result="shape"/>
</filter>
</defs>
</svg>
