<svg width="161" height="64" viewBox="0 0 161 64" fill="none" xmlns="http://www.w3.org/2000/svg">
<g filter="url(#filter0_dd_3_23)">
<rect x="18" y="18" width="125" height="28" rx="7" fill="#0D1117"/>
<path d="M45.2811 25.4374C46.1506 25.44 46.9838 25.7865 47.5986 26.4014C48.2135 27.0162 48.56 27.8494 48.5626 28.7189V35.2811C48.56 36.1506 48.2135 36.9838 47.5986 37.5986C46.9838 38.2135 46.1506 38.56 45.2811 38.5626H38.7189C37.8494 38.56 37.0162 38.2135 36.4014 37.5986C35.7865 36.9838 35.44 36.1506 35.4374 35.2811V28.7189C35.44 27.8494 35.7865 27.0162 36.4014 26.4014C37.0162 25.7865 37.8494 25.44 38.7189 25.4374H45.2811ZM45.2811 24.125H38.7189C36.1922 24.125 34.125 26.1922 34.125 28.7189V35.2811C34.125 37.8078 36.1922 39.875 38.7189 39.875H45.2811C47.8078 39.875 49.875 37.8078 49.875 35.2811V28.7189C49.875 26.1922 47.8078 24.125 45.2811 24.125Z" fill="#E8ECF2"/>
<path d="M46.2655 28.7189C46.0708 28.7189 45.8805 28.6611 45.7186 28.553C45.5567 28.4448 45.4306 28.2911 45.3561 28.1112C45.2816 27.9313 45.2621 27.7334 45.3 27.5425C45.338 27.3515 45.4318 27.1761 45.5695 27.0384C45.7071 26.9008 45.8825 26.807 46.0735 26.769C46.2644 26.7311 46.4623 26.7505 46.6422 26.8251C46.8221 26.8996 46.9758 27.0257 47.084 27.1876C47.1922 27.3495 47.2499 27.5398 47.2499 27.7345C47.2502 27.8638 47.2249 27.992 47.1755 28.1115C47.1261 28.2311 47.0537 28.3397 46.9622 28.4312C46.8707 28.5226 46.7621 28.5951 46.6425 28.6445C46.523 28.6939 46.3949 28.7192 46.2655 28.7189ZM42 29.3749C42.5192 29.3749 43.0267 29.5288 43.4584 29.8173C43.8901 30.1058 44.2266 30.5157 44.4253 30.9954C44.624 31.4751 44.676 32.0029 44.5747 32.5121C44.4734 33.0214 44.2234 33.4891 43.8562 33.8562C43.4891 34.2234 43.0214 34.4734 42.5121 34.5747C42.0029 34.676 41.4751 34.624 40.9954 34.4253C40.5157 34.2266 40.1057 33.8901 39.8173 33.4584C39.5288 33.0267 39.3749 32.5192 39.3749 32C39.3756 31.304 39.6524 30.6367 40.1446 30.1446C40.6367 29.6524 41.304 29.3756 42 29.3749ZM42 28.0625C41.2212 28.0625 40.46 28.2934 39.8124 28.7261C39.1649 29.1588 38.6602 29.7737 38.3622 30.4932C38.0642 31.2127 37.9862 32.0044 38.1382 32.7682C38.2901 33.532 38.6651 34.2336 39.2158 34.7842C39.7664 35.3349 40.468 35.7099 41.2318 35.8618C41.9956 36.0138 42.7873 35.9358 43.5068 35.6378C44.2263 35.3398 44.8413 34.8351 45.2739 34.1876C45.7066 33.54 45.9375 32.7788 45.9375 32C45.9375 30.9557 45.5227 29.9542 44.7842 29.2158C44.0458 28.4773 43.0443 28.0625 42 28.0625Z" fill="#E8ECF2"/>
<path d="M58.508 27.624V36H56.828V27.624H58.508ZM67.3318 36H65.6518L61.8478 30.252V36H60.1678V27.612H61.8478L65.6518 33.372V27.612H67.3318V36ZM71.8841 36.084C71.3001 36.084 70.7721 35.984 70.3001 35.784C69.8361 35.584 69.4681 35.296 69.1961 34.92C68.9241 34.544 68.7841 34.1 68.7761 33.588H70.5761C70.6001 33.932 70.7201 34.204 70.9361 34.404C71.1601 34.604 71.4641 34.704 71.8481 34.704C72.2401 34.704 72.5481 34.612 72.7721 34.428C72.9961 34.236 73.1081 33.988 73.1081 33.684C73.1081 33.436 73.0321 33.232 72.8801 33.072C72.7281 32.912 72.5361 32.788 72.3041 32.7C72.0801 32.604 71.7681 32.5 71.3681 32.388C70.8241 32.228 70.3801 32.072 70.0361 31.92C69.7001 31.76 69.4081 31.524 69.1601 31.212C68.9201 30.892 68.8001 30.468 68.8001 29.94C68.8001 29.444 68.9241 29.012 69.1721 28.644C69.4201 28.276 69.7681 27.996 70.2161 27.804C70.6641 27.604 71.1761 27.504 71.7521 27.504C72.6161 27.504 73.3161 27.716 73.8521 28.14C74.3961 28.556 74.6961 29.14 74.7521 29.892H72.9041C72.8881 29.604 72.7641 29.368 72.5321 29.184C72.3081 28.992 72.0081 28.896 71.6321 28.896C71.3041 28.896 71.0401 28.98 70.8401 29.148C70.6481 29.316 70.5521 29.56 70.5521 29.88C70.5521 30.104 70.6241 30.292 70.7681 30.444C70.9201 30.588 71.1041 30.708 71.3201 30.804C71.5441 30.892 71.8561 30.996 72.2561 31.116C72.8001 31.276 73.2441 31.436 73.5881 31.596C73.9321 31.756 74.2281 31.996 74.4761 32.316C74.7241 32.636 74.8481 33.056 74.8481 33.576C74.8481 34.024 74.7321 34.44 74.5001 34.824C74.2681 35.208 73.9281 35.516 73.4801 35.748C73.0321 35.972 72.5001 36.084 71.8841 36.084ZM82.0046 27.624V28.98H79.7726V36H78.0926V28.98H75.8606V27.624H82.0046ZM88.3663 34.404H85.0303L84.4783 36H82.7143L85.7263 27.612H87.6823L90.6943 36H88.9183L88.3663 34.404ZM87.9103 33.06L86.6983 29.556L85.4863 33.06H87.9103ZM97.6522 30.144C97.4602 29.792 97.1962 29.524 96.8602 29.34C96.5242 29.156 96.1322 29.064 95.6842 29.064C95.1882 29.064 94.7482 29.176 94.3642 29.4C93.9802 29.624 93.6802 29.944 93.4642 30.36C93.2482 30.776 93.1402 31.256 93.1402 31.8C93.1402 32.36 93.2482 32.848 93.4642 33.264C93.6882 33.68 93.9962 34 94.3882 34.224C94.7802 34.448 95.2362 34.56 95.7562 34.56C96.3962 34.56 96.9202 34.392 97.3282 34.056C97.7362 33.712 98.0042 33.236 98.1322 32.628H95.2522V31.344H99.7882V32.808C99.6762 33.392 99.4362 33.932 99.0682 34.428C98.7002 34.924 98.2242 35.324 97.6402 35.628C97.0642 35.924 96.4162 36.072 95.6962 36.072C94.8882 36.072 94.1562 35.892 93.5002 35.532C92.8522 35.164 92.3402 34.656 91.9642 34.008C91.5962 33.36 91.4122 32.624 91.4122 31.8C91.4122 30.976 91.5962 30.24 91.9642 29.592C92.3402 28.936 92.8522 28.428 93.5002 28.068C94.1562 27.7 94.8842 27.516 95.6842 27.516C96.6282 27.516 97.4482 27.748 98.1442 28.212C98.8402 28.668 99.3202 29.312 99.5842 30.144H97.6522ZM105.351 36L103.503 32.736H102.711V36H101.031V27.624H104.175C104.823 27.624 105.375 27.74 105.831 27.972C106.287 28.196 106.627 28.504 106.851 28.896C107.083 29.28 107.199 29.712 107.199 30.192C107.199 30.744 107.039 31.244 106.719 31.692C106.399 32.132 105.923 32.436 105.291 32.604L107.295 36H105.351ZM102.711 31.476H104.115C104.571 31.476 104.911 31.368 105.135 31.152C105.359 30.928 105.471 30.62 105.471 30.228C105.471 29.844 105.359 29.548 105.135 29.34C104.911 29.124 104.571 29.016 104.115 29.016H102.711V31.476ZM113.855 34.404H110.519L109.967 36H108.203L111.215 27.612H113.171L116.183 36H114.407L113.855 34.404ZM113.399 33.06L112.187 29.556L110.975 33.06H113.399ZM126.44 27.624V36H124.76V30.552L122.516 36H121.244L118.988 30.552V36H117.308V27.624H119.216L121.88 33.852L124.544 27.624H126.44Z" fill="#E8ECF2"/>
</g>
<defs>
<filter id="filter0_dd_3_23" x="0" y="0" width="161" height="64" filterUnits="userSpaceOnUse" color-interpolation-filters="sRGB">
<feFlood flood-opacity="0" result="BackgroundImageFix"/>
<feColorMatrix in="SourceAlpha" type="matrix" values="0 0 0 0 0 0 0 0 0 0 0 0 0 0 0 0 0 0 127 0" result="hardAlpha"/>
<feOffset dx="6" dy="6"/>
<feGaussianBlur stdDeviation="6"/>
<feComposite in2="hardAlpha" operator="out"/>
<feColorMatrix type="matrix" values="0 0 0 0 0.0235294 0 0 0 0 0.0313726 0 0 0 0 0.0431373 0 0 0 0.5 0"/>
<feBlend mode="normal" in2="BackgroundImageFix" result="effect1_dropShadow_3_23"/>
<feColorMatrix in="SourceAlpha" type="matrix" values="0 0 0 0 0 0 0 0 0 0 0 0 0 0 0 0 0 0 127 0" result="hardAlpha"/>
<feOffset dx="-6" dy="-6"/>
<feGaussianBlur stdDeviation="6"/>
<feComposite in2="hardAlpha" operator="out"/>
<feColorMatrix type="matrix" values="0 0 0 0 0.0784314 0 0 0 0 0.101961 0 0 0 0 0.137255 0 0 0 0.5 0"/>
<feBlend mode="normal" in2="effect1_dropShadow_3_23" result="effect2_dropShadow_3_23"/>
<feBlend mode="normal" in="SourceGraphic" in2="effect2_dropShadow_3_23" result="shape"/>
</filter>
</defs>
</svg>
