<svg width="136" height="64" viewBox="0 0 136 64" fill="none" xmlns="http://www.w3.org/2000/svg">
<g filter="url(#filter0_dd_10_47)">
<rect x="18" y="18" width="100" height="28" rx="7" fill="#0D1117"/>
<path d="M56.964 34.404H53.628L53.076 36H51.312L54.324 27.612H56.28L59.292 36H57.516L56.964 34.404ZM56.508 33.06L55.296 29.556L54.084 33.06H56.508ZM67.5818 36H65.9018L62.0978 30.252V36H60.4178V27.612H62.0978L65.9018 33.372V27.612H67.5818V36ZM75.0741 30.144C74.8821 29.792 74.6181 29.524 74.2821 29.34C73.9461 29.156 73.5541 29.064 73.1061 29.064C72.6101 29.064 72.1701 29.176 71.7861 29.4C71.4021 29.624 71.1021 29.944 70.8861 30.36C70.6701 30.776 70.5621 31.256 70.5621 31.8C70.5621 32.36 70.6701 32.848 70.8861 33.264C71.1101 33.68 71.4181 34 71.8101 34.224C72.2021 34.448 72.6581 34.56 73.1781 34.56C73.8181 34.56 74.3421 34.392 74.7501 34.056C75.1581 33.712 75.4261 33.236 75.5541 32.628H72.6741V31.344H77.2101V32.808C77.0981 33.392 76.8581 33.932 76.4901 34.428C76.1221 34.924 75.6461 35.324 75.0621 35.628C74.4861 35.924 73.8381 36.072 73.1181 36.072C72.3101 36.072 71.5781 35.892 70.9221 35.532C70.2741 35.164 69.7621 34.656 69.3861 34.008C69.0181 33.36 68.8341 32.624 68.8341 31.8C68.8341 30.976 69.0181 30.24 69.3861 29.592C69.7621 28.936 70.2741 28.428 70.9221 28.068C71.5781 27.7 72.3061 27.516 73.1061 27.516C74.0501 27.516 74.8701 27.748 75.5661 28.212C76.2621 28.668 76.7421 29.312 77.0061 30.144H75.0741ZM80.109 27.624V32.808C80.109 33.376 80.257 33.812 80.553 34.116C80.849 34.412 81.265 34.56 81.801 34.56C82.345 34.56 82.765 34.412 83.061 34.116C83.357 33.812 83.505 33.376 83.505 32.808V27.624H85.197V32.796C85.197 33.508 85.041 34.112 84.729 34.608C84.425 35.096 84.013 35.464 83.493 35.712C82.981 35.96 82.409 36.084 81.777 36.084C81.153 36.084 80.585 35.96 80.073 35.712C79.569 35.464 79.169 35.096 78.873 34.608C78.577 34.112 78.429 33.508 78.429 32.796V27.624H80.109ZM88.5002 34.668H91.2602V36H86.8202V27.624H88.5002V34.668ZM97.464 34.404H94.128L93.576 36H91.812L94.824 27.612H96.78L99.792 36H98.016L97.464 34.404ZM97.008 33.06L95.796 29.556L94.584 33.06H97.008ZM105.238 36L103.39 32.736H102.598V36H100.918V27.624H104.062C104.71 27.624 105.262 27.74 105.718 27.972C106.174 28.196 106.514 28.504 106.738 28.896C106.97 29.28 107.086 29.712 107.086 30.192C107.086 30.744 106.926 31.244 106.606 31.692C106.286 32.132 105.81 32.436 105.178 32.604L107.182 36H105.238ZM102.598 31.476H104.002C104.458 31.476 104.798 31.368 105.022 31.152C105.246 30.928 105.358 30.62 105.358 30.228C105.358 29.844 105.246 29.548 105.022 29.34C104.798 29.124 104.458 29.016 104.002 29.016H102.598V31.476Z" fill="#E8ECF2"/>
<path d="M35.5083 32H38.4913L36.9996 28.8584L35.5083 32Z" fill="#E8ECF2"/>
<path d="M37 24.125L29.125 26.9375L30.7464 36.5L37 39.875L43.249 36.5L44.875 26.9375L37 24.125ZM40.0938 35.375L39.1589 33.4062H34.8407L33.9062 35.375H32.5L37 25.5312L41.5 35.375H40.0938Z" fill="#E8ECF2"/>
</g>
<defs>
<filter id="filter0_dd_10_47" x="0" y="0" width="136" height="64" filterUnits="userSpaceOnUse" color-interpolation-filters="sRGB">
<feFlood flood-opacity="0" result="BackgroundImageFix"/>
<feColorMatrix in="SourceAlpha" type="matrix" values="0 0 0 0 0 0 0 0 0 0 0 0 0 0 0 0 0 0 127 0" result="hardAlpha"/>
<feOffset dx="6" dy="6"/>
<feGaussianBlur stdDeviation="6"/>
<feComposite in2="hardAlpha" operator="out"/>
<feColorMatrix type="matrix" values="0 0 0 0 0.0235294 0 0 0 0 0.0313726 0 0 0 0 0.0431373 0 0 0 0.5 0"/>
<feBlend mode="normal" in2="BackgroundImageFix" result="effect1_dropShadow_10_47"/>
<feColorMatrix in="SourceAlpha" type="matrix" values="0 0 0 0 0 0 0 0 0 0 0 0 0 0 0 0 0 0 127 0" result="hardAlpha"/>
<feOffset dx="-6" dy="-6"/>
<feGaussianBlur stdDeviation="6"/>
<feComposite in2="hardAlpha" operator="out"/>
<feColorMatrix type="matrix" values="0 0 0 0 0.0784314 0 0 0 0 0.101961 0 0 0 0 0.137255 0 0 0 0.5 0"/>
<feBlend mode="normal" in2="effect1_dropShadow_10_47" result="effect2_dropShadow_10_47"/>
<feBlend mode="normal" in="SourceGraphic" in2="effect2_dropShadow_10_47" result="shape"/>
</filter>
</defs>
</svg>
