<svg width="115" height="64" viewBox="0 0 115 64" fill="none" xmlns="http://www.w3.org/2000/svg">
<g filter="url(#filter0_dd_12_2)">
<rect x="18" y="18" width="79" height="28" rx="7" fill="#0D1117"/>
<path d="M56.964 34.404H53.628L53.076 36H51.312L54.324 27.612H56.28L59.292 36H57.516L56.964 34.404ZM56.508 33.06L55.296 29.556L54.084 33.06H56.508ZM66.5258 30.216C66.5258 30.664 66.4178 31.084 66.2018 31.476C65.9938 31.868 65.6618 32.184 65.2058 32.424C64.7578 32.664 64.1898 32.784 63.5018 32.784H62.0978V36H60.4178V27.624H63.5018C64.1498 27.624 64.7018 27.736 65.1578 27.96C65.6138 28.184 65.9538 28.492 66.1778 28.884C66.4098 29.276 66.5258 29.72 66.5258 30.216ZM63.4298 31.428C63.8938 31.428 64.2378 31.324 64.4618 31.116C64.6858 30.9 64.7978 30.6 64.7978 30.216C64.7978 29.4 64.3418 28.992 63.4298 28.992H62.0978V31.428H63.4298ZM73.8266 30.216C73.8266 30.664 73.7186 31.084 73.5026 31.476C73.2946 31.868 72.9626 32.184 72.5066 32.424C72.0586 32.664 71.4906 32.784 70.8026 32.784H69.3986V36H67.7186V27.624H70.8026C71.4506 27.624 72.0026 27.736 72.4586 27.96C72.9146 28.184 73.2546 28.492 73.4786 28.884C73.7106 29.276 73.8266 29.72 73.8266 30.216ZM70.7306 31.428C71.1946 31.428 71.5386 31.324 71.7626 31.116C71.9866 30.9 72.0986 30.6 72.0986 30.216C72.0986 29.4 71.6426 28.992 70.7306 28.992H69.3986V31.428H70.7306ZM76.6994 34.668H79.4594V36H75.0194V27.624H76.6994V34.668ZM82.2072 28.98V31.08H85.0272V32.412H82.2072V34.632H85.3872V36H80.5272V27.612H85.3872V28.98H82.2072Z" fill="#E8ECF2"/>
<path d="M40.2741 27.8115C38.8566 27.8115 38.2575 28.4879 37.2703 28.4879C36.2582 28.4879 35.4862 27.8164 34.2578 27.8164C33.0555 27.8164 31.7733 28.5505 30.9591 29.801C29.8158 31.5644 30.0099 34.8856 31.8616 37.715C32.5239 38.7279 33.4084 39.8638 34.5686 39.8761H34.5897C35.598 39.8761 35.8975 39.2158 37.2851 39.2081H37.3062C38.6731 39.2081 38.9473 39.8722 39.9514 39.8722H39.9725C41.1326 39.8599 42.0646 38.6013 42.7269 37.5923C43.2037 36.8667 43.3809 36.5025 43.7465 35.6816C41.0679 34.6649 40.6376 30.8676 43.2866 29.4118C42.478 28.3993 41.3418 27.8129 40.2706 27.8129L40.2741 27.8115Z" fill="#E8ECF2"/>
<path d="M39.9619 24.125C39.1182 24.1823 38.1338 24.7195 37.5572 25.4209C37.0341 26.0565 36.6038 26.9994 36.7725 27.9138H36.84C37.7386 27.9138 38.6583 27.3727 39.1955 26.6795C39.713 26.0196 40.1053 25.0844 39.9619 24.125Z" fill="#E8ECF2"/>
</g>
<defs>
<filter id="filter0_dd_12_2" x="0" y="0" width="115" height="64" filterUnits="userSpaceOnUse" color-interpolation-filters="sRGB">
<feFlood flood-opacity="0" result="BackgroundImageFix"/>
<feColorMatrix in="SourceAlpha" type="matrix" values="0 0 0 0 0 0 0 0 0 0 0 0 0 0 0 0 0 0 127 0" result="hardAlpha"/>
<feOffset dx="6" dy="6"/>
<feGaussianBlur stdDeviation="6"/>
<feComposite in2="hardAlpha" operator="out"/>
<feColorMatrix type="matrix" values="0 0 0 0 0.0235294 0 0 0 0 0.0313726 0 0 0 0 0.0431373 0 0 0 0.5 0"/>
<feBlend mode="normal" in2="BackgroundImageFix" result="effect1_dropShadow_12_2"/>
<feColorMatrix in="SourceAlpha" type="matrix" values="0 0 0 0 0 0 0 0 0 0 0 0 0 0 0 0 0 0 127 0" result="hardAlpha"/>
<feOffset dx="-6" dy="-6"/>
<feGaussianBlur stdDeviation="6"/>
<feComposite in2="hardAlpha" operator="out"/>
<feColorMatrix type="matrix" values="0 0 0 0 0.0784314 0 0 0 0 0.101961 0 0 0 0 0.137255 0 0 0 0.5 0"/>
<feBlend mode="normal" in2="effect1_dropShadow_12_2" result="effect2_dropShadow_12_2"/>
<feBlend mode="normal" in="SourceGraphic" in2="effect2_dropShadow_12_2" result="shape"/>
</filter>
</defs>
</svg>
