<svg width="135" height="64" viewBox="0 0 135 64" fill="none" xmlns="http://www.w3.org/2000/svg">
<g filter="url(#filter0_dd_12_16)">
<rect x="18" y="18" width="99" height="28" rx="7" fill="#0D1117"/>
<path d="M56.58 31.704C57.052 31.792 57.44 32.028 57.744 32.412C58.048 32.796 58.2 33.236 58.2 33.732C58.2 34.18 58.088 34.576 57.864 34.92C57.648 35.256 57.332 35.52 56.916 35.712C56.5 35.904 56.008 36 55.44 36H51.828V27.624H55.284C55.852 27.624 56.34 27.716 56.748 27.9C57.164 28.084 57.476 28.34 57.684 28.668C57.9 28.996 58.008 29.368 58.008 29.784C58.008 30.272 57.876 30.68 57.612 31.008C57.356 31.336 57.012 31.568 56.58 31.704ZM53.508 31.08H55.044C55.444 31.08 55.752 30.992 55.968 30.816C56.184 30.632 56.292 30.372 56.292 30.036C56.292 29.7 56.184 29.44 55.968 29.256C55.752 29.072 55.444 28.98 55.044 28.98H53.508V31.08ZM55.2 34.632C55.608 34.632 55.924 34.536 56.148 34.344C56.38 34.152 56.496 33.88 56.496 33.528C56.496 33.168 56.376 32.888 56.136 32.688C55.896 32.48 55.572 32.376 55.164 32.376H53.508V34.632H55.2ZM61.2189 28.98V31.08H64.0389V32.412H61.2189V34.632H64.3989V36H59.5389V27.612H64.3989V28.98H61.2189ZM72.8737 27.624V36H71.1937V32.436H67.6057V36H65.9257V27.624H67.6057V31.068H71.1937V27.624H72.8737ZM79.6632 34.404H76.3272L75.7752 36H74.0112L77.0232 27.612H78.9792L81.9912 36H80.2152L79.6632 34.404ZM79.2072 33.06L77.9952 29.556L76.7832 33.06H79.2072ZM90.2811 36H88.6011L84.7971 30.252V36H83.1171V27.612H84.7971L88.6011 33.372V27.612H90.2811V36ZM91.5333 31.8C91.5333 30.976 91.7173 30.24 92.0853 29.592C92.4613 28.936 92.9693 28.428 93.6093 28.068C94.2573 27.7 94.9813 27.516 95.7813 27.516C96.7173 27.516 97.5373 27.756 98.2413 28.236C98.9453 28.716 99.4373 29.38 99.7173 30.228H97.7853C97.5933 29.828 97.3213 29.528 96.9693 29.328C96.6253 29.128 96.2253 29.028 95.7693 29.028C95.2813 29.028 94.8453 29.144 94.4613 29.376C94.0853 29.6 93.7893 29.92 93.5733 30.336C93.3653 30.752 93.2613 31.24 93.2613 31.8C93.2613 32.352 93.3653 32.84 93.5733 33.264C93.7893 33.68 94.0853 34.004 94.4613 34.236C94.8453 34.46 95.2813 34.572 95.7693 34.572C96.2253 34.572 96.6253 34.472 96.9693 34.272C97.3213 34.064 97.5933 33.76 97.7853 33.36H99.7173C99.4373 34.216 98.9453 34.884 98.2413 35.364C97.5453 35.836 96.7253 36.072 95.7813 36.072C94.9813 36.072 94.2573 35.892 93.6093 35.532C92.9693 35.164 92.4613 34.656 92.0853 34.008C91.7173 33.36 91.5333 32.624 91.5333 31.8ZM102.832 28.98V31.08H105.652V32.412H102.832V34.632H106.012V36H101.152V27.612H106.012V28.98H102.832Z" fill="#E8ECF2"/>
<path d="M40.0973 31.2125C39.0813 31.2125 38.9406 32.225 38.9406 32.225H41.0992C41.0992 32.225 41.1133 31.2125 40.0973 31.2125ZM35.2 32.225H33.2875V33.9828H35.1051C35.3793 33.9758 35.8926 33.8984 35.8926 33.1285C35.8926 32.2144 35.2 32.225 35.2 32.225Z" fill="#E8ECF2"/>
<path d="M37 24.125C32.6512 24.125 29.125 27.6512 29.125 32C29.125 36.3488 32.6512 39.875 37 39.875C41.3488 39.875 44.875 36.3488 44.875 32C44.875 27.6512 41.3488 24.125 37 24.125ZM38.6594 28.9625H41.3699V29.7711H38.6594V28.9625ZM37.2883 33.2094C37.2883 35.2133 35.2 35.15 35.2 35.15H31.7828V28.5758H35.2C36.2406 28.5758 37.0598 29.1488 37.0598 30.3266C37.0598 31.5043 36.0578 31.5781 36.0578 31.5781C37.3797 31.5781 37.2883 33.2094 37.2883 33.2094ZM42.3578 33.1004H38.9512C38.9512 34.3203 40.1078 34.243 40.1078 34.243C41.2012 34.243 41.1625 33.5363 41.1625 33.5363H42.3191C42.3191 35.4137 40.0691 35.2836 40.0691 35.2836C37.3727 35.2836 37.5449 32.7699 37.5449 32.7699C37.5449 32.7699 37.5414 30.2457 40.0691 30.2457C42.7305 30.2492 42.3578 33.1004 42.3578 33.1004Z" fill="#E8ECF2"/>
<path d="M35.6641 30.4285C35.6641 29.7465 35.2 29.7465 35.2 29.7465H33.2875V31.2125H35.0805C35.3898 31.2125 35.6641 31.1106 35.6641 30.4285Z" fill="#E8ECF2"/>
</g>
<defs>
<filter id="filter0_dd_12_16" x="0" y="0" width="135" height="64" filterUnits="userSpaceOnUse" color-interpolation-filters="sRGB">
<feFlood flood-opacity="0" result="BackgroundImageFix"/>
<feColorMatrix in="SourceAlpha" type="matrix" values="0 0 0 0 0 0 0 0 0 0 0 0 0 0 0 0 0 0 127 0" result="hardAlpha"/>
<feOffset dx="6" dy="6"/>
<feGaussianBlur stdDeviation="6"/>
<feComposite in2="hardAlpha" operator="out"/>
<feColorMatrix type="matrix" values="0 0 0 0 0.0235294 0 0 0 0 0.0313726 0 0 0 0 0.0431373 0 0 0 0.5 0"/>
<feBlend mode="normal" in2="BackgroundImageFix" result="effect1_dropShadow_12_16"/>
<feColorMatrix in="SourceAlpha" type="matrix" values="0 0 0 0 0 0 0 0 0 0 0 0 0 0 0 0 0 0 127 0" result="hardAlpha"/>
<feOffset dx="-6" dy="-6"/>
<feGaussianBlur stdDeviation="6"/>
<feComposite in2="hardAlpha" operator="out"/>
<feColorMatrix type="matrix" values="0 0 0 0 0.0784314 0 0 0 0 0.101961 0 0 0 0 0.137255 0 0 0 0.5 0"/>
<feBlend mode="normal" in2="effect1_dropShadow_12_16" result="effect2_dropShadow_12_16"/>
<feBlend mode="normal" in="SourceGraphic" in2="effect2_dropShadow_12_16" result="shape"/>
</filter>
</defs>
</svg>
