<svg width="128" height="64" viewBox="0 0 128 64" fill="none" xmlns="http://www.w3.org/2000/svg">
<g filter="url(#filter0_dd_12_21)">
<rect x="18" y="18" width="92" height="28" rx="7" fill="#0D1117"/>
<path d="M56.58 31.704C57.052 31.792 57.44 32.028 57.744 32.412C58.048 32.796 58.2 33.236 58.2 33.732C58.2 34.18 58.088 34.576 57.864 34.92C57.648 35.256 57.332 35.52 56.916 35.712C56.5 35.904 56.008 36 55.44 36H51.828V27.624H55.284C55.852 27.624 56.34 27.716 56.748 27.9C57.164 28.084 57.476 28.34 57.684 28.668C57.9 28.996 58.008 29.368 58.008 29.784C58.008 30.272 57.876 30.68 57.612 31.008C57.356 31.336 57.012 31.568 56.58 31.704ZM53.508 31.08H55.044C55.444 31.08 55.752 30.992 55.968 30.816C56.184 30.632 56.292 30.372 56.292 30.036C56.292 29.7 56.184 29.44 55.968 29.256C55.752 29.072 55.444 28.98 55.044 28.98H53.508V31.08ZM55.2 34.632C55.608 34.632 55.924 34.536 56.148 34.344C56.38 34.152 56.496 33.88 56.496 33.528C56.496 33.168 56.376 32.888 56.136 32.688C55.896 32.48 55.572 32.376 55.164 32.376H53.508V34.632H55.2ZM61.2189 27.624V36H59.5389V27.624H61.2189ZM68.5788 27.624V28.98H66.3468V36H64.6668V28.98H62.4348V27.624H68.5788ZM69.3966 31.8C69.3966 30.976 69.5806 30.24 69.9486 29.592C70.3246 28.936 70.8326 28.428 71.4726 28.068C72.1206 27.7 72.8446 27.516 73.6446 27.516C74.5806 27.516 75.4006 27.756 76.1046 28.236C76.8086 28.716 77.3006 29.38 77.5806 30.228H75.6486C75.4566 29.828 75.1846 29.528 74.8326 29.328C74.4886 29.128 74.0886 29.028 73.6326 29.028C73.1446 29.028 72.7086 29.144 72.3246 29.376C71.9486 29.6 71.6526 29.92 71.4366 30.336C71.2286 30.752 71.1246 31.24 71.1246 31.8C71.1246 32.352 71.2286 32.84 71.4366 33.264C71.6526 33.68 71.9486 34.004 72.3246 34.236C72.7086 34.46 73.1446 34.572 73.6326 34.572C74.0886 34.572 74.4886 34.472 74.8326 34.272C75.1846 34.064 75.4566 33.76 75.6486 33.36H77.5806C77.3006 34.216 76.8086 34.884 76.1046 35.364C75.4086 35.836 74.5886 36.072 73.6446 36.072C72.8446 36.072 72.1206 35.892 71.4726 35.532C70.8326 35.164 70.3246 34.656 69.9486 34.008C69.5806 33.36 69.3966 32.624 69.3966 31.8ZM82.9035 36.084C82.1195 36.084 81.3995 35.9 80.7435 35.532C80.0875 35.164 79.5675 34.656 79.1835 34.008C78.7995 33.352 78.6075 32.612 78.6075 31.788C78.6075 30.972 78.7995 30.24 79.1835 29.592C79.5675 28.936 80.0875 28.424 80.7435 28.056C81.3995 27.688 82.1195 27.504 82.9035 27.504C83.6955 27.504 84.4155 27.688 85.0635 28.056C85.7195 28.424 86.2355 28.936 86.6115 29.592C86.9955 30.24 87.1875 30.972 87.1875 31.788C87.1875 32.612 86.9955 33.352 86.6115 34.008C86.2355 34.656 85.7195 35.164 85.0635 35.532C84.4075 35.9 83.6875 36.084 82.9035 36.084ZM82.9035 34.584C83.4075 34.584 83.8515 34.472 84.2355 34.248C84.6195 34.016 84.9195 33.688 85.1355 33.264C85.3515 32.84 85.4595 32.348 85.4595 31.788C85.4595 31.228 85.3515 30.74 85.1355 30.324C84.9195 29.9 84.6195 29.576 84.2355 29.352C83.8515 29.128 83.4075 29.016 82.9035 29.016C82.3995 29.016 81.9515 29.128 81.5595 29.352C81.1755 29.576 80.8755 29.9 80.6595 30.324C80.4435 30.74 80.3355 31.228 80.3355 31.788C80.3355 32.348 80.4435 32.84 80.6595 33.264C80.8755 33.688 81.1755 34.016 81.5595 34.248C81.9515 34.472 82.3995 34.584 82.9035 34.584ZM90.1174 27.624V36H88.4374V27.624H90.1174ZM98.9412 36H97.2612L93.4572 30.252V36H91.7772V27.612H93.4572L97.2612 33.372V27.612H98.9412V36Z" fill="#E8ECF2"/>
<path d="M42.4306 32.8156C42.2548 32.4113 41.9841 32.0563 41.4427 31.7574C41.1629 31.5992 40.8623 31.4809 40.5497 31.4059C40.76 31.3081 40.9535 31.1776 41.1228 31.0191C41.3717 30.7966 41.5603 30.5149 41.6712 30.2C41.7733 29.88 41.815 29.5438 41.7943 29.2086C41.7556 28.618 41.6396 28.0449 41.3302 27.6336C41.0208 27.2223 40.5849 26.9059 40.0083 26.6844C39.5654 26.5156 39.1118 26.4102 38.4087 26.3715V24.125H37.0025V26.375H35.8775V24.125H34.4361V26.375H31.375V28.0625H32.3548C32.6607 28.0625 32.8681 28.0906 32.9736 28.1434C33.0717 28.1853 33.1524 28.2598 33.2021 28.3543C33.2478 28.4422 33.2689 28.6496 33.2689 28.9695V35.0586C33.2689 35.375 33.2478 35.5789 33.2021 35.6703C33.1564 35.7617 33.1318 35.8426 33.0228 35.8918C32.9138 35.941 32.9103 35.9375 32.6079 35.9375H31.6798L31.375 37.625H34.4336V39.875H35.875V37.625H37V39.875H38.4062V37.6109C39.3203 37.5652 39.9707 37.4457 40.4945 37.2488C41.173 36.9957 41.6934 36.6266 42.066 36.1414C42.4387 35.6562 42.5582 34.9145 42.5909 34.3414C42.6145 33.8316 42.5898 33.1742 42.4306 32.8156ZM35.875 28.2734H37V30.875H35.875V28.2734ZM35.875 35.7266V32.5625H37V35.7266H35.875ZM38.4062 28.4105C38.6172 28.4984 38.7543 28.6742 38.8914 28.857C39.0426 29.0574 39.1199 29.3246 39.1199 29.6094C39.1199 29.8836 39.018 30.1191 38.8562 30.3301C38.7227 30.5023 38.6172 30.6219 38.4062 30.7203V28.4105ZM39.4187 34.9742C39.1445 35.2168 38.9863 35.3293 38.6418 35.4594C38.5647 35.4865 38.4861 35.5088 38.4062 35.5262V32.6152C38.5438 32.6356 38.6776 32.6759 38.8035 32.7348C39.0777 32.8508 39.3379 32.9773 39.4996 33.1988C39.6789 33.4532 39.777 33.756 39.7809 34.0672C39.7798 34.4504 39.6814 34.7422 39.4177 34.9742H39.4187Z" fill="#E8ECF2"/>
</g>
<defs>
<filter id="filter0_dd_12_21" x="0" y="0" width="128" height="64" filterUnits="userSpaceOnUse" color-interpolation-filters="sRGB">
<feFlood flood-opacity="0" result="BackgroundImageFix"/>
<feColorMatrix in="SourceAlpha" type="matrix" values="0 0 0 0 0 0 0 0 0 0 0 0 0 0 0 0 0 0 127 0" result="hardAlpha"/>
<feOffset dx="6" dy="6"/>
<feGaussianBlur stdDeviation="6"/>
<feComposite in2="hardAlpha" operator="out"/>
<feColorMatrix type="matrix" values="0 0 0 0 0.0235294 0 0 0 0 0.0313726 0 0 0 0 0.0431373 0 0 0 0.5 0"/>
<feBlend mode="normal" in2="BackgroundImageFix" result="effect1_dropShadow_12_21"/>
<feColorMatrix in="SourceAlpha" type="matrix" values="0 0 0 0 0 0 0 0 0 0 0 0 0 0 0 0 0 0 127 0" result="hardAlpha"/>
<feOffset dx="-6" dy="-6"/>
<feGaussianBlur stdDeviation="6"/>
<feComposite in2="hardAlpha" operator="out"/>
<feColorMatrix type="matrix" values="0 0 0 0 0.0784314 0 0 0 0 0.101961 0 0 0 0 0.137255 0 0 0 0.5 0"/>
<feBlend mode="normal" in2="effect1_dropShadow_12_21" result="effect2_dropShadow_12_21"/>
<feBlend mode="normal" in="SourceGraphic" in2="effect2_dropShadow_12_21" result="shape"/>
</filter>
</defs>
</svg>
