<svg width="136" height="64" viewBox="0 0 136 64" fill="none" xmlns="http://www.w3.org/2000/svg">
<g filter="url(#filter0_dd_12_28)">
<rect x="18" y="18" width="100" height="28" rx="7" fill="#0D1117"/>
<path d="M51.42 31.8C51.42 30.976 51.604 30.24 51.972 29.592C52.348 28.936 52.856 28.428 53.496 28.068C54.144 27.7 54.868 27.516 55.668 27.516C56.604 27.516 57.424 27.756 58.128 28.236C58.832 28.716 59.324 29.38 59.604 30.228H57.672C57.48 29.828 57.208 29.528 56.856 29.328C56.512 29.128 56.112 29.028 55.656 29.028C55.168 29.028 54.732 29.144 54.348 29.376C53.972 29.6 53.676 29.92 53.46 30.336C53.252 30.752 53.148 31.24 53.148 31.8C53.148 32.352 53.252 32.84 53.46 33.264C53.676 33.68 53.972 34.004 54.348 34.236C54.732 34.46 55.168 34.572 55.656 34.572C56.112 34.572 56.512 34.472 56.856 34.272C57.208 34.064 57.48 33.76 57.672 33.36H59.604C59.324 34.216 58.832 34.884 58.128 35.364C57.432 35.836 56.612 36.072 55.668 36.072C54.868 36.072 54.144 35.892 53.496 35.532C52.856 35.164 52.348 34.656 51.972 34.008C51.604 33.36 51.42 32.624 51.42 31.8ZM64.9269 36.084C64.1429 36.084 63.4229 35.9 62.7669 35.532C62.1109 35.164 61.5909 34.656 61.2069 34.008C60.8229 33.352 60.6309 32.612 60.6309 31.788C60.6309 30.972 60.8229 30.24 61.2069 29.592C61.5909 28.936 62.1109 28.424 62.7669 28.056C63.4229 27.688 64.1429 27.504 64.9269 27.504C65.7189 27.504 66.4389 27.688 67.0869 28.056C67.7429 28.424 68.2589 28.936 68.6349 29.592C69.0189 30.24 69.2109 30.972 69.2109 31.788C69.2109 32.612 69.0189 33.352 68.6349 34.008C68.2589 34.656 67.7429 35.164 67.0869 35.532C66.4309 35.9 65.7109 36.084 64.9269 36.084ZM64.9269 34.584C65.4309 34.584 65.8749 34.472 66.2589 34.248C66.6429 34.016 66.9429 33.688 67.1589 33.264C67.3749 32.84 67.4829 32.348 67.4829 31.788C67.4829 31.228 67.3749 30.74 67.1589 30.324C66.9429 29.9 66.6429 29.576 66.2589 29.352C65.8749 29.128 65.4309 29.016 64.9269 29.016C64.4229 29.016 63.9749 29.128 63.5829 29.352C63.1989 29.576 62.8989 29.9 62.6829 30.324C62.4669 30.74 62.3589 31.228 62.3589 31.788C62.3589 32.348 62.4669 32.84 62.6829 33.264C62.8989 33.688 63.1989 34.016 63.5829 34.248C63.9749 34.472 64.4229 34.584 64.9269 34.584ZM73.3888 27.624C74.2688 27.624 75.0408 27.796 75.7048 28.14C76.3768 28.484 76.8928 28.976 77.2528 29.616C77.6208 30.248 77.8048 30.984 77.8048 31.824C77.8048 32.664 77.6208 33.4 77.2528 34.032C76.8928 34.656 76.3768 35.14 75.7048 35.484C75.0408 35.828 74.2688 36 73.3888 36H70.4608V27.624H73.3888ZM73.3288 34.572C74.2088 34.572 74.8888 34.332 75.3688 33.852C75.8488 33.372 76.0888 32.696 76.0888 31.824C76.0888 30.952 75.8488 30.272 75.3688 29.784C74.8888 29.288 74.2088 29.04 73.3288 29.04H72.1408V34.572H73.3288ZM80.7424 28.98V31.08H83.5624V32.412H80.7424V34.632H83.9224V36H79.0624V27.612H83.9224V28.98H80.7424ZM91.5571 30.216C91.5571 30.664 91.4491 31.084 91.2331 31.476C91.0251 31.868 90.6931 32.184 90.2371 32.424C89.7891 32.664 89.2211 32.784 88.5331 32.784H87.1291V36H85.4491V27.624H88.5331C89.1811 27.624 89.7331 27.736 90.1891 27.96C90.6451 28.184 90.9851 28.492 91.2091 28.884C91.4411 29.276 91.5571 29.72 91.5571 30.216ZM88.4611 31.428C88.9251 31.428 89.2691 31.324 89.4931 31.116C89.7171 30.9 89.8291 30.6 89.8291 30.216C89.8291 29.4 89.3731 28.992 88.4611 28.992H87.1291V31.428H88.4611ZM94.4299 28.98V31.08H97.2499V32.412H94.4299V34.632H97.6099V36H92.7499V27.612H97.6099V28.98H94.4299ZM106.301 36H104.621L100.817 30.252V36H99.1366V27.612H100.817L104.621 33.372V27.612H106.301V36Z" fill="#E8ECF2"/>
<path d="M36.4811 33.6854C35.9425 33.3212 35.4004 32.9622 34.8618 32.598C34.7915 32.5495 34.7412 32.546 34.6684 32.598L33.3016 33.5163C34.3984 34.2465 36.5781 35.7027 36.5781 35.7027V33.8116C36.5781 33.7687 36.5236 33.7139 36.4811 33.6854ZM34.8586 31.4611C35.4021 31.1039 35.9425 30.7422 36.4797 30.3761C36.5081 30.3533 36.5316 30.3248 36.5485 30.2925C36.5654 30.2602 36.5755 30.2248 36.5781 30.1884V28.3708C36.5781 28.3708 34.3984 29.8164 33.2995 30.5484C33.7811 30.8704 34.2371 31.178 34.698 31.4779C34.7338 31.5011 34.8175 31.4878 34.8586 31.4611ZM37.4866 30.36C38.0423 30.7366 38.6004 31.1095 39.1611 31.4786C39.182 31.489 39.205 31.4945 39.2284 31.4945C39.2517 31.4945 39.2748 31.489 39.2957 31.4786L40.6935 30.548L37.4219 28.3606V30.2362C37.4232 30.2603 37.4296 30.2838 37.4408 30.3051C37.4519 30.3265 37.4676 30.3452 37.4866 30.36ZM37.0742 31.0989C37.0479 31.0869 37.0191 31.0811 36.9901 31.0821C36.9612 31.0832 36.9329 31.091 36.9075 31.1049C36.7381 31.2104 36.5746 31.3229 36.4094 31.4336C36.1193 31.628 35.5182 32.0313 35.5182 32.0313L36.8836 32.9404C36.9166 32.9606 36.9545 32.9716 36.9931 32.9723C37.0318 32.973 37.07 32.9633 37.1037 32.9443L38.4748 32.0302C38.4748 32.0302 37.277 31.2336 37.0742 31.0989ZM32.957 31.3363V32.7288L33.9984 32.0313L32.957 31.3363Z" fill="#E8ECF2"/>
<path d="M37 24.125C32.6508 24.125 29.125 27.6508 29.125 32C29.125 36.3492 32.6508 39.875 37 39.875C41.3492 39.875 44.875 36.3492 44.875 32C44.875 27.6508 41.3492 24.125 37 24.125ZM41.8867 33.4414C41.8867 33.6446 41.7936 33.788 41.6227 33.9016C40.1764 34.8625 38.7316 35.8257 37.2883 36.7911C37.0826 36.9289 36.8956 36.9229 36.6906 36.7862C35.257 35.8252 33.8199 34.8682 32.3794 33.915C32.1998 33.7958 32.1126 33.6492 32.1126 33.4323V30.6289C32.1126 30.413 32.2012 30.2654 32.3805 30.1466C33.8187 29.1928 35.2612 28.2355 36.6952 27.275C36.8998 27.1382 37.0851 27.1344 37.2907 27.2718C38.7331 28.2377 40.1775 29.2009 41.6241 30.1613C41.7886 30.2707 41.886 30.4057 41.886 30.6064L41.8867 33.4414Z" fill="#E8ECF2"/>
<path d="M39.1182 32.6057C38.5887 32.9653 38.0568 33.3208 37.5224 33.6724C37.4377 33.7279 37.4208 33.7887 37.4219 33.89V35.6949L40.6914 33.5152L39.3368 32.6054C39.256 32.5488 39.2001 32.5502 39.1182 32.6057ZM41.0078 32.727V31.3341L39.9675 32.0327L41.0078 32.727Z" fill="#E8ECF2"/>
</g>
<defs>
<filter id="filter0_dd_12_28" x="0" y="0" width="136" height="64" filterUnits="userSpaceOnUse" color-interpolation-filters="sRGB">
<feFlood flood-opacity="0" result="BackgroundImageFix"/>
<feColorMatrix in="SourceAlpha" type="matrix" values="0 0 0 0 0 0 0 0 0 0 0 0 0 0 0 0 0 0 127 0" result="hardAlpha"/>
<feOffset dx="6" dy="6"/>
<feGaussianBlur stdDeviation="6"/>
<feComposite in2="hardAlpha" operator="out"/>
<feColorMatrix type="matrix" values="0 0 0 0 0.0235294 0 0 0 0 0.0313726 0 0 0 0 0.0431373 0 0 0 0.5 0"/>
<feBlend mode="normal" in2="BackgroundImageFix" result="effect1_dropShadow_12_28"/>
<feColorMatrix in="SourceAlpha" type="matrix" values="0 0 0 0 0 0 0 0 0 0 0 0 0 0 0 0 0 0 127 0" result="hardAlpha"/>
<feOffset dx="-6" dy="-6"/>
<feGaussianBlur stdDeviation="6"/>
<feComposite in2="hardAlpha" operator="out"/>
<feColorMatrix type="matrix" values="0 0 0 0 0.0784314 0 0 0 0 0.101961 0 0 0 0 0.137255 0 0 0 0.5 0"/>
<feBlend mode="normal" in2="effect1_dropShadow_12_28" result="effect2_dropShadow_12_28"/>
<feBlend mode="normal" in="SourceGraphic" in2="effect2_dropShadow_12_28" result="shape"/>
</filter>
</defs>
</svg>
