<svg width="103" height="64" viewBox="0 0 103 64" fill="none" xmlns="http://www.w3.org/2000/svg">
<g filter="url(#filter0_dd_12_35)">
<rect x="18" y="18" width="67" height="28" rx="7" fill="#0D1117"/>
<path d="M51.42 31.8C51.42 30.976 51.604 30.24 51.972 29.592C52.348 28.936 52.856 28.428 53.496 28.068C54.144 27.7 54.868 27.516 55.668 27.516C56.604 27.516 57.424 27.756 58.128 28.236C58.832 28.716 59.324 29.38 59.604 30.228H57.672C57.48 29.828 57.208 29.528 56.856 29.328C56.512 29.128 56.112 29.028 55.656 29.028C55.168 29.028 54.732 29.144 54.348 29.376C53.972 29.6 53.676 29.92 53.46 30.336C53.252 30.752 53.148 31.24 53.148 31.8C53.148 32.352 53.252 32.84 53.46 33.264C53.676 33.68 53.972 34.004 54.348 34.236C54.732 34.46 55.168 34.572 55.656 34.572C56.112 34.572 56.512 34.472 56.856 34.272C57.208 34.064 57.48 33.76 57.672 33.36H59.604C59.324 34.216 58.832 34.884 58.128 35.364C57.432 35.836 56.612 36.072 55.668 36.072C54.868 36.072 54.144 35.892 53.496 35.532C52.856 35.164 52.348 34.656 51.972 34.008C51.604 33.36 51.42 32.624 51.42 31.8ZM63.9309 36.084C63.3469 36.084 62.8189 35.984 62.3469 35.784C61.8829 35.584 61.5149 35.296 61.2429 34.92C60.9709 34.544 60.8309 34.1 60.8229 33.588H62.6229C62.6469 33.932 62.7669 34.204 62.9829 34.404C63.2069 34.604 63.5109 34.704 63.8949 34.704C64.2869 34.704 64.5949 34.612 64.8189 34.428C65.0429 34.236 65.1549 33.988 65.1549 33.684C65.1549 33.436 65.0789 33.232 64.9269 33.072C64.7749 32.912 64.5829 32.788 64.3509 32.7C64.1269 32.604 63.8149 32.5 63.4149 32.388C62.8709 32.228 62.4269 32.072 62.0829 31.92C61.7469 31.76 61.4549 31.524 61.2069 31.212C60.9669 30.892 60.8469 30.468 60.8469 29.94C60.8469 29.444 60.9709 29.012 61.2189 28.644C61.4669 28.276 61.8149 27.996 62.2629 27.804C62.7109 27.604 63.2229 27.504 63.7989 27.504C64.6629 27.504 65.3629 27.716 65.8989 28.14C66.4429 28.556 66.7429 29.14 66.7989 29.892H64.9509C64.9349 29.604 64.8109 29.368 64.5789 29.184C64.3549 28.992 64.0549 28.896 63.6789 28.896C63.3509 28.896 63.0869 28.98 62.8869 29.148C62.6949 29.316 62.5989 29.56 62.5989 29.88C62.5989 30.104 62.6709 30.292 62.8149 30.444C62.9669 30.588 63.1509 30.708 63.3669 30.804C63.5909 30.892 63.9029 30.996 64.3029 31.116C64.8469 31.276 65.2909 31.436 65.6349 31.596C65.9789 31.756 66.2749 31.996 66.5229 32.316C66.7709 32.636 66.8949 33.056 66.8949 33.576C66.8949 34.024 66.7789 34.44 66.5469 34.824C66.3149 35.208 65.9749 35.516 65.5269 35.748C65.0789 35.972 64.5469 36.084 63.9309 36.084ZM71.2434 36.084C70.6594 36.084 70.1314 35.984 69.6594 35.784C69.1954 35.584 68.8274 35.296 68.5554 34.92C68.2834 34.544 68.1434 34.1 68.1354 33.588H69.9354C69.9594 33.932 70.0794 34.204 70.2954 34.404C70.5194 34.604 70.8234 34.704 71.2074 34.704C71.5994 34.704 71.9074 34.612 72.1314 34.428C72.3554 34.236 72.4674 33.988 72.4674 33.684C72.4674 33.436 72.3914 33.232 72.2394 33.072C72.0874 32.912 71.8954 32.788 71.6634 32.7C71.4394 32.604 71.1274 32.5 70.7274 32.388C70.1834 32.228 69.7394 32.072 69.3954 31.92C69.0594 31.76 68.7674 31.524 68.5194 31.212C68.2794 30.892 68.1594 30.468 68.1594 29.94C68.1594 29.444 68.2834 29.012 68.5314 28.644C68.7794 28.276 69.1274 27.996 69.5754 27.804C70.0234 27.604 70.5354 27.504 71.1114 27.504C71.9754 27.504 72.6754 27.716 73.2114 28.14C73.7554 28.556 74.0554 29.14 74.1114 29.892H72.2634C72.2474 29.604 72.1234 29.368 71.8914 29.184C71.6674 28.992 71.3674 28.896 70.9914 28.896C70.6634 28.896 70.3994 28.98 70.1994 29.148C70.0074 29.316 69.9114 29.56 69.9114 29.88C69.9114 30.104 69.9834 30.292 70.1274 30.444C70.2794 30.588 70.4634 30.708 70.6794 30.804C70.9034 30.892 71.2154 30.996 71.6154 31.116C72.1594 31.276 72.6034 31.436 72.9474 31.596C73.2914 31.756 73.5874 31.996 73.8354 32.316C74.0834 32.636 74.2074 33.056 74.2074 33.576C74.2074 34.024 74.0914 34.44 73.8594 34.824C73.6274 35.208 73.2874 35.516 72.8394 35.748C72.3914 35.972 71.8594 36.084 71.2434 36.084Z" fill="#E8ECF2"/>
<path d="M30.25 24.125L31.4805 38.3007L36.9919 39.875L42.5195 38.2982L43.75 24.125H30.25ZM40.4692 35.8988L37.0025 36.8867L33.541 35.8939L33.3037 33.1602H35.0003L35.1209 34.5509L37.0049 35.0839L37.0095 35.0938L38.8893 34.5717L39.0876 32.3164H35.1367L34.9961 30.5586H39.2377L39.3906 28.7656H32.9219L32.7812 27.043H41.2391L40.4692 35.8988Z" fill="#E8ECF2"/>
</g>
<defs>
<filter id="filter0_dd_12_35" x="0" y="0" width="103" height="64" filterUnits="userSpaceOnUse" color-interpolation-filters="sRGB">
<feFlood flood-opacity="0" result="BackgroundImageFix"/>
<feColorMatrix in="SourceAlpha" type="matrix" values="0 0 0 0 0 0 0 0 0 0 0 0 0 0 0 0 0 0 127 0" result="hardAlpha"/>
<feOffset dx="6" dy="6"/>
<feGaussianBlur stdDeviation="6"/>
<feComposite in2="hardAlpha" operator="out"/>
<feColorMatrix type="matrix" values="0 0 0 0 0.0235294 0 0 0 0 0.0313726 0 0 0 0 0.0431373 0 0 0 0.5 0"/>
<feBlend mode="normal" in2="BackgroundImageFix" result="effect1_dropShadow_12_35"/>
<feColorMatrix in="SourceAlpha" type="matrix" values="0 0 0 0 0 0 0 0 0 0 0 0 0 0 0 0 0 0 127 0" result="hardAlpha"/>
<feOffset dx="-6" dy="-6"/>
<feGaussianBlur stdDeviation="6"/>
<feComposite in2="hardAlpha" operator="out"/>
<feColorMatrix type="matrix" values="0 0 0 0 0.0784314 0 0 0 0 0.101961 0 0 0 0 0.137255 0 0 0 0.5 0"/>
<feBlend mode="normal" in2="effect1_dropShadow_12_35" result="effect2_dropShadow_12_35"/>
<feBlend mode="normal" in="SourceGraphic" in2="effect2_dropShadow_12_35" result="shape"/>
</filter>
</defs>
</svg>
