<svg width="135" height="64" viewBox="0 0 135 64" fill="none" xmlns="http://www.w3.org/2000/svg">
<g filter="url(#filter0_dd_12_42)">
<rect x="18" y="18" width="99" height="28" rx="7" fill="#0D1117"/>
<path d="M54.756 27.624C55.636 27.624 56.408 27.796 57.072 28.14C57.744 28.484 58.26 28.976 58.62 29.616C58.988 30.248 59.172 30.984 59.172 31.824C59.172 32.664 58.988 33.4 58.62 34.032C58.26 34.656 57.744 35.14 57.072 35.484C56.408 35.828 55.636 36 54.756 36H51.828V27.624H54.756ZM54.696 34.572C55.576 34.572 56.256 34.332 56.736 33.852C57.216 33.372 57.456 32.696 57.456 31.824C57.456 30.952 57.216 30.272 56.736 29.784C56.256 29.288 55.576 29.04 54.696 29.04H53.508V34.572H54.696ZM62.1096 27.624V36H60.4296V27.624H62.1096ZM66.6614 36.084C66.0774 36.084 65.5494 35.984 65.0774 35.784C64.6134 35.584 64.2454 35.296 63.9734 34.92C63.7014 34.544 63.5614 34.1 63.5534 33.588H65.3534C65.3774 33.932 65.4974 34.204 65.7134 34.404C65.9374 34.604 66.2414 34.704 66.6254 34.704C67.0174 34.704 67.3254 34.612 67.5494 34.428C67.7734 34.236 67.8854 33.988 67.8854 33.684C67.8854 33.436 67.8094 33.232 67.6574 33.072C67.5054 32.912 67.3134 32.788 67.0814 32.7C66.8574 32.604 66.5454 32.5 66.1454 32.388C65.6014 32.228 65.1574 32.072 64.8134 31.92C64.4774 31.76 64.1854 31.524 63.9374 31.212C63.6974 30.892 63.5774 30.468 63.5774 29.94C63.5774 29.444 63.7014 29.012 63.9494 28.644C64.1974 28.276 64.5454 27.996 64.9934 27.804C65.4414 27.604 65.9534 27.504 66.5294 27.504C67.3934 27.504 68.0934 27.716 68.6294 28.14C69.1734 28.556 69.4734 29.14 69.5294 29.892H67.6814C67.6654 29.604 67.5414 29.368 67.3094 29.184C67.0854 28.992 66.7854 28.896 66.4094 28.896C66.0814 28.896 65.8174 28.98 65.6174 29.148C65.4254 29.316 65.3294 29.56 65.3294 29.88C65.3294 30.104 65.4014 30.292 65.5454 30.444C65.6974 30.588 65.8814 30.708 66.0974 30.804C66.3214 30.892 66.6334 30.996 67.0334 31.116C67.5774 31.276 68.0214 31.436 68.3654 31.596C68.7094 31.756 69.0054 31.996 69.2534 32.316C69.5014 32.636 69.6254 33.056 69.6254 33.576C69.6254 34.024 69.5094 34.44 69.2774 34.824C69.0454 35.208 68.7054 35.516 68.2574 35.748C67.8094 35.972 67.2774 36.084 66.6614 36.084ZM70.6739 31.8C70.6739 30.976 70.8579 30.24 71.2259 29.592C71.6019 28.936 72.1099 28.428 72.7499 28.068C73.3979 27.7 74.1219 27.516 74.9219 27.516C75.8579 27.516 76.6779 27.756 77.3819 28.236C78.0859 28.716 78.5779 29.38 78.8579 30.228H76.9259C76.7339 29.828 76.4619 29.528 76.1099 29.328C75.7659 29.128 75.3659 29.028 74.9099 29.028C74.4219 29.028 73.9859 29.144 73.6019 29.376C73.2259 29.6 72.9299 29.92 72.7139 30.336C72.5059 30.752 72.4019 31.24 72.4019 31.8C72.4019 32.352 72.5059 32.84 72.7139 33.264C72.9299 33.68 73.2259 34.004 73.6019 34.236C73.9859 34.46 74.4219 34.572 74.9099 34.572C75.3659 34.572 75.7659 34.472 76.1099 34.272C76.4619 34.064 76.7339 33.76 76.9259 33.36H78.8579C78.5779 34.216 78.0859 34.884 77.3819 35.364C76.6859 35.836 75.8659 36.072 74.9219 36.072C74.1219 36.072 73.3979 35.892 72.7499 35.532C72.1099 35.164 71.6019 34.656 71.2259 34.008C70.8579 33.36 70.6739 32.624 70.6739 31.8ZM84.1808 36.084C83.3968 36.084 82.6768 35.9 82.0208 35.532C81.3648 35.164 80.8448 34.656 80.4608 34.008C80.0768 33.352 79.8848 32.612 79.8848 31.788C79.8848 30.972 80.0768 30.24 80.4608 29.592C80.8448 28.936 81.3648 28.424 82.0208 28.056C82.6768 27.688 83.3968 27.504 84.1808 27.504C84.9728 27.504 85.6928 27.688 86.3408 28.056C86.9968 28.424 87.5128 28.936 87.8888 29.592C88.2728 30.24 88.4648 30.972 88.4648 31.788C88.4648 32.612 88.2728 33.352 87.8888 34.008C87.5128 34.656 86.9968 35.164 86.3408 35.532C85.6848 35.9 84.9648 36.084 84.1808 36.084ZM84.1808 34.584C84.6848 34.584 85.1288 34.472 85.5128 34.248C85.8968 34.016 86.1968 33.688 86.4128 33.264C86.6288 32.84 86.7368 32.348 86.7368 31.788C86.7368 31.228 86.6288 30.74 86.4128 30.324C86.1968 29.9 85.8968 29.576 85.5128 29.352C85.1288 29.128 84.6848 29.016 84.1808 29.016C83.6768 29.016 83.2288 29.128 82.8368 29.352C82.4528 29.576 82.1528 29.9 81.9368 30.324C81.7208 30.74 81.6128 31.228 81.6128 31.788C81.6128 32.348 81.7208 32.84 81.9368 33.264C82.1528 33.688 82.4528 34.016 82.8368 34.248C83.2288 34.472 83.6768 34.584 84.1808 34.584ZM94.0347 36L92.1867 32.736H91.3947V36H89.7147V27.624H92.8587C93.5067 27.624 94.0587 27.74 94.5147 27.972C94.9707 28.196 95.3107 28.504 95.5347 28.896C95.7667 29.28 95.8827 29.712 95.8827 30.192C95.8827 30.744 95.7227 31.244 95.4027 31.692C95.0827 32.132 94.6067 32.436 93.9747 32.604L95.9787 36H94.0347ZM91.3947 31.476H92.7987C93.2547 31.476 93.5947 31.368 93.8187 31.152C94.0427 30.928 94.1547 30.62 94.1547 30.228C94.1547 29.844 94.0427 29.548 93.8187 29.34C93.5947 29.124 93.2547 29.016 92.7987 29.016H91.3947V31.476ZM100.33 27.624C101.21 27.624 101.982 27.796 102.646 28.14C103.318 28.484 103.834 28.976 104.194 29.616C104.562 30.248 104.746 30.984 104.746 31.824C104.746 32.664 104.562 33.4 104.194 34.032C103.834 34.656 103.318 35.14 102.646 35.484C101.982 35.828 101.21 36 100.33 36H97.4022V27.624H100.33ZM100.27 34.572C101.15 34.572 101.83 34.332 102.31 33.852C102.79 33.372 103.03 32.696 103.03 31.824C103.03 30.952 102.79 30.272 102.31 29.784C101.83 29.288 101.15 29.04 100.27 29.04H99.0822V34.572H100.27Z" fill="#E8ECF2"/>
<path d="M44.3125 25.3386C44.3081 24.8761 44.1215 24.4339 43.7932 24.108C43.465 23.7821 43.0215 23.5987 42.5589 23.5977L31.4327 23.5625C30.9706 23.5626 30.5274 23.7459 30.2002 24.0723C29.8731 24.3986 29.6887 24.8414 29.6875 25.3034V36.7812C29.6875 37.741 30.4708 38.4688 31.4327 38.4688H40.9375L40.4805 36.9219L44.3125 40.4375V25.3386ZM39.4135 34.5949C39.4135 34.5949 39.1069 34.2296 38.851 33.9157C39.9668 33.6014 40.3926 32.9141 40.3926 32.9141C40.0861 33.1174 39.7577 33.2854 39.4135 33.415C39.0161 33.58 38.6023 33.7025 38.1791 33.7803C37.45 33.9142 36.7023 33.9114 35.9741 33.7719C35.5458 33.6923 35.1267 33.5698 34.7229 33.4062C34.5094 33.3244 34.3017 33.228 34.1014 33.1176C34.0757 33.1007 34.0504 33.0923 34.0247 33.0751C34.0075 33.0666 33.9991 33.0582 33.9896 33.0582C33.8363 32.9731 33.7512 32.9137 33.7512 32.9137C33.7512 32.9137 34.1597 33.5848 35.2411 33.9072C34.9855 34.23 34.6705 34.6037 34.6705 34.6037C32.7893 34.5443 32.0743 33.3215 32.0743 33.3215C32.0743 30.6124 33.3002 28.413 33.3002 28.413C34.5261 27.5042 35.6837 27.5299 35.6837 27.5299L35.7688 27.6318C34.2364 28.065 33.5385 28.7357 33.5385 28.7357C33.5385 28.7357 33.7255 28.6338 34.0405 28.4977C34.9514 28.0987 35.6753 27.9968 35.9741 27.963C36.0218 27.9531 36.0703 27.9473 36.119 27.9458C36.6894 27.8718 37.2667 27.8661 37.8385 27.9289C38.7363 28.032 39.6061 28.3059 40.401 28.7357C40.401 28.7357 39.7285 28.0977 38.2811 27.6652L38.4003 27.5295C38.4003 27.5295 39.5664 27.5039 40.7842 28.4141C40.7842 28.4141 42.0101 30.6134 42.0101 33.3226C42.0101 33.3127 41.2947 34.5355 39.4135 34.5949Z" fill="#E8ECF2"/>
<path d="M35.4549 30.6641C34.9697 30.6641 34.5865 31.0803 34.5865 31.5982C34.5865 32.116 34.9782 32.5323 35.4549 32.5323C35.94 32.5323 36.3232 32.1164 36.3232 31.5982C36.332 31.0793 35.94 30.6641 35.4549 30.6641ZM38.562 30.6641C38.0768 30.6641 37.6936 31.0803 37.6936 31.5982C37.6936 32.116 38.0853 32.5323 38.562 32.5323C39.0475 32.5323 39.4303 32.1164 39.4303 31.5982C39.4303 31.08 39.0391 30.6641 38.562 30.6641Z" fill="#E8ECF2"/>
</g>
<defs>
<filter id="filter0_dd_12_42" x="0" y="0" width="135" height="64" filterUnits="userSpaceOnUse" color-interpolation-filters="sRGB">
<feFlood flood-opacity="0" result="BackgroundImageFix"/>
<feColorMatrix in="SourceAlpha" type="matrix" values="0 0 0 0 0 0 0 0 0 0 0 0 0 0 0 0 0 0 127 0" result="hardAlpha"/>
<feOffset dx="6" dy="6"/>
<feGaussianBlur stdDeviation="6"/>
<feComposite in2="hardAlpha" operator="out"/>
<feColorMatrix type="matrix" values="0 0 0 0 0.0235294 0 0 0 0 0.0313726 0 0 0 0 0.0431373 0 0 0 0.5 0"/>
<feBlend mode="normal" in2="BackgroundImageFix" result="effect1_dropShadow_12_42"/>
<feColorMatrix in="SourceAlpha" type="matrix" values="0 0 0 0 0 0 0 0 0 0 0 0 0 0 0 0 0 0 127 0" result="hardAlpha"/>
<feOffset dx="-6" dy="-6"/>
<feGaussianBlur stdDeviation="6"/>
<feComposite in2="hardAlpha" operator="out"/>
<feColorMatrix type="matrix" values="0 0 0 0 0.0784314 0 0 0 0 0.101961 0 0 0 0 0.137255 0 0 0 0.5 0"/>
<feBlend mode="normal" in2="effect1_dropShadow_12_42" result="effect2_dropShadow_12_42"/>
<feBlend mode="normal" in="SourceGraphic" in2="effect2_dropShadow_12_42" result="shape"/>
</filter>
</defs>
</svg>
