<svg width="129" height="64" viewBox="0 0 129 64" fill="none" xmlns="http://www.w3.org/2000/svg">
<g filter="url(#filter0_dd_12_55)">
<rect x="18" y="18" width="93" height="28" rx="7" fill="#0D1117"/>
<path d="M54.756 27.624C55.636 27.624 56.408 27.796 57.072 28.14C57.744 28.484 58.26 28.976 58.62 29.616C58.988 30.248 59.172 30.984 59.172 31.824C59.172 32.664 58.988 33.4 58.62 34.032C58.26 34.656 57.744 35.14 57.072 35.484C56.408 35.828 55.636 36 54.756 36H51.828V27.624H54.756ZM54.696 34.572C55.576 34.572 56.256 34.332 56.736 33.852C57.216 33.372 57.456 32.696 57.456 31.824C57.456 30.952 57.216 30.272 56.736 29.784C56.256 29.288 55.576 29.04 54.696 29.04H53.508V34.572H54.696ZM64.3176 36.084C63.5336 36.084 62.8136 35.9 62.1576 35.532C61.5016 35.164 60.9816 34.656 60.5976 34.008C60.2136 33.352 60.0216 32.612 60.0216 31.788C60.0216 30.972 60.2136 30.24 60.5976 29.592C60.9816 28.936 61.5016 28.424 62.1576 28.056C62.8136 27.688 63.5336 27.504 64.3176 27.504C65.1096 27.504 65.8296 27.688 66.4776 28.056C67.1336 28.424 67.6496 28.936 68.0256 29.592C68.4096 30.24 68.6016 30.972 68.6016 31.788C68.6016 32.612 68.4096 33.352 68.0256 34.008C67.6496 34.656 67.1336 35.164 66.4776 35.532C65.8216 35.9 65.1016 36.084 64.3176 36.084ZM64.3176 34.584C64.8216 34.584 65.2656 34.472 65.6496 34.248C66.0336 34.016 66.3336 33.688 66.5496 33.264C66.7656 32.84 66.8736 32.348 66.8736 31.788C66.8736 31.228 66.7656 30.74 66.5496 30.324C66.3336 29.9 66.0336 29.576 65.6496 29.352C65.2656 29.128 64.8216 29.016 64.3176 29.016C63.8136 29.016 63.3656 29.128 62.9736 29.352C62.5896 29.576 62.2896 29.9 62.0736 30.324C61.8576 30.74 61.7496 31.228 61.7496 31.788C61.7496 32.348 61.8576 32.84 62.0736 33.264C62.2896 33.688 62.5896 34.016 62.9736 34.248C63.3656 34.472 63.8136 34.584 64.3176 34.584ZM69.4434 31.8C69.4434 30.976 69.6274 30.24 69.9954 29.592C70.3714 28.936 70.8794 28.428 71.5194 28.068C72.1674 27.7 72.8914 27.516 73.6914 27.516C74.6274 27.516 75.4474 27.756 76.1514 28.236C76.8554 28.716 77.3474 29.38 77.6274 30.228H75.6954C75.5034 29.828 75.2314 29.528 74.8794 29.328C74.5354 29.128 74.1354 29.028 73.6794 29.028C73.1914 29.028 72.7554 29.144 72.3714 29.376C71.9954 29.6 71.6994 29.92 71.4834 30.336C71.2754 30.752 71.1714 31.24 71.1714 31.8C71.1714 32.352 71.2754 32.84 71.4834 33.264C71.6994 33.68 71.9954 34.004 72.3714 34.236C72.7554 34.46 73.1914 34.572 73.6794 34.572C74.1354 34.572 74.5354 34.472 74.8794 34.272C75.2314 34.064 75.5034 33.76 75.6954 33.36H77.6274C77.3474 34.216 76.8554 34.884 76.1514 35.364C75.4554 35.836 74.6354 36.072 73.6914 36.072C72.8914 36.072 72.1674 35.892 71.5194 35.532C70.8794 35.164 70.3714 34.656 69.9954 34.008C69.6274 33.36 69.4434 32.624 69.4434 31.8ZM83.7904 36L80.7424 32.268V36H79.0624V27.624H80.7424V31.38L83.7904 27.624H85.8184L82.3624 31.776L85.9144 36H83.7904ZM88.6994 28.98V31.08H91.5194V32.412H88.6994V34.632H91.8794V36H87.0194V27.612H91.8794V28.98H88.6994ZM97.7261 36L95.8781 32.736H95.0861V36H93.4061V27.624H96.5501C97.1981 27.624 97.7501 27.74 98.2061 27.972C98.6621 28.196 99.0021 28.504 99.2261 28.896C99.4581 29.28 99.5741 29.712 99.5741 30.192C99.5741 30.744 99.4141 31.244 99.0941 31.692C98.7741 32.132 98.2981 32.436 97.6661 32.604L99.6701 36H97.7261ZM95.0861 31.476H96.4901C96.9461 31.476 97.2861 31.368 97.5101 31.152C97.7341 30.928 97.8461 30.62 97.8461 30.228C97.8461 29.844 97.7341 29.548 97.5101 29.34C97.2861 29.124 96.9461 29.016 96.4901 29.016H95.0861V31.476Z" fill="#E8ECF2"/>
<g clip-path="url(#clip0_12_55)">
<path d="M45.8242 30.4236C45.7743 30.3818 45.3232 30.039 44.355 30.039C44.1004 30.0405 43.8463 30.0628 43.5953 30.1058C43.4118 28.8261 42.3515 28.2074 42.3096 28.1722L42.0509 28.0217L41.8839 28.2643C41.6733 28.5936 41.5182 28.9553 41.4248 29.3348C41.249 30.0625 41.358 30.7481 41.7253 31.3334C41.2827 31.5845 40.5652 31.6428 40.4147 31.6499H28.5604C28.4865 31.6498 28.4134 31.6644 28.3451 31.6927C28.2769 31.7211 28.215 31.7626 28.1629 31.815C28.1108 31.8674 28.0696 31.9296 28.0416 31.9979C28.0137 32.0663 27.9995 32.1395 28 32.2134C27.9841 33.2541 28.1598 34.2889 28.5185 35.266C28.9278 36.3365 29.537 37.1328 30.3203 37.6159C31.2069 38.1594 32.6512 38.4688 34.2789 38.4688C35.0153 38.4688 35.7502 38.4016 36.4744 38.268C37.484 38.0849 38.4552 37.7315 39.3463 37.2228C40.0799 36.7966 40.7397 36.2544 41.2999 35.6172C42.2432 34.5552 42.8025 33.3672 43.2117 32.3125H43.3787C44.4056 32.3125 45.0402 31.9026 45.3907 31.5514C45.6234 31.3309 45.8057 31.0628 45.9251 30.7653L46.0003 30.5481L45.8242 30.4236Z" fill="#E8ECF2"/>
<path d="M29.6625 31.3099H31.2484C31.2857 31.3099 31.3215 31.2951 31.3479 31.2687C31.3742 31.2423 31.3891 31.2066 31.3891 31.1693V29.7461C31.3891 29.7088 31.3742 29.6731 31.3479 29.6467C31.3215 29.6203 31.2857 29.6055 31.2484 29.6055H29.6625C29.6252 29.6055 29.5895 29.6203 29.5631 29.6467C29.5367 29.6731 29.5219 29.7088 29.5219 29.7461V31.1679C29.5233 31.2047 29.5386 31.2397 29.5646 31.2657C29.5907 31.2918 29.6257 31.3071 29.6625 31.3085M31.8496 31.3099H33.4359C33.4732 31.3099 33.5089 31.2951 33.5353 31.2687C33.5617 31.2423 33.5765 31.2066 33.5765 31.1693V29.7461C33.5765 29.7088 33.5617 29.6731 33.5353 29.6467C33.5089 29.6203 33.4732 29.6055 33.4359 29.6055H31.8496C31.8123 29.6055 31.7765 29.6203 31.7502 29.6467C31.7238 29.6731 31.709 29.7088 31.709 29.7461V31.1679C31.7104 31.2047 31.7256 31.2397 31.7517 31.2657C31.7778 31.2918 31.8128 31.3071 31.8496 31.3085M34.0785 31.3099H35.6641C35.7014 31.3099 35.7371 31.2951 35.7635 31.2687C35.7899 31.2423 35.8047 31.2066 35.8047 31.1693V29.7461C35.8047 29.7088 35.7899 29.6731 35.7635 29.6467C35.7371 29.6203 35.7014 29.6055 35.6641 29.6055H34.0785C34.0412 29.6055 34.0054 29.6203 33.9791 29.6467C33.9527 29.6731 33.9379 29.7088 33.9379 29.7461V31.1679C33.9373 31.1865 33.9405 31.2051 33.9473 31.2224C33.9541 31.2398 33.9645 31.2555 33.9777 31.2687C33.9908 31.2819 34.0066 31.2922 34.024 31.2991C34.0413 31.3059 34.0599 31.3091 34.0785 31.3085M36.2744 31.3099H37.8606C37.8979 31.3099 37.9337 31.2951 37.9601 31.2687C37.9864 31.2423 38.0012 31.2066 38.0012 31.1693V29.7461C38.0012 29.7088 37.9864 29.6731 37.9601 29.6467C37.9337 29.6203 37.8979 29.6055 37.8606 29.6055H36.2744C36.2371 29.6055 36.2013 29.6203 36.1749 29.6467C36.1486 29.6731 36.1337 29.7088 36.1337 29.7461V31.1679C36.1337 31.2051 36.1486 31.2409 36.1749 31.2673C36.2013 31.2937 36.2371 31.3085 36.2744 31.3085M31.8496 29.2779H33.4359C33.4727 29.2765 33.5077 29.2612 33.5338 29.2351C33.5598 29.209 33.5751 29.1741 33.5765 29.1372V27.7141C33.5765 27.6768 33.5617 27.641 33.5353 27.6147C33.5089 27.5883 33.4732 27.5735 33.4359 27.5735H31.8496C31.8123 27.5735 31.7765 27.5883 31.7502 27.6147C31.7238 27.641 31.709 27.6768 31.709 27.7141V29.1358C31.7117 29.1722 31.7274 29.2064 31.7532 29.2322C31.779 29.258 31.8132 29.2737 31.8496 29.2764M34.0785 29.2779H35.6641C35.7009 29.2765 35.7359 29.2612 35.762 29.2351C35.788 29.209 35.8033 29.1741 35.8047 29.1372V27.7141C35.8047 27.6768 35.7899 27.641 35.7635 27.6147C35.7371 27.5883 35.7014 27.5735 35.6641 27.5735H34.0785C34.0412 27.5735 34.0054 27.5883 33.9791 27.6147C33.9527 27.641 33.9379 27.6768 33.9379 27.7141V29.1358C33.9379 29.1731 33.9527 29.2089 33.9791 29.2353C34.0054 29.2616 34.0412 29.2764 34.0785 29.2764M36.2744 29.2779H37.8606C37.8975 29.2765 37.9324 29.2612 37.9585 29.2351C37.9846 29.209 37.9999 29.1741 38.0012 29.1372V27.7141C37.9999 27.6772 37.9846 27.6423 37.9585 27.6162C37.9324 27.5901 37.8975 27.5749 37.8606 27.5735H36.2744C36.2371 27.5735 36.2013 27.5883 36.1749 27.6147C36.1486 27.641 36.1337 27.6768 36.1337 27.7141V29.1358C36.1351 29.1727 36.1504 29.2076 36.1765 29.2337C36.2026 29.2598 36.2375 29.2751 36.2744 29.2764M36.2744 27.2374H37.8606C37.8979 27.2374 37.9337 27.2226 37.9601 27.1962C37.9864 27.1698 38.0012 27.1341 38.0012 27.0968V25.6719C37.9999 25.635 37.9846 25.6001 37.9585 25.574C37.9324 25.5479 37.8975 25.5326 37.8606 25.5312H36.2744C36.2371 25.5312 36.2013 25.5461 36.1749 25.5724C36.1486 25.5988 36.1337 25.6346 36.1337 25.6719V27.0936C36.1352 27.1304 36.1505 27.1653 36.1766 27.1914C36.2026 27.2175 36.2375 27.2327 36.2744 27.2342M38.4864 31.3099H40.0727C40.1099 31.3099 40.1457 31.2951 40.1721 31.2687C40.1985 31.2423 40.2133 31.2066 40.2133 31.1693V29.7461C40.2133 29.7088 40.1985 29.6731 40.1721 29.6467C40.1457 29.6203 40.1099 29.6055 40.0727 29.6055H38.4864C38.4491 29.6055 38.4133 29.6203 38.387 29.6467C38.3606 29.6731 38.3458 29.7088 38.3458 29.7461V31.1679C38.3472 31.2047 38.3624 31.2397 38.3885 31.2657C38.4146 31.2918 38.4496 31.3071 38.4864 31.3085" fill="#E8ECF2"/>
</g>
</g>
<defs>
<filter id="filter0_dd_12_55" x="0" y="0" width="129" height="64" filterUnits="userSpaceOnUse" color-interpolation-filters="sRGB">
<feFlood flood-opacity="0" result="BackgroundImageFix"/>
<feColorMatrix in="SourceAlpha" type="matrix" values="0 0 0 0 0 0 0 0 0 0 0 0 0 0 0 0 0 0 127 0" result="hardAlpha"/>
<feOffset dx="6" dy="6"/>
<feGaussianBlur stdDeviation="6"/>
<feComposite in2="hardAlpha" operator="out"/>
<feColorMatrix type="matrix" values="0 0 0 0 0.0235294 0 0 0 0 0.0313726 0 0 0 0 0.0431373 0 0 0 0.5 0"/>
<feBlend mode="normal" in2="BackgroundImageFix" result="effect1_dropShadow_12_55"/>
<feColorMatrix in="SourceAlpha" type="matrix" values="0 0 0 0 0 0 0 0 0 0 0 0 0 0 0 0 0 0 127 0" result="hardAlpha"/>
<feOffset dx="-6" dy="-6"/>
<feGaussianBlur stdDeviation="6"/>
<feComposite in2="hardAlpha" operator="out"/>
<feColorMatrix type="matrix" values="0 0 0 0 0.0784314 0 0 0 0 0.101961 0 0 0 0 0.137255 0 0 0 0.5 0"/>
<feBlend mode="normal" in2="effect1_dropShadow_12_55" result="effect2_dropShadow_12_55"/>
<feBlend mode="normal" in="SourceGraphic" in2="effect2_dropShadow_12_55" result="shape"/>
</filter>
<clipPath id="clip0_12_55">
<rect width="18" height="18" fill="white" transform="translate(28 23)"/>
</clipPath>
</defs>
</svg>
