<svg width="134" height="64" viewBox="0 0 134 64" fill="none" xmlns="http://www.w3.org/2000/svg">
<g filter="url(#filter0_dd_12_61)">
<rect x="18" y="18" width="98" height="28" rx="7" fill="#0D1117"/>
<path d="M54.756 27.624C55.636 27.624 56.408 27.796 57.072 28.14C57.744 28.484 58.26 28.976 58.62 29.616C58.988 30.248 59.172 30.984 59.172 31.824C59.172 32.664 58.988 33.4 58.62 34.032C58.26 34.656 57.744 35.14 57.072 35.484C56.408 35.828 55.636 36 54.756 36H51.828V27.624H54.756ZM54.696 34.572C55.576 34.572 56.256 34.332 56.736 33.852C57.216 33.372 57.456 32.696 57.456 31.824C57.456 30.952 57.216 30.272 56.736 29.784C56.256 29.288 55.576 29.04 54.696 29.04H53.508V34.572H54.696ZM64.7496 36L62.9016 32.736H62.1096V36H60.4296V27.624H63.5736C64.2216 27.624 64.7736 27.74 65.2296 27.972C65.6856 28.196 66.0256 28.504 66.2496 28.896C66.4816 29.28 66.5976 29.712 66.5976 30.192C66.5976 30.744 66.4376 31.244 66.1176 31.692C65.7976 32.132 65.3216 32.436 64.6896 32.604L66.6936 36H64.7496ZM62.1096 31.476H63.5136C63.9696 31.476 64.3096 31.368 64.5336 31.152C64.7576 30.928 64.8696 30.62 64.8696 30.228C64.8696 29.844 64.7576 29.548 64.5336 29.34C64.3096 29.124 63.9696 29.016 63.5136 29.016H62.1096V31.476ZM69.7971 27.624V36H68.1171V27.624H69.7971ZM76.2089 31.704C76.6809 31.792 77.0689 32.028 77.3729 32.412C77.6769 32.796 77.8289 33.236 77.8289 33.732C77.8289 34.18 77.7169 34.576 77.4929 34.92C77.2769 35.256 76.9609 35.52 76.5449 35.712C76.1289 35.904 75.6369 36 75.0689 36H71.4569V27.624H74.9129C75.4809 27.624 75.9689 27.716 76.3769 27.9C76.7929 28.084 77.1049 28.34 77.3129 28.668C77.5289 28.996 77.6369 29.368 77.6369 29.784C77.6369 30.272 77.5049 30.68 77.2409 31.008C76.9849 31.336 76.6409 31.568 76.2089 31.704ZM73.1369 31.08H74.6729C75.0729 31.08 75.3809 30.992 75.5969 30.816C75.8129 30.632 75.9209 30.372 75.9209 30.036C75.9209 29.7 75.8129 29.44 75.5969 29.256C75.3809 29.072 75.0729 28.98 74.6729 28.98H73.1369V31.08ZM74.8289 34.632C75.2369 34.632 75.5529 34.536 75.7769 34.344C76.0089 34.152 76.1249 33.88 76.1249 33.528C76.1249 33.168 76.0049 32.888 75.7649 32.688C75.5249 32.48 75.2009 32.376 74.7929 32.376H73.1369V34.632H74.8289ZM83.9198 31.704C84.3918 31.792 84.7798 32.028 85.0838 32.412C85.3878 32.796 85.5398 33.236 85.5398 33.732C85.5398 34.18 85.4278 34.576 85.2038 34.92C84.9878 35.256 84.6718 35.52 84.2558 35.712C83.8398 35.904 83.3478 36 82.7798 36H79.1678V27.624H82.6238C83.1918 27.624 83.6798 27.716 84.0878 27.9C84.5038 28.084 84.8158 28.34 85.0238 28.668C85.2398 28.996 85.3478 29.368 85.3478 29.784C85.3478 30.272 85.2158 30.68 84.9518 31.008C84.6958 31.336 84.3518 31.568 83.9198 31.704ZM80.8478 31.08H82.3838C82.7838 31.08 83.0918 30.992 83.3078 30.816C83.5238 30.632 83.6318 30.372 83.6318 30.036C83.6318 29.7 83.5238 29.44 83.3078 29.256C83.0918 29.072 82.7838 28.98 82.3838 28.98H80.8478V31.08ZM82.5398 34.632C82.9478 34.632 83.2638 34.536 83.4878 34.344C83.7198 34.152 83.8358 33.88 83.8358 33.528C83.8358 33.168 83.7158 32.888 83.4758 32.688C83.2358 32.48 82.9118 32.376 82.5038 32.376H80.8478V34.632H82.5398ZM91.6308 31.704C92.1028 31.792 92.4908 32.028 92.7948 32.412C93.0988 32.796 93.2508 33.236 93.2508 33.732C93.2508 34.18 93.1388 34.576 92.9148 34.92C92.6988 35.256 92.3828 35.52 91.9668 35.712C91.5508 35.904 91.0588 36 90.4908 36H86.8788V27.624H90.3348C90.9028 27.624 91.3908 27.716 91.7988 27.9C92.2148 28.084 92.5268 28.34 92.7348 28.668C92.9508 28.996 93.0588 29.368 93.0588 29.784C93.0588 30.272 92.9268 30.68 92.6628 31.008C92.4068 31.336 92.0628 31.568 91.6308 31.704ZM88.5588 31.08H90.0948C90.4948 31.08 90.8028 30.992 91.0188 30.816C91.2348 30.632 91.3428 30.372 91.3428 30.036C91.3428 29.7 91.2348 29.44 91.0188 29.256C90.8028 29.072 90.4948 28.98 90.0948 28.98H88.5588V31.08ZM90.2508 34.632C90.6588 34.632 90.9748 34.536 91.1988 34.344C91.4308 34.152 91.5468 33.88 91.5468 33.528C91.5468 33.168 91.4268 32.888 91.1868 32.688C90.9468 32.48 90.6228 32.376 90.2148 32.376H88.5588V34.632H90.2508ZM96.2697 34.668H99.0297V36H94.5897V27.624H96.2697V34.668ZM101.778 28.98V31.08H104.598V32.412H101.778V34.632H104.958V36H100.098V27.612H104.958V28.98H101.778Z" fill="#E8ECF2"/>
<path d="M37 24.125C32.6522 24.125 29.125 27.6522 29.125 32C29.125 36.3478 32.6522 39.875 37 39.875C41.3478 39.875 44.875 36.3516 44.875 32C44.875 27.6484 41.3478 24.125 37 24.125ZM41.9999 27.7549C42.9111 28.826 43.4535 30.1619 43.5468 31.5651C42.1275 31.4913 40.4295 31.4913 39.0679 31.6186C38.8956 31.1837 38.7191 30.7572 38.5265 30.347C40.0966 29.6663 41.3066 28.772 41.9999 27.7549ZM37 25.4374C38.5296 25.4348 40.0117 25.969 41.1878 26.947C40.4741 27.8491 39.3544 28.6345 37.9598 29.2272C37.1969 27.8164 36.319 26.6025 35.3828 25.6466C35.9111 25.5102 36.4544 25.4399 37 25.4374ZM34.0304 26.1553C34.9778 27.0985 35.868 28.2998 36.6474 29.7061C35.1666 30.1585 33.4686 30.418 31.6562 30.418C31.3117 30.418 30.9756 30.4057 30.6434 30.3849C30.8745 29.4795 31.2962 28.6339 31.8803 27.9044C32.4643 27.175 33.1974 26.5787 34.0304 26.1553ZM30.4497 31.6882C30.823 31.7047 31.2003 31.7128 31.5817 31.7089C33.6489 31.6843 35.5727 31.3602 37.2257 30.83C37.3816 31.1541 37.5292 31.4864 37.6687 31.8267C37.4689 31.8704 37.2728 31.9292 37.0819 32.0025C34.8221 32.9517 33.0421 34.4813 32.0781 36.3313C31.0211 35.136 30.4376 33.5956 30.4374 32C30.4374 31.8945 30.4416 31.7908 30.4497 31.6882ZM37 38.5626C35.542 38.5644 34.1254 38.0777 32.9764 37.1803C33.85 35.4495 35.4085 34.0162 37.3734 33.1278C37.5579 33.0417 37.804 32.9721 38.087 32.9105C38.3214 33.5584 38.5306 34.231 38.7146 34.9285C38.9894 35.9813 39.1917 37.0516 39.3203 38.132C38.5796 38.4158 37.7932 38.5617 37 38.5626ZM40.548 37.5167C40.4196 36.4251 40.2154 35.3438 39.9366 34.2806C39.796 33.7473 39.6374 33.2305 39.4652 32.726C40.7529 32.6205 42.2952 32.6356 43.5215 32.726C43.4134 33.6954 43.0904 34.6285 42.576 35.4573C42.0616 36.2861 41.3688 36.9897 40.548 37.5167Z" fill="#E8ECF2"/>
</g>
<defs>
<filter id="filter0_dd_12_61" x="0" y="0" width="134" height="64" filterUnits="userSpaceOnUse" color-interpolation-filters="sRGB">
<feFlood flood-opacity="0" result="BackgroundImageFix"/>
<feColorMatrix in="SourceAlpha" type="matrix" values="0 0 0 0 0 0 0 0 0 0 0 0 0 0 0 0 0 0 127 0" result="hardAlpha"/>
<feOffset dx="6" dy="6"/>
<feGaussianBlur stdDeviation="6"/>
<feComposite in2="hardAlpha" operator="out"/>
<feColorMatrix type="matrix" values="0 0 0 0 0.0235294 0 0 0 0 0.0313726 0 0 0 0 0.0431373 0 0 0 0.5 0"/>
<feBlend mode="normal" in2="BackgroundImageFix" result="effect1_dropShadow_12_61"/>
<feColorMatrix in="SourceAlpha" type="matrix" values="0 0 0 0 0 0 0 0 0 0 0 0 0 0 0 0 0 0 127 0" result="hardAlpha"/>
<feOffset dx="-6" dy="-6"/>
<feGaussianBlur stdDeviation="6"/>
<feComposite in2="hardAlpha" operator="out"/>
<feColorMatrix type="matrix" values="0 0 0 0 0.0784314 0 0 0 0 0.101961 0 0 0 0 0.137255 0 0 0 0.5 0"/>
<feBlend mode="normal" in2="effect1_dropShadow_12_61" result="effect2_dropShadow_12_61"/>
<feBlend mode="normal" in="SourceGraphic" in2="effect2_dropShadow_12_61" result="shape"/>
</filter>
</defs>
</svg>
