<svg width="140" height="64" viewBox="0 0 140 64" fill="none" xmlns="http://www.w3.org/2000/svg">
<g filter="url(#filter0_dd_12_72)">
<rect x="18" y="18" width="104" height="28" rx="7" fill="#0D1117"/>
<path d="M53.508 28.98V31.08H56.328V32.412H53.508V34.632H56.688V36H51.828V27.612H56.688V28.98H53.508ZM59.8947 34.668H62.6547V36H58.2147V27.624H59.8947V34.668ZM65.4025 28.98V31.08H68.2225V32.412H65.4025V34.632H68.5825V36H63.7225V27.612H68.5825V28.98H65.4025ZM69.7013 31.8C69.7013 30.976 69.8853 30.24 70.2533 29.592C70.6293 28.936 71.1373 28.428 71.7773 28.068C72.4253 27.7 73.1493 27.516 73.9493 27.516C74.8853 27.516 75.7053 27.756 76.4093 28.236C77.1133 28.716 77.6053 29.38 77.8853 30.228H75.9533C75.7613 29.828 75.4893 29.528 75.1373 29.328C74.7933 29.128 74.3933 29.028 73.9373 29.028C73.4493 29.028 73.0133 29.144 72.6293 29.376C72.2533 29.6 71.9573 29.92 71.7413 30.336C71.5333 30.752 71.4293 31.24 71.4293 31.8C71.4293 32.352 71.5333 32.84 71.7413 33.264C71.9573 33.68 72.2533 34.004 72.6293 34.236C73.0133 34.46 73.4493 34.572 73.9373 34.572C74.3933 34.572 74.7933 34.472 75.1373 34.272C75.4893 34.064 75.7613 33.76 75.9533 33.36H77.8853C77.6053 34.216 77.1133 34.884 76.4093 35.364C75.7133 35.836 74.8933 36.072 73.9493 36.072C73.1493 36.072 72.4253 35.892 71.7773 35.532C71.1373 35.164 70.6293 34.656 70.2533 34.008C69.8853 33.36 69.7013 32.624 69.7013 31.8ZM85.0202 27.624V28.98H82.7882V36H81.1082V28.98H78.8762V27.624H85.0202ZM90.566 36L88.718 32.736H87.926V36H86.246V27.624H89.39C90.038 27.624 90.59 27.74 91.046 27.972C91.502 28.196 91.842 28.504 92.066 28.896C92.298 29.28 92.414 29.712 92.414 30.192C92.414 30.744 92.254 31.244 91.934 31.692C91.614 32.132 91.138 32.436 90.506 32.604L92.51 36H90.566ZM87.926 31.476H89.33C89.786 31.476 90.126 31.368 90.35 31.152C90.574 30.928 90.686 30.62 90.686 30.228C90.686 29.844 90.574 29.548 90.35 29.34C90.126 29.124 89.786 29.016 89.33 29.016H87.926V31.476ZM97.8215 36.084C97.0375 36.084 96.3175 35.9 95.6615 35.532C95.0055 35.164 94.4855 34.656 94.1015 34.008C93.7175 33.352 93.5255 32.612 93.5255 31.788C93.5255 30.972 93.7175 30.24 94.1015 29.592C94.4855 28.936 95.0055 28.424 95.6615 28.056C96.3175 27.688 97.0375 27.504 97.8215 27.504C98.6135 27.504 99.3335 27.688 99.9815 28.056C100.637 28.424 101.153 28.936 101.529 29.592C101.913 30.24 102.105 30.972 102.105 31.788C102.105 32.612 101.913 33.352 101.529 34.008C101.153 34.656 100.637 35.164 99.9815 35.532C99.3255 35.9 98.6055 36.084 97.8215 36.084ZM97.8215 34.584C98.3255 34.584 98.7695 34.472 99.1535 34.248C99.5375 34.016 99.8375 33.688 100.053 33.264C100.269 32.84 100.377 32.348 100.377 31.788C100.377 31.228 100.269 30.74 100.053 30.324C99.8375 29.9 99.5375 29.576 99.1535 29.352C98.7695 29.128 98.3255 29.016 97.8215 29.016C97.3175 29.016 96.8695 29.128 96.4775 29.352C96.0935 29.576 95.7935 29.9 95.5775 30.324C95.3615 30.74 95.2535 31.228 95.2535 31.788C95.2535 32.348 95.3615 32.84 95.5775 33.264C95.7935 33.688 96.0935 34.016 96.4775 34.248C96.8695 34.472 97.3175 34.584 97.8215 34.584ZM110.519 36H108.839L105.035 30.252V36H103.355V27.612H105.035L108.839 33.372V27.612H110.519V36Z" fill="#E8ECF2"/>
<path d="M31.0501 31.9649C31.1102 31.9648 31.1691 31.9491 31.2213 31.9195C31.2608 31.897 31.2955 31.8669 31.3233 31.831C31.3512 31.795 31.3717 31.754 31.3836 31.7101C31.3955 31.6662 31.3986 31.6204 31.3928 31.5753C31.387 31.5302 31.3723 31.4868 31.3497 31.4474C30.771 30.4433 30.7235 29.615 31.0877 28.9864C31.5891 28.1226 32.9725 27.8034 34.7886 28.1325C34.8788 28.1488 34.9718 28.1287 35.0472 28.0767C35.1227 28.0246 35.1744 27.9448 35.1912 27.8547C35.1993 27.81 35.1985 27.7641 35.1889 27.7197C35.1793 27.6753 35.161 27.6332 35.1351 27.5959C35.1092 27.5585 35.0762 27.5266 35.038 27.5021C34.9998 27.4775 34.9571 27.4606 34.9124 27.4525C33.8862 27.2669 32.9436 27.2704 32.1917 27.4631C31.4077 27.6638 30.8206 28.0706 30.4883 28.6401C29.9961 29.4906 30.0418 30.5642 30.7492 31.7908C30.7796 31.8438 30.8234 31.8878 30.8762 31.9183C30.9291 31.9489 30.9891 31.9649 31.0501 31.9649ZM40.7128 28.053C41.8463 28.0678 42.5624 28.3803 42.9203 28.9973C43.4199 29.8579 43.0089 31.2055 41.8209 32.6015C41.7782 32.6518 41.7508 32.7133 41.7419 32.7787C41.733 32.8441 41.7431 32.9106 41.7708 32.9705C41.7986 33.0303 41.843 33.081 41.8987 33.1164C41.9543 33.1518 42.019 33.1705 42.085 33.1704C42.1352 33.1704 42.1849 33.1596 42.2305 33.1386C42.2762 33.1176 42.3167 33.0869 42.3493 33.0487C43.0215 32.2588 43.4867 31.4477 43.6941 30.7034C43.9099 29.93 43.8498 29.2195 43.5183 28.651C43.0331 27.815 42.1075 27.3801 40.7202 27.3618H40.7153C40.6236 27.3613 40.5355 27.3972 40.4703 27.4616C40.4051 27.526 40.3682 27.6137 40.3676 27.7053C40.367 27.797 40.4029 27.8851 40.4673 27.9503C40.5317 28.0155 40.6194 28.0525 40.7111 28.053H40.7128ZM39.4774 37.586C39.3988 37.5391 39.3048 37.5251 39.2159 37.5472C39.127 37.5693 39.0504 37.6255 39.0028 37.7038C38.4259 38.6583 37.7172 39.1838 37.007 39.1838C36.0054 39.1838 35.0383 38.1534 34.4149 36.4269C34.3836 36.3408 34.3195 36.2706 34.2365 36.2316C34.1536 36.1926 34.0586 36.188 33.9723 36.2188C33.9294 36.2338 33.8898 36.2573 33.8559 36.2877C33.822 36.3181 33.7945 36.3549 33.7749 36.396C33.7553 36.4371 33.744 36.4817 33.7417 36.5272C33.7394 36.5727 33.7461 36.6181 33.7614 36.661C34.1129 37.6373 34.5865 38.4452 35.1325 38.9975C35.6988 39.572 36.3471 39.8764 37.007 39.8764C37.9696 39.8764 38.8893 39.232 39.5963 38.062C39.6198 38.0231 39.6353 37.9799 39.6421 37.9349C39.6488 37.8899 39.6466 37.8441 39.6356 37.8C39.6245 37.7559 39.6049 37.7144 39.5777 37.6779C39.5506 37.6414 39.5165 37.6107 39.4774 37.5874V37.586ZM43.1769 34.9018C42.991 34.9009 42.8077 34.9458 42.6433 35.0327C42.4789 35.1196 42.3385 35.2457 42.2345 35.3999C42.1305 35.554 42.0662 35.7315 42.0472 35.9165C42.0283 36.1014 42.0552 36.2882 42.1258 36.4603C40.6562 37.1458 37.914 36.6287 35.3803 35.1729C34.2233 34.5084 33.195 33.7012 32.4061 32.8388C32.344 32.7714 32.2579 32.7312 32.1663 32.7269C32.0747 32.7226 31.9852 32.7546 31.9171 32.816C31.8833 32.8465 31.856 32.8833 31.8365 32.9245C31.8171 32.9656 31.806 33.0101 31.8039 33.0556C31.8017 33.101 31.8086 33.1464 31.8241 33.1891C31.8397 33.2319 31.8635 33.2712 31.8942 33.3047C32.7306 34.2187 33.8166 35.0723 35.0347 35.7719C36.4508 36.5851 37.927 37.13 39.3038 37.3473C39.7106 37.4133 40.122 37.4475 40.5342 37.4496C41.347 37.4496 42.046 37.2984 42.5912 36.9999C42.7405 37.0911 42.9089 37.1465 43.0832 37.1616C43.2575 37.1768 43.4329 37.1513 43.5957 37.0873C43.7585 37.0232 43.9043 36.9223 44.0215 36.7925C44.1387 36.6626 44.2243 36.5074 44.2714 36.3389C44.3186 36.1704 44.326 35.9933 44.2932 35.8215C44.2604 35.6496 44.1882 35.4877 44.0823 35.3485C43.9764 35.2093 43.8396 35.0965 43.6828 35.019C43.5259 34.9415 43.3533 34.9014 43.1783 34.9018H43.1769ZM43.1769 36.4719C43.0771 36.4719 42.9803 36.4382 42.902 36.3763C42.8804 36.3465 42.8543 36.3203 42.8247 36.2986C42.7637 36.2192 42.7314 36.1215 42.733 36.0214C42.7346 35.9214 42.77 35.8248 42.8335 35.7474C42.897 35.67 42.9848 35.6164 43.0826 35.5953C43.1804 35.5741 43.2825 35.5867 43.3723 35.6309C43.4621 35.6752 43.5342 35.7485 43.577 35.839C43.6198 35.9295 43.6307 36.0318 43.608 36.1292C43.5853 36.2267 43.5302 36.3136 43.4518 36.3758C43.3735 36.438 43.2763 36.4719 43.1762 36.4719H43.1769Z" fill="#E8ECF2"/>
<path d="M30.886 34.9035C30.906 34.1561 31.3222 33.2512 32.07 32.3315C32.8853 31.3313 34.063 30.3628 35.3867 29.6016C36.5556 28.9301 37.6788 28.4801 38.8344 28.2337C38.8795 28.2249 38.9224 28.2072 38.9605 28.1817C38.9987 28.1561 39.0314 28.1232 39.0567 28.0849C39.082 28.0466 39.0994 28.0036 39.1079 27.9585C39.1164 27.9133 39.1158 27.867 39.1062 27.8221C39.0966 27.7772 39.0781 27.7346 39.0518 27.697C39.0256 27.6593 38.9921 27.6272 38.9533 27.6026C38.9145 27.578 38.8712 27.5614 38.8259 27.5538C38.7807 27.5461 38.7343 27.5475 38.6896 27.558C37.4644 27.8192 36.2715 28.2963 35.0407 29.0026C32.0813 30.7024 30.1058 33.1911 30.1958 35.0902C29.9706 35.2391 29.8058 35.4633 29.7309 35.7227C29.656 35.9821 29.6759 36.2596 29.787 36.5057C29.8981 36.7517 30.0932 36.9502 30.3373 37.0655C30.5814 37.1807 30.8586 37.2053 31.1192 37.1349C31.3798 37.0644 31.6068 36.9034 31.7595 36.6807C31.9122 36.4581 31.9807 36.1884 31.9526 35.9199C31.9245 35.6514 31.8018 35.4016 31.6063 35.2154C31.4109 35.0292 31.1555 34.9186 30.886 34.9035ZM30.823 36.4719C30.7362 36.4712 30.6516 36.4449 30.5797 36.3963C30.5079 36.3476 30.4521 36.2788 30.4193 36.1984C30.3865 36.118 30.3783 36.0298 30.3956 35.9448C30.4129 35.8597 30.455 35.7817 30.5166 35.7206C30.5781 35.6594 30.6565 35.6179 30.7416 35.6012C30.8268 35.5845 30.915 35.5934 30.9951 35.6267C31.0752 35.6601 31.1436 35.7164 31.1918 35.7886C31.2399 35.8608 31.2656 35.9456 31.2656 36.0324C31.2651 36.1493 31.2182 36.2613 31.1352 36.3437C31.0522 36.426 30.94 36.4721 30.823 36.4719Z" fill="#E8ECF2"/>
<path d="M37.007 26.3862C37.1901 26.3867 37.3706 26.3428 37.5331 26.2582C37.6955 26.1737 37.835 26.051 37.9397 25.9007C38.5686 26.3117 39.135 27.1312 39.5502 28.2253C40.0072 29.4343 40.2477 30.8753 40.2477 32.3927C40.2477 33.6998 40.0652 34.9362 39.7204 36.0349C39.7065 36.0781 39.7015 36.1237 39.7055 36.1689C39.7095 36.2141 39.7224 36.258 39.7436 36.2982C39.7646 36.3386 39.7935 36.3745 39.8285 36.4037C39.8635 36.4329 39.9039 36.4548 39.9475 36.4683C40.035 36.4954 40.1297 36.4868 40.211 36.4444C40.2922 36.402 40.3534 36.3292 40.3813 36.2419C40.7476 35.0769 40.9413 33.769 40.9413 32.3927C40.9413 30.7344 40.6682 29.1664 40.1514 27.8575C39.6448 26.575 38.9515 25.6638 38.1425 25.2152C38.1356 24.9922 38.0631 24.7763 37.9342 24.5943C37.8052 24.4123 37.6255 24.2723 37.4175 24.1917C37.2095 24.1112 36.9824 24.0937 36.7645 24.1415C36.5466 24.1892 36.3476 24.3001 36.1923 24.4602C36.0371 24.6203 35.9324 24.8226 35.8914 25.0419C35.8504 25.2611 35.8748 25.4876 35.9617 25.6931C36.0486 25.8985 36.1941 26.0738 36.38 26.1971C36.5659 26.3203 36.7839 26.3861 37.007 26.3862ZM37.007 24.8162C37.0938 24.8168 37.1784 24.8431 37.2503 24.8918C37.3221 24.9404 37.378 25.0093 37.4107 25.0896C37.4435 25.17 37.4518 25.2582 37.4345 25.3433C37.4171 25.4283 37.375 25.5063 37.3135 25.5675C37.2519 25.6286 37.1736 25.6701 37.0884 25.6868C37.0033 25.7035 36.9151 25.6947 36.8349 25.6613C36.7548 25.6279 36.6864 25.5716 36.6382 25.4994C36.5901 25.4272 36.5644 25.3424 36.5644 25.2556C36.5649 25.1387 36.6119 25.0268 36.6948 24.9444C36.7778 24.862 36.8901 24.8159 37.007 24.8162ZM36.8242 31.5556C36.6173 31.5999 36.4341 31.7193 36.31 31.8907C36.1859 32.0622 36.1297 32.2735 36.1523 32.4839C36.1748 32.6943 36.2745 32.8889 36.4321 33.0301C36.5897 33.1714 36.794 33.2493 37.0056 33.2487C37.0666 33.2487 37.1274 33.2422 37.187 33.2294C37.2982 33.2069 37.4037 33.1625 37.4976 33.0988C37.5915 33.0351 37.6717 32.9534 37.7338 32.8584C37.7958 32.7635 37.8384 32.6571 37.859 32.5456C37.8795 32.434 37.8778 32.3195 37.8537 32.2087C37.8297 32.0978 37.7839 31.9928 37.719 31.8998C37.654 31.8068 37.5713 31.7276 37.4755 31.6669C37.3797 31.6061 37.2728 31.565 37.161 31.5459C37.0492 31.5268 36.9347 31.5301 36.8242 31.5556Z" fill="#E8ECF2"/>
</g>
<defs>
<filter id="filter0_dd_12_72" x="0" y="0" width="140" height="64" filterUnits="userSpaceOnUse" color-interpolation-filters="sRGB">
<feFlood flood-opacity="0" result="BackgroundImageFix"/>
<feColorMatrix in="SourceAlpha" type="matrix" values="0 0 0 0 0 0 0 0 0 0 0 0 0 0 0 0 0 0 127 0" result="hardAlpha"/>
<feOffset dx="6" dy="6"/>
<feGaussianBlur stdDeviation="6"/>
<feComposite in2="hardAlpha" operator="out"/>
<feColorMatrix type="matrix" values="0 0 0 0 0.0235294 0 0 0 0 0.0313726 0 0 0 0 0.0431373 0 0 0 0.5 0"/>
<feBlend mode="normal" in2="BackgroundImageFix" result="effect1_dropShadow_12_72"/>
<feColorMatrix in="SourceAlpha" type="matrix" values="0 0 0 0 0 0 0 0 0 0 0 0 0 0 0 0 0 0 127 0" result="hardAlpha"/>
<feOffset dx="-6" dy="-6"/>
<feGaussianBlur stdDeviation="6"/>
<feComposite in2="hardAlpha" operator="out"/>
<feColorMatrix type="matrix" values="0 0 0 0 0.0784314 0 0 0 0 0.101961 0 0 0 0 0.137255 0 0 0 0.5 0"/>
<feBlend mode="normal" in2="effect1_dropShadow_12_72" result="effect2_dropShadow_12_72"/>
<feBlend mode="normal" in="SourceGraphic" in2="effect2_dropShadow_12_72" result="shape"/>
</filter>
</defs>
</svg>
