<svg width="145" height="64" viewBox="0 0 145 64" fill="none" xmlns="http://www.w3.org/2000/svg">
<g filter="url(#filter0_dd_1_2)">
<rect x="18" y="18" width="109" height="28" rx="10" fill="#0D1117"/>
<path fill-rule="evenodd" clip-rule="evenodd" d="M44.875 32.0475C44.875 27.6986 41.3488 24.1725 37 24.1725C32.6512 24.1725 29.125 27.6986 29.125 32.0475C29.125 35.9779 32.0043 39.2359 35.7695 39.8272V34.3245H33.7695V32.0475H35.7695V30.3125C35.7695 28.3392 36.9455 27.2483 38.7441 27.2483C39.6058 27.2483 40.5072 27.4023 40.5072 27.4023V29.3404H39.5137C38.536 29.3404 38.2301 29.9472 38.2301 30.5709V32.0475H40.414L40.0653 34.3245H38.2305V39.8279C41.9957 39.2369 44.875 35.979 44.875 32.0475Z" fill="#E8ECF2"/>
<path d="M57 27.624V28.98H53.508V31.128H56.184V32.46H53.508V36H51.828V27.624H57ZM63.3273 34.404H59.9913L59.4393 36H57.6753L60.6873 27.612H62.6433L65.6553 36H63.8793L63.3273 34.404ZM62.8713 33.06L61.6593 29.556L60.4473 33.06H62.8713ZM66.3731 31.8C66.3731 30.976 66.5571 30.24 66.9251 29.592C67.3011 28.936 67.8091 28.428 68.4491 28.068C69.0971 27.7 69.8211 27.516 70.6211 27.516C71.5571 27.516 72.3771 27.756 73.0811 28.236C73.7851 28.716 74.2771 29.38 74.5571 30.228H72.6251C72.4331 29.828 72.1611 29.528 71.8091 29.328C71.4651 29.128 71.0651 29.028 70.6091 29.028C70.1211 29.028 69.6851 29.144 69.3011 29.376C68.9251 29.6 68.6291 29.92 68.4131 30.336C68.2051 30.752 68.1011 31.24 68.1011 31.8C68.1011 32.352 68.2051 32.84 68.4131 33.264C68.6291 33.68 68.9251 34.004 69.3011 34.236C69.6851 34.46 70.1211 34.572 70.6091 34.572C71.0651 34.572 71.4651 34.472 71.8091 34.272C72.1611 34.064 72.4331 33.76 72.6251 33.36H74.5571C74.2771 34.216 73.7851 34.884 73.0811 35.364C72.3851 35.836 71.5651 36.072 70.6211 36.072C69.8211 36.072 69.0971 35.892 68.4491 35.532C67.8091 35.164 67.3011 34.656 66.9251 34.008C66.5571 33.36 66.3731 32.624 66.3731 31.8ZM77.6721 28.98V31.08H80.4921V32.412H77.6721V34.632H80.8521V36H75.9921V27.612H80.8521V28.98H77.6721ZM87.1308 31.704C87.6028 31.792 87.9908 32.028 88.2948 32.412C88.5988 32.796 88.7508 33.236 88.7508 33.732C88.7508 34.18 88.6388 34.576 88.4148 34.92C88.1988 35.256 87.8828 35.52 87.4668 35.712C87.0508 35.904 86.5588 36 85.9908 36H82.3788V27.624H85.8348C86.4028 27.624 86.8908 27.716 87.2988 27.9C87.7148 28.084 88.0268 28.34 88.2348 28.668C88.4508 28.996 88.5588 29.368 88.5588 29.784C88.5588 30.272 88.4268 30.68 88.1628 31.008C87.9068 31.336 87.5628 31.568 87.1308 31.704ZM84.0588 31.08H85.5948C85.9948 31.08 86.3028 30.992 86.5188 30.816C86.7348 30.632 86.8428 30.372 86.8428 30.036C86.8428 29.7 86.7348 29.44 86.5188 29.256C86.3028 29.072 85.9948 28.98 85.5948 28.98H84.0588V31.08ZM85.7508 34.632C86.1588 34.632 86.4748 34.536 86.6988 34.344C86.9308 34.152 87.0468 33.88 87.0468 33.528C87.0468 33.168 86.9268 32.888 86.6868 32.688C86.4468 32.48 86.1228 32.376 85.7148 32.376H84.0588V34.632H85.7508ZM93.9777 36.084C93.1937 36.084 92.4737 35.9 91.8177 35.532C91.1617 35.164 90.6417 34.656 90.2577 34.008C89.8737 33.352 89.6817 32.612 89.6817 31.788C89.6817 30.972 89.8737 30.24 90.2577 29.592C90.6417 28.936 91.1617 28.424 91.8177 28.056C92.4737 27.688 93.1937 27.504 93.9777 27.504C94.7697 27.504 95.4897 27.688 96.1377 28.056C96.7937 28.424 97.3097 28.936 97.6857 29.592C98.0697 30.24 98.2617 30.972 98.2617 31.788C98.2617 32.612 98.0697 33.352 97.6857 34.008C97.3097 34.656 96.7937 35.164 96.1377 35.532C95.4817 35.9 94.7617 36.084 93.9777 36.084ZM93.9777 34.584C94.4817 34.584 94.9257 34.472 95.3097 34.248C95.6937 34.016 95.9937 33.688 96.2097 33.264C96.4257 32.84 96.5337 32.348 96.5337 31.788C96.5337 31.228 96.4257 30.74 96.2097 30.324C95.9937 29.9 95.6937 29.576 95.3097 29.352C94.9257 29.128 94.4817 29.016 93.9777 29.016C93.4737 29.016 93.0257 29.128 92.6337 29.352C92.2497 29.576 91.9497 29.9 91.7337 30.324C91.5177 30.74 91.4097 31.228 91.4097 31.788C91.4097 32.348 91.5177 32.84 91.7337 33.264C91.9497 33.688 92.2497 34.016 92.6337 34.248C93.0257 34.472 93.4737 34.584 93.9777 34.584ZM103.4 36.084C102.616 36.084 101.896 35.9 101.24 35.532C100.584 35.164 100.064 34.656 99.6796 34.008C99.2956 33.352 99.1036 32.612 99.1036 31.788C99.1036 30.972 99.2956 30.24 99.6796 29.592C100.064 28.936 100.584 28.424 101.24 28.056C101.896 27.688 102.616 27.504 103.4 27.504C104.192 27.504 104.912 27.688 105.56 28.056C106.216 28.424 106.732 28.936 107.108 29.592C107.492 30.24 107.684 30.972 107.684 31.788C107.684 32.612 107.492 33.352 107.108 34.008C106.732 34.656 106.216 35.164 105.56 35.532C104.904 35.9 104.184 36.084 103.4 36.084ZM103.4 34.584C103.904 34.584 104.348 34.472 104.732 34.248C105.116 34.016 105.416 33.688 105.632 33.264C105.848 32.84 105.956 32.348 105.956 31.788C105.956 31.228 105.848 30.74 105.632 30.324C105.416 29.9 105.116 29.576 104.732 29.352C104.348 29.128 103.904 29.016 103.4 29.016C102.896 29.016 102.448 29.128 102.056 29.352C101.672 29.576 101.372 29.9 101.156 30.324C100.94 30.74 100.832 31.228 100.832 31.788C100.832 32.348 100.94 32.84 101.156 33.264C101.372 33.688 101.672 34.016 102.056 34.248C102.448 34.472 102.896 34.584 103.4 34.584ZM113.661 36L110.613 32.268V36H108.933V27.624H110.613V31.38L113.661 27.624H115.689L112.233 31.776L115.785 36H113.661Z" fill="#E8ECF2"/>
</g>
<defs>
<filter id="filter0_dd_1_2" x="0" y="0" width="145" height="64" filterUnits="userSpaceOnUse" color-interpolation-filters="sRGB">
<feFlood flood-opacity="0" result="BackgroundImageFix"/>
<feColorMatrix in="SourceAlpha" type="matrix" values="0 0 0 0 0 0 0 0 0 0 0 0 0 0 0 0 0 0 127 0" result="hardAlpha"/>
<feOffset dx="6" dy="6"/>
<feGaussianBlur stdDeviation="6"/>
<feComposite in2="hardAlpha" operator="out"/>
<feColorMatrix type="matrix" values="0 0 0 0 0.0235294 0 0 0 0 0.0313726 0 0 0 0 0.0431373 0 0 0 0.5 0"/>
<feBlend mode="normal" in2="BackgroundImageFix" result="effect1_dropShadow_1_2"/>
<feColorMatrix in="SourceAlpha" type="matrix" values="0 0 0 0 0 0 0 0 0 0 0 0 0 0 0 0 0 0 127 0" result="hardAlpha"/>
<feOffset dx="-6" dy="-6"/>
<feGaussianBlur stdDeviation="6"/>
<feComposite in2="hardAlpha" operator="out"/>
<feColorMatrix type="matrix" values="0 0 0 0 0.0784314 0 0 0 0 0.101961 0 0 0 0 0.137255 0 0 0 0.5 0"/>
<feBlend mode="normal" in2="effect1_dropShadow_1_2" result="effect2_dropShadow_1_2"/>
<feBlend mode="normal" in="SourceGraphic" in2="effect2_dropShadow_1_2" result="shape"/>
</filter>
</defs>
</svg>
