<svg width="118" height="64" viewBox="0 0 118 64" fill="none" xmlns="http://www.w3.org/2000/svg">
<g filter="url(#filter0_dd_12_127)">
<rect x="18" y="18" width="82" height="28" rx="7" fill="#0D1117"/>
<path d="M57 27.624V28.98H53.508V31.128H56.184V32.46H53.508V36H51.828V27.624H57ZM59.8713 27.624V36H58.1913V27.624H59.8713ZM67.3631 30.144C67.1711 29.792 66.9071 29.524 66.5711 29.34C66.2351 29.156 65.8431 29.064 65.3951 29.064C64.8991 29.064 64.4591 29.176 64.0751 29.4C63.6911 29.624 63.3911 29.944 63.1751 30.36C62.9591 30.776 62.8511 31.256 62.8511 31.8C62.8511 32.36 62.9591 32.848 63.1751 33.264C63.3991 33.68 63.7071 34 64.0991 34.224C64.4911 34.448 64.9471 34.56 65.4671 34.56C66.1071 34.56 66.6311 34.392 67.0391 34.056C67.4471 33.712 67.7151 33.236 67.8431 32.628H64.9631V31.344H69.4991V32.808C69.3871 33.392 69.1471 33.932 68.7791 34.428C68.4111 34.924 67.9351 35.324 67.3511 35.628C66.7751 35.924 66.1271 36.072 65.4071 36.072C64.5991 36.072 63.8671 35.892 63.2111 35.532C62.5631 35.164 62.0511 34.656 61.6751 34.008C61.3071 33.36 61.1231 32.624 61.1231 31.8C61.1231 30.976 61.3071 30.24 61.6751 29.592C62.0511 28.936 62.5631 28.428 63.2111 28.068C63.8671 27.7 64.5951 27.516 65.3951 27.516C66.3391 27.516 67.1591 27.748 67.8551 28.212C68.5511 28.668 69.0311 29.312 69.2951 30.144H67.3631ZM79.8741 27.624V36H78.1941V30.552L75.9501 36H74.6781L72.4221 30.552V36H70.7421V27.624H72.6501L75.3141 33.852L77.9781 27.624H79.8741ZM86.671 34.404H83.335L82.783 36H81.019L84.031 27.612H85.987L88.999 36H87.223L86.671 34.404ZM86.215 33.06L85.003 29.556L83.791 33.06H86.215Z" fill="#E8ECF2"/>
<path d="M39.8125 29.1875C40.5584 29.1875 41.2738 28.8912 41.8012 28.3637C42.3287 27.8363 42.625 27.1209 42.625 26.375C42.625 25.6291 42.3287 24.9137 41.8012 24.3863C41.2738 23.8588 40.5584 23.5625 39.8125 23.5625H34.1875C33.4416 23.5625 32.7262 23.8588 32.1988 24.3863C31.6713 24.9137 31.375 25.6291 31.375 26.375C31.375 27.1209 31.6713 27.8363 32.1988 28.3637C32.7262 28.8912 33.4416 29.1875 34.1875 29.1875C33.4416 29.1875 32.7262 29.4838 32.1988 30.0113C31.6713 30.5387 31.375 31.2541 31.375 32C31.375 32.7459 31.6713 33.4613 32.1988 33.9887C32.7262 34.5162 33.4416 34.8125 34.1875 34.8125C33.6312 34.8125 33.0875 34.9774 32.625 35.2865C32.1624 35.5955 31.802 36.0348 31.5891 36.5487C31.3762 37.0626 31.3205 37.6281 31.429 38.1737C31.5376 38.7193 31.8054 39.2204 32.1988 39.6137C32.5921 40.0071 33.0932 40.2749 33.6388 40.3835C34.1844 40.492 34.7499 40.4363 35.2638 40.2234C35.7777 40.0105 36.217 39.6501 36.526 39.1875C36.8351 38.725 37 38.1813 37 37.625V29.1875H39.8125Z" fill="#E8ECF2"/>
<path d="M39.8125 34.8125C41.3658 34.8125 42.625 33.5533 42.625 32C42.625 30.4467 41.3658 29.1875 39.8125 29.1875C38.2592 29.1875 37 30.4467 37 32C37 33.5533 38.2592 34.8125 39.8125 34.8125Z" fill="#E8ECF2"/>
</g>
<defs>
<filter id="filter0_dd_12_127" x="0" y="0" width="118" height="64" filterUnits="userSpaceOnUse" color-interpolation-filters="sRGB">
<feFlood flood-opacity="0" result="BackgroundImageFix"/>
<feColorMatrix in="SourceAlpha" type="matrix" values="0 0 0 0 0 0 0 0 0 0 0 0 0 0 0 0 0 0 127 0" result="hardAlpha"/>
<feOffset dx="6" dy="6"/>
<feGaussianBlur stdDeviation="6"/>
<feComposite in2="hardAlpha" operator="out"/>
<feColorMatrix type="matrix" values="0 0 0 0 0.0235294 0 0 0 0 0.0313726 0 0 0 0 0.0431373 0 0 0 0.5 0"/>
<feBlend mode="normal" in2="BackgroundImageFix" result="effect1_dropShadow_12_127"/>
<feColorMatrix in="SourceAlpha" type="matrix" values="0 0 0 0 0 0 0 0 0 0 0 0 0 0 0 0 0 0 127 0" result="hardAlpha"/>
<feOffset dx="-6" dy="-6"/>
<feGaussianBlur stdDeviation="6"/>
<feComposite in2="hardAlpha" operator="out"/>
<feColorMatrix type="matrix" values="0 0 0 0 0.0784314 0 0 0 0 0.101961 0 0 0 0 0.137255 0 0 0 0.5 0"/>
<feBlend mode="normal" in2="effect1_dropShadow_12_127" result="effect2_dropShadow_12_127"/>
<feBlend mode="normal" in="SourceGraphic" in2="effect2_dropShadow_12_127" result="shape"/>
</filter>
</defs>
</svg>
