<svg width="133" height="64" viewBox="0 0 133 64" fill="none" xmlns="http://www.w3.org/2000/svg">
<g filter="url(#filter0_dd_12_82)">
<rect x="18" y="18" width="97" height="28" rx="7" fill="#0D1117"/>
<path d="M57 27.624V28.98H53.508V31.128H56.184V32.46H53.508V36H51.828V27.624H57ZM59.8713 27.624V36H58.1913V27.624H59.8713ZM65.8511 36L64.0031 32.736H63.2111V36H61.5311V27.624H64.6751C65.3231 27.624 65.8751 27.74 66.3311 27.972C66.7871 28.196 67.1271 28.504 67.3511 28.896C67.5831 29.28 67.6991 29.712 67.6991 30.192C67.6991 30.744 67.5391 31.244 67.2191 31.692C66.8991 32.132 66.4231 32.436 65.7911 32.604L67.7951 36H65.8511ZM63.2111 31.476H64.6151C65.0711 31.476 65.4111 31.368 65.6351 31.152C65.8591 30.928 65.9711 30.62 65.9711 30.228C65.9711 29.844 65.8591 29.548 65.6351 29.34C65.4111 29.124 65.0711 29.016 64.6151 29.016H63.2111V31.476ZM70.8986 28.98V31.08H73.7186V32.412H70.8986V34.632H74.0786V36H69.2186V27.612H74.0786V28.98H70.8986ZM80.3573 31.704C80.8293 31.792 81.2173 32.028 81.5213 32.412C81.8253 32.796 81.9773 33.236 81.9773 33.732C81.9773 34.18 81.8653 34.576 81.6413 34.92C81.4253 35.256 81.1093 35.52 80.6933 35.712C80.2773 35.904 79.7853 36 79.2173 36H75.6053V27.624H79.0613C79.6293 27.624 80.1173 27.716 80.5253 27.9C80.9413 28.084 81.2533 28.34 81.4613 28.668C81.6773 28.996 81.7853 29.368 81.7853 29.784C81.7853 30.272 81.6533 30.68 81.3893 31.008C81.1333 31.336 80.7893 31.568 80.3573 31.704ZM77.2853 31.08H78.8213C79.2213 31.08 79.5293 30.992 79.7453 30.816C79.9613 30.632 80.0693 30.372 80.0693 30.036C80.0693 29.7 79.9613 29.44 79.7453 29.256C79.5293 29.072 79.2213 28.98 78.8213 28.98H77.2853V31.08ZM78.9773 34.632C79.3853 34.632 79.7013 34.536 79.9253 34.344C80.1573 34.152 80.2733 33.88 80.2733 33.528C80.2733 33.168 80.1533 32.888 79.9133 32.688C79.6733 32.48 79.3493 32.376 78.9413 32.376H77.2853V34.632H78.9773ZM88.4523 34.404H85.1163L84.5643 36H82.8003L85.8123 27.612H87.7683L90.7803 36H89.0043L88.4523 34.404ZM87.9963 33.06L86.7843 29.556L85.5723 33.06H87.9963ZM94.7981 36.084C94.2141 36.084 93.6861 35.984 93.2141 35.784C92.7501 35.584 92.3821 35.296 92.1101 34.92C91.8381 34.544 91.6981 34.1 91.6901 33.588H93.4901C93.5141 33.932 93.6341 34.204 93.8501 34.404C94.0741 34.604 94.3781 34.704 94.7621 34.704C95.1541 34.704 95.4621 34.612 95.6861 34.428C95.9101 34.236 96.0221 33.988 96.0221 33.684C96.0221 33.436 95.9461 33.232 95.7941 33.072C95.6421 32.912 95.4501 32.788 95.2181 32.7C94.9941 32.604 94.6821 32.5 94.2821 32.388C93.7381 32.228 93.2941 32.072 92.9501 31.92C92.6141 31.76 92.3221 31.524 92.0741 31.212C91.8341 30.892 91.7141 30.468 91.7141 29.94C91.7141 29.444 91.8381 29.012 92.0861 28.644C92.3341 28.276 92.6821 27.996 93.1301 27.804C93.5781 27.604 94.0901 27.504 94.6661 27.504C95.5301 27.504 96.2301 27.716 96.7661 28.14C97.3101 28.556 97.6101 29.14 97.6661 29.892H95.8181C95.8021 29.604 95.6781 29.368 95.4461 29.184C95.2221 28.992 94.9221 28.896 94.5461 28.896C94.2181 28.896 93.9541 28.98 93.7541 29.148C93.5621 29.316 93.4661 29.56 93.4661 29.88C93.4661 30.104 93.5381 30.292 93.6821 30.444C93.8341 30.588 94.0181 30.708 94.2341 30.804C94.4581 30.892 94.7701 30.996 95.1701 31.116C95.7141 31.276 96.1581 31.436 96.5021 31.596C96.8461 31.756 97.1421 31.996 97.3901 32.316C97.6381 32.636 97.7621 33.056 97.7621 33.576C97.7621 34.024 97.6461 34.44 97.4141 34.824C97.1821 35.208 96.8421 35.516 96.3941 35.748C95.9461 35.972 95.4141 36.084 94.7981 36.084ZM100.899 28.98V31.08H103.719V32.412H100.899V34.632H104.079V36H99.2186V27.612H104.079V28.98H100.899Z" fill="#E8ECF2"/>
<path d="M31.2762 34.5798L32.9444 23.8898C33.002 23.5252 33.4911 23.4391 33.6637 23.765L35.4566 27.1207L31.2762 34.5798ZM43.1875 37.0625L41.5443 27.3316C41.5324 27.2621 41.5017 27.1971 41.4555 27.1437C41.4093 27.0904 41.3493 27.0507 41.2822 27.029C41.2151 27.0073 41.1433 27.0043 41.0746 27.0205C41.0059 27.0366 40.9429 27.0713 40.8925 27.1207L30.8125 37.0625L36.415 40.2937C36.5869 40.388 36.7798 40.4374 36.9759 40.4374C37.172 40.4374 37.3649 40.388 37.5368 40.2937L43.1875 37.0625ZM38.6298 28.5874L37.3452 26.1426C37.3133 26.0798 37.2646 26.0271 37.2045 25.9902C37.1445 25.9534 37.0754 25.9339 37.0049 25.9339C36.9345 25.9339 36.8654 25.9534 36.8053 25.9902C36.7452 26.0271 36.6966 26.0798 36.6646 26.1426L31.0175 36.2096L38.6298 28.5874Z" fill="#E8ECF2"/>
</g>
<defs>
<filter id="filter0_dd_12_82" x="0" y="0" width="133" height="64" filterUnits="userSpaceOnUse" color-interpolation-filters="sRGB">
<feFlood flood-opacity="0" result="BackgroundImageFix"/>
<feColorMatrix in="SourceAlpha" type="matrix" values="0 0 0 0 0 0 0 0 0 0 0 0 0 0 0 0 0 0 127 0" result="hardAlpha"/>
<feOffset dx="6" dy="6"/>
<feGaussianBlur stdDeviation="6"/>
<feComposite in2="hardAlpha" operator="out"/>
<feColorMatrix type="matrix" values="0 0 0 0 0.0235294 0 0 0 0 0.0313726 0 0 0 0 0.0431373 0 0 0 0.5 0"/>
<feBlend mode="normal" in2="BackgroundImageFix" result="effect1_dropShadow_12_82"/>
<feColorMatrix in="SourceAlpha" type="matrix" values="0 0 0 0 0 0 0 0 0 0 0 0 0 0 0 0 0 0 127 0" result="hardAlpha"/>
<feOffset dx="-6" dy="-6"/>
<feGaussianBlur stdDeviation="6"/>
<feComposite in2="hardAlpha" operator="out"/>
<feColorMatrix type="matrix" values="0 0 0 0 0.0784314 0 0 0 0 0.101961 0 0 0 0 0.137255 0 0 0 0.5 0"/>
<feBlend mode="normal" in2="effect1_dropShadow_12_82" result="effect2_dropShadow_12_82"/>
<feBlend mode="normal" in="SourceGraphic" in2="effect2_dropShadow_12_82" result="shape"/>
</filter>
</defs>
</svg>
