<svg width="124" height="64" viewBox="0 0 124 64" fill="none" xmlns="http://www.w3.org/2000/svg">
<g filter="url(#filter0_dd_12_87)">
<rect x="18" y="18" width="88" height="28" rx="7" fill="#0D1117"/>
<path d="M57.66 30.144C57.468 29.792 57.204 29.524 56.868 29.34C56.532 29.156 56.14 29.064 55.692 29.064C55.196 29.064 54.756 29.176 54.372 29.4C53.988 29.624 53.688 29.944 53.472 30.36C53.256 30.776 53.148 31.256 53.148 31.8C53.148 32.36 53.256 32.848 53.472 33.264C53.696 33.68 54.004 34 54.396 34.224C54.788 34.448 55.244 34.56 55.764 34.56C56.404 34.56 56.928 34.392 57.336 34.056C57.744 33.712 58.012 33.236 58.14 32.628H55.26V31.344H59.796V32.808C59.684 33.392 59.444 33.932 59.076 34.428C58.708 34.924 58.232 35.324 57.648 35.628C57.072 35.924 56.424 36.072 55.704 36.072C54.896 36.072 54.164 35.892 53.508 35.532C52.86 35.164 52.348 34.656 51.972 34.008C51.604 33.36 51.42 32.624 51.42 31.8C51.42 30.976 51.604 30.24 51.972 29.592C52.348 28.936 52.86 28.428 53.508 28.068C54.164 27.7 54.892 27.516 55.692 27.516C56.636 27.516 57.456 27.748 58.152 28.212C58.848 28.668 59.328 29.312 59.592 30.144H57.66ZM62.7189 27.624V36H61.0389V27.624H62.7189ZM70.0788 27.624V28.98H67.8468V36H66.1668V28.98H63.9348V27.624H70.0788ZM78.2526 27.624V36H76.5726V32.436H72.9846V36H71.3046V27.624H72.9846V31.068H76.5726V27.624H78.2526ZM81.5621 27.624V32.808C81.5621 33.376 81.7101 33.812 82.0061 34.116C82.3021 34.412 82.7181 34.56 83.2541 34.56C83.7981 34.56 84.2181 34.412 84.5141 34.116C84.8101 33.812 84.9581 33.376 84.9581 32.808V27.624H86.6501V32.796C86.6501 33.508 86.4941 34.112 86.1821 34.608C85.8781 35.096 85.4661 35.464 84.9461 35.712C84.4341 35.96 83.8621 36.084 83.2301 36.084C82.6061 36.084 82.0381 35.96 81.5261 35.712C81.0221 35.464 80.6221 35.096 80.3261 34.608C80.0301 34.112 79.8821 33.508 79.8821 32.796V27.624H81.5621ZM93.0253 31.704C93.4973 31.792 93.8853 32.028 94.1893 32.412C94.4933 32.796 94.6453 33.236 94.6453 33.732C94.6453 34.18 94.5333 34.576 94.3093 34.92C94.0933 35.256 93.7773 35.52 93.3613 35.712C92.9453 35.904 92.4533 36 91.8853 36H88.2733V27.624H91.7293C92.2973 27.624 92.7853 27.716 93.1933 27.9C93.6093 28.084 93.9213 28.34 94.1293 28.668C94.3453 28.996 94.4533 29.368 94.4533 29.784C94.4533 30.272 94.3213 30.68 94.0573 31.008C93.8013 31.336 93.4573 31.568 93.0253 31.704ZM89.9533 31.08H91.4893C91.8893 31.08 92.1973 30.992 92.4133 30.816C92.6293 30.632 92.7373 30.372 92.7373 30.036C92.7373 29.7 92.6293 29.44 92.4133 29.256C92.1973 29.072 91.8893 28.98 91.4893 28.98H89.9533V31.08ZM91.6453 34.632C92.0533 34.632 92.3693 34.536 92.5933 34.344C92.8253 34.152 92.9413 33.88 92.9413 33.528C92.9413 33.168 92.8213 32.888 92.5813 32.688C92.3413 32.48 92.0173 32.376 91.6093 32.376H89.9533V34.632H91.6453Z" fill="#E8ECF2"/>
<path d="M37 24.125C32.6512 24.125 29.125 27.7426 29.125 32.2004C29.125 35.7688 31.382 38.7922 34.5109 39.8609C34.5548 39.8705 34.5996 39.8752 34.6445 39.875C34.9363 39.875 35.0488 39.6605 35.0488 39.4742C35.0488 39.2809 35.0418 38.7746 35.0383 38.0996C34.7778 38.1607 34.5113 38.1925 34.2438 38.1945C32.7285 38.1945 32.384 37.0168 32.384 37.0168C32.0254 36.0852 31.5086 35.8355 31.5086 35.8355C30.823 35.3539 31.5051 35.3398 31.5578 35.3398H31.5613C32.3523 35.4102 32.7672 36.1766 32.7672 36.1766C33.1609 36.8656 33.6883 37.059 34.1594 37.059C34.4709 37.0528 34.7776 36.9809 35.0594 36.848C35.1297 36.3277 35.3336 35.9727 35.5586 35.7688C33.8113 35.5648 31.9727 34.8723 31.9727 31.7785C31.9727 30.8961 32.2785 30.1754 32.7812 29.6129C32.7004 29.409 32.4297 28.5863 32.8586 27.4754C32.9161 27.4616 32.9753 27.4557 33.0344 27.4578C33.3191 27.4578 33.9625 27.5668 35.0242 28.3051C36.3143 27.9441 37.6787 27.9441 38.9688 28.3051C40.0305 27.5668 40.6738 27.4578 40.9586 27.4578C41.0177 27.4557 41.0768 27.4616 41.1344 27.4754C41.5633 28.5863 41.2926 29.409 41.2117 29.6129C41.7145 30.1789 42.0203 30.8996 42.0203 31.7785C42.0203 34.8793 40.1781 35.5613 38.4238 35.7617C38.7051 36.0113 38.9582 36.5035 38.9582 37.2559C38.9582 38.3352 38.9477 39.207 38.9477 39.4707C38.9477 39.6605 39.0566 39.875 39.3484 39.875C39.3957 39.8752 39.4428 39.8705 39.4891 39.8609C42.6215 38.7922 44.875 35.7652 44.875 32.2004C44.875 27.7426 41.3488 24.125 37 24.125Z" fill="#E8ECF2"/>
</g>
<defs>
<filter id="filter0_dd_12_87" x="0" y="0" width="124" height="64" filterUnits="userSpaceOnUse" color-interpolation-filters="sRGB">
<feFlood flood-opacity="0" result="BackgroundImageFix"/>
<feColorMatrix in="SourceAlpha" type="matrix" values="0 0 0 0 0 0 0 0 0 0 0 0 0 0 0 0 0 0 127 0" result="hardAlpha"/>
<feOffset dx="6" dy="6"/>
<feGaussianBlur stdDeviation="6"/>
<feComposite in2="hardAlpha" operator="out"/>
<feColorMatrix type="matrix" values="0 0 0 0 0.0235294 0 0 0 0 0.0313726 0 0 0 0 0.0431373 0 0 0 0.5 0"/>
<feBlend mode="normal" in2="BackgroundImageFix" result="effect1_dropShadow_12_87"/>
<feColorMatrix in="SourceAlpha" type="matrix" values="0 0 0 0 0 0 0 0 0 0 0 0 0 0 0 0 0 0 127 0" result="hardAlpha"/>
<feOffset dx="-6" dy="-6"/>
<feGaussianBlur stdDeviation="6"/>
<feComposite in2="hardAlpha" operator="out"/>
<feColorMatrix type="matrix" values="0 0 0 0 0.0784314 0 0 0 0 0.101961 0 0 0 0 0.137255 0 0 0 0.5 0"/>
<feBlend mode="normal" in2="effect1_dropShadow_12_87" result="effect2_dropShadow_12_87"/>
<feBlend mode="normal" in="SourceGraphic" in2="effect2_dropShadow_12_87" result="shape"/>
</filter>
</defs>
</svg>
