<svg width="121" height="64" viewBox="0 0 121 64" fill="none" xmlns="http://www.w3.org/2000/svg">
<g filter="url(#filter0_dd_12_92)">
<rect x="18" y="18" width="85" height="28" rx="7" fill="#0D1117"/>
<path d="M57.66 30.144C57.468 29.792 57.204 29.524 56.868 29.34C56.532 29.156 56.14 29.064 55.692 29.064C55.196 29.064 54.756 29.176 54.372 29.4C53.988 29.624 53.688 29.944 53.472 30.36C53.256 30.776 53.148 31.256 53.148 31.8C53.148 32.36 53.256 32.848 53.472 33.264C53.696 33.68 54.004 34 54.396 34.224C54.788 34.448 55.244 34.56 55.764 34.56C56.404 34.56 56.928 34.392 57.336 34.056C57.744 33.712 58.012 33.236 58.14 32.628H55.26V31.344H59.796V32.808C59.684 33.392 59.444 33.932 59.076 34.428C58.708 34.924 58.232 35.324 57.648 35.628C57.072 35.924 56.424 36.072 55.704 36.072C54.896 36.072 54.164 35.892 53.508 35.532C52.86 35.164 52.348 34.656 51.972 34.008C51.604 33.36 51.42 32.624 51.42 31.8C51.42 30.976 51.604 30.24 51.972 29.592C52.348 28.936 52.86 28.428 53.508 28.068C54.164 27.7 54.892 27.516 55.692 27.516C56.636 27.516 57.456 27.748 58.152 28.212C58.848 28.668 59.328 29.312 59.592 30.144H57.66ZM62.7189 27.624V36H61.0389V27.624H62.7189ZM70.0788 27.624V28.98H67.8468V36H66.1668V28.98H63.9348V27.624H70.0788ZM72.9846 34.668H75.7446V36H71.3046V27.624H72.9846V34.668ZM81.9484 34.404H78.6124L78.0604 36H76.2964L79.3084 27.612H81.2644L84.2764 36H82.5004L81.9484 34.404ZM81.4924 33.06L80.2804 29.556L79.0684 33.06H81.4924ZM90.1542 31.704C90.6262 31.792 91.0142 32.028 91.3182 32.412C91.6222 32.796 91.7742 33.236 91.7742 33.732C91.7742 34.18 91.6622 34.576 91.4382 34.92C91.2222 35.256 90.9062 35.52 90.4902 35.712C90.0742 35.904 89.5822 36 89.0142 36H85.4022V27.624H88.8582C89.4262 27.624 89.9142 27.716 90.3222 27.9C90.7382 28.084 91.0502 28.34 91.2582 28.668C91.4742 28.996 91.5822 29.368 91.5822 29.784C91.5822 30.272 91.4502 30.68 91.1862 31.008C90.9302 31.336 90.5862 31.568 90.1542 31.704ZM87.0822 31.08H88.6182C89.0182 31.08 89.3262 30.992 89.5422 30.816C89.7582 30.632 89.8662 30.372 89.8662 30.036C89.8662 29.7 89.7582 29.44 89.5422 29.256C89.3262 29.072 89.0182 28.98 88.6182 28.98H87.0822V31.08ZM88.7742 34.632C89.1822 34.632 89.4982 34.536 89.7222 34.344C89.9542 34.152 90.0702 33.88 90.0702 33.528C90.0702 33.168 89.9502 32.888 89.7102 32.688C89.4702 32.48 89.1462 32.376 88.7382 32.376H87.0822V34.632H88.7742Z" fill="#E8ECF2"/>
<path d="M45.3696 32.9L44.4844 30.155C44.4797 30.1297 44.4725 30.105 44.463 30.0812L42.6876 24.5638C42.641 24.4219 42.5507 24.2985 42.4296 24.2112C42.3085 24.1239 42.1629 24.0772 42.0136 24.0779C41.8647 24.0775 41.7196 24.1248 41.5997 24.2131C41.4798 24.3013 41.3913 24.4257 41.3474 24.568L39.655 29.8256H34.3112L32.6174 24.5676C32.5737 24.4258 32.4858 24.3018 32.3665 24.2136C32.2471 24.1254 32.1027 24.0777 31.9544 24.0775H31.9505C31.8008 24.0781 31.6552 24.126 31.5344 24.2144C31.4136 24.3028 31.324 24.4272 31.2783 24.5697L29.5012 30.0921C29.5012 30.097 29.4973 30.1012 29.4955 30.1061L28.5945 32.9004C28.5281 33.105 28.5279 33.3254 28.5937 33.5302C28.6596 33.735 28.7883 33.9139 28.9615 34.0415L36.7465 39.7513C36.8149 39.8013 36.8974 39.828 36.9821 39.8276C37.0668 39.8271 37.1491 39.7995 37.2169 39.7488L45.0033 34.0415C45.1766 33.9139 45.3052 33.7349 45.371 33.53C45.4367 33.3251 45.4363 33.1046 45.3696 32.9ZM33.7329 30.6321L35.9031 37.3736L30.694 30.6321M38.0642 37.375L40.1451 30.9119L40.2347 30.6307H43.2764L38.5634 36.7264M42.0203 25.0851L43.545 29.8252H40.4928M39.3962 30.6289L37.8845 35.3251L36.9824 38.1221L34.5721 30.6289M31.947 25.0851L33.4749 29.8252H30.4258M29.4301 33.3915C29.3934 33.3643 29.366 33.3263 29.3521 33.2828C29.3382 33.2392 29.3383 33.1924 29.3525 33.1489L30.0204 31.0747L34.9286 37.4236M44.5354 33.3915L39.0362 37.4218L39.0545 37.3975L43.9434 31.0733L44.6113 33.1475C44.6257 33.191 44.626 33.2379 44.6121 33.2816C44.5983 33.3253 44.5711 33.3635 44.5343 33.3908" fill="#E8ECF2"/>
</g>
<defs>
<filter id="filter0_dd_12_92" x="0" y="0" width="121" height="64" filterUnits="userSpaceOnUse" color-interpolation-filters="sRGB">
<feFlood flood-opacity="0" result="BackgroundImageFix"/>
<feColorMatrix in="SourceAlpha" type="matrix" values="0 0 0 0 0 0 0 0 0 0 0 0 0 0 0 0 0 0 127 0" result="hardAlpha"/>
<feOffset dx="6" dy="6"/>
<feGaussianBlur stdDeviation="6"/>
<feComposite in2="hardAlpha" operator="out"/>
<feColorMatrix type="matrix" values="0 0 0 0 0.0235294 0 0 0 0 0.0313726 0 0 0 0 0.0431373 0 0 0 0.5 0"/>
<feBlend mode="normal" in2="BackgroundImageFix" result="effect1_dropShadow_12_92"/>
<feColorMatrix in="SourceAlpha" type="matrix" values="0 0 0 0 0 0 0 0 0 0 0 0 0 0 0 0 0 0 127 0" result="hardAlpha"/>
<feOffset dx="-6" dy="-6"/>
<feGaussianBlur stdDeviation="6"/>
<feComposite in2="hardAlpha" operator="out"/>
<feColorMatrix type="matrix" values="0 0 0 0 0.0784314 0 0 0 0 0.101961 0 0 0 0 0.137255 0 0 0 0.5 0"/>
<feBlend mode="normal" in2="effect1_dropShadow_12_92" result="effect2_dropShadow_12_92"/>
<feBlend mode="normal" in="SourceGraphic" in2="effect2_dropShadow_12_92" result="shape"/>
</filter>
</defs>
</svg>
