<svg width="151" height="64" viewBox="0 0 151 64" fill="none" xmlns="http://www.w3.org/2000/svg">
<g filter="url(#filter0_dd_3_23)">
<rect x="18" y="18" width="115" height="28" rx="10" fill="#0D1117" shape-rendering="crispEdges"/>
<path d="M40.2811 25.4374C41.1506 25.44 41.9838 25.7865 42.5986 26.4014C43.2135 27.0162 43.56 27.8494 43.5626 28.7189V35.2811C43.56 36.1506 43.2135 36.9838 42.5986 37.5986C41.9838 38.2135 41.1506 38.56 40.2811 38.5626H33.7189C32.8494 38.56 32.0162 38.2135 31.4014 37.5986C30.7865 36.9838 30.44 36.1506 30.4374 35.2811V28.7189C30.44 27.8494 30.7865 27.0162 31.4014 26.4014C32.0162 25.7865 32.8494 25.44 33.7189 25.4374H40.2811ZM40.2811 24.125H33.7189C31.1922 24.125 29.125 26.1922 29.125 28.7189V35.2811C29.125 37.8078 31.1922 39.875 33.7189 39.875H40.2811C42.8078 39.875 44.875 37.8078 44.875 35.2811V28.7189C44.875 26.1922 42.8078 24.125 40.2811 24.125Z" fill="#E8ECF2"/>
<path d="M41.2655 28.7189C41.0708 28.7189 40.8805 28.6611 40.7186 28.553C40.5567 28.4448 40.4306 28.2911 40.3561 28.1112C40.2816 27.9313 40.2621 27.7334 40.3 27.5425C40.338 27.3515 40.4318 27.1761 40.5695 27.0384C40.7071 26.9008 40.8825 26.807 41.0735 26.769C41.2644 26.7311 41.4623 26.7505 41.6422 26.8251C41.8221 26.8996 41.9758 27.0257 42.084 27.1876C42.1922 27.3495 42.2499 27.5398 42.2499 27.7345C42.2502 27.8638 42.2249 27.992 42.1755 28.1115C42.1261 28.2311 42.0537 28.3397 41.9622 28.4312C41.8707 28.5226 41.7621 28.5951 41.6425 28.6445C41.523 28.6939 41.3949 28.7192 41.2655 28.7189ZM37 29.3749C37.5192 29.3749 38.0267 29.5288 38.4584 29.8173C38.8901 30.1058 39.2266 30.5157 39.4253 30.9954C39.624 31.4751 39.676 32.0029 39.5747 32.5121C39.4734 33.0214 39.2234 33.4891 38.8562 33.8562C38.4891 34.2234 38.0214 34.4734 37.5121 34.5747C37.0029 34.676 36.4751 34.624 35.9954 34.4253C35.5157 34.2266 35.1057 33.8901 34.8173 33.4584C34.5288 33.0267 34.3749 32.5192 34.3749 32C34.3756 31.304 34.6524 30.6367 35.1446 30.1446C35.6367 29.6524 36.304 29.3756 37 29.3749ZM37 28.0625C36.2212 28.0625 35.46 28.2934 34.8124 28.7261C34.1649 29.1588 33.6602 29.7737 33.3622 30.4932C33.0642 31.2127 32.9862 32.0044 33.1382 32.7682C33.2901 33.532 33.6651 34.2336 34.2158 34.7842C34.7664 35.3349 35.468 35.7099 36.2318 35.8618C36.9956 36.0138 37.7873 35.9358 38.5068 35.6378C39.2263 35.3398 39.8413 34.8351 40.2739 34.1876C40.7066 33.54 40.9375 32.7788 40.9375 32C40.9375 30.9557 40.5227 29.9542 39.7842 29.2158C39.0458 28.4773 38.0443 28.0625 37 28.0625Z" fill="#E8ECF2"/>
<path d="M53.508 27.624V36H51.828V27.624H53.508ZM62.3318 36H60.6518L56.8478 30.252V36H55.1678V27.612H56.8478L60.6518 33.372V27.612H62.3318V36ZM66.8841 36.084C66.3001 36.084 65.7721 35.984 65.3001 35.784C64.8361 35.584 64.4681 35.296 64.1961 34.92C63.9241 34.544 63.7841 34.1 63.7761 33.588H65.5761C65.6001 33.932 65.7201 34.204 65.9361 34.404C66.1601 34.604 66.4641 34.704 66.8481 34.704C67.2401 34.704 67.5481 34.612 67.7721 34.428C67.9961 34.236 68.1081 33.988 68.1081 33.684C68.1081 33.436 68.0321 33.232 67.8801 33.072C67.7281 32.912 67.5361 32.788 67.3041 32.7C67.0801 32.604 66.7681 32.5 66.3681 32.388C65.8241 32.228 65.3801 32.072 65.0361 31.92C64.7001 31.76 64.4081 31.524 64.1601 31.212C63.9201 30.892 63.8001 30.468 63.8001 29.94C63.8001 29.444 63.9241 29.012 64.1721 28.644C64.4201 28.276 64.7681 27.996 65.2161 27.804C65.6641 27.604 66.1761 27.504 66.7521 27.504C67.6161 27.504 68.3161 27.716 68.8521 28.14C69.3961 28.556 69.6961 29.14 69.7521 29.892H67.9041C67.8881 29.604 67.7641 29.368 67.5321 29.184C67.3081 28.992 67.0081 28.896 66.6321 28.896C66.3041 28.896 66.0401 28.98 65.8401 29.148C65.6481 29.316 65.5521 29.56 65.5521 29.88C65.5521 30.104 65.6241 30.292 65.7681 30.444C65.9201 30.588 66.1041 30.708 66.3201 30.804C66.5441 30.892 66.8561 30.996 67.2561 31.116C67.8001 31.276 68.2441 31.436 68.5881 31.596C68.9321 31.756 69.2281 31.996 69.4761 32.316C69.7241 32.636 69.8481 33.056 69.8481 33.576C69.8481 34.024 69.7321 34.44 69.5001 34.824C69.2681 35.208 68.9281 35.516 68.4801 35.748C68.0321 35.972 67.5001 36.084 66.8841 36.084ZM77.0046 27.624V28.98H74.7726V36H73.0926V28.98H70.8606V27.624H77.0046ZM83.3663 34.404H80.0303L79.4783 36H77.7143L80.7263 27.612H82.6823L85.6943 36H83.9183L83.3663 34.404ZM82.9103 33.06L81.6983 29.556L80.4863 33.06H82.9103ZM92.6522 30.144C92.4602 29.792 92.1962 29.524 91.8602 29.34C91.5242 29.156 91.1322 29.064 90.6842 29.064C90.1882 29.064 89.7482 29.176 89.3642 29.4C88.9802 29.624 88.6802 29.944 88.4642 30.36C88.2482 30.776 88.1402 31.256 88.1402 31.8C88.1402 32.36 88.2482 32.848 88.4642 33.264C88.6882 33.68 88.9962 34 89.3882 34.224C89.7802 34.448 90.2362 34.56 90.7562 34.56C91.3962 34.56 91.9202 34.392 92.3282 34.056C92.7362 33.712 93.0042 33.236 93.1322 32.628H90.2522V31.344H94.7882V32.808C94.6762 33.392 94.4362 33.932 94.0682 34.428C93.7002 34.924 93.2242 35.324 92.6402 35.628C92.0642 35.924 91.4162 36.072 90.6962 36.072C89.8882 36.072 89.1562 35.892 88.5002 35.532C87.8522 35.164 87.3402 34.656 86.9642 34.008C86.5962 33.36 86.4122 32.624 86.4122 31.8C86.4122 30.976 86.5962 30.24 86.9642 29.592C87.3402 28.936 87.8522 28.428 88.5002 28.068C89.1562 27.7 89.8842 27.516 90.6842 27.516C91.6282 27.516 92.4482 27.748 93.1442 28.212C93.8402 28.668 94.3202 29.312 94.5842 30.144H92.6522ZM100.351 36L98.5031 32.736H97.7111V36H96.0311V27.624H99.1751C99.8231 27.624 100.375 27.74 100.831 27.972C101.287 28.196 101.627 28.504 101.851 28.896C102.083 29.28 102.199 29.712 102.199 30.192C102.199 30.744 102.039 31.244 101.719 31.692C101.399 32.132 100.923 32.436 100.291 32.604L102.295 36H100.351ZM97.7111 31.476H99.1151C99.5711 31.476 99.9111 31.368 100.135 31.152C100.359 30.928 100.471 30.62 100.471 30.228C100.471 29.844 100.359 29.548 100.135 29.34C99.9111 29.124 99.5711 29.016 99.1151 29.016H97.7111V31.476ZM108.855 34.404H105.519L104.967 36H103.203L106.215 27.612H108.171L111.183 36H109.407L108.855 34.404ZM108.399 33.06L107.187 29.556L105.975 33.06H108.399ZM121.44 27.624V36H119.76V30.552L117.516 36H116.244L113.988 30.552V36H112.308V27.624H114.216L116.88 33.852L119.544 27.624H121.44Z" fill="#E8ECF2"/>
</g>
<defs>
<filter id="filter0_dd_3_23" x="0" y="0" width="151" height="64" filterUnits="userSpaceOnUse" color-interpolation-filters="sRGB">
<feFlood flood-opacity="0" result="BackgroundImageFix"/>
<feColorMatrix in="SourceAlpha" type="matrix" values="0 0 0 0 0 0 0 0 0 0 0 0 0 0 0 0 0 0 127 0" result="hardAlpha"/>
<feOffset dx="6" dy="6"/>
<feGaussianBlur stdDeviation="6"/>
<feComposite in2="hardAlpha" operator="out"/>
<feColorMatrix type="matrix" values="0 0 0 0 0.0235294 0 0 0 0 0.0313726 0 0 0 0 0.0431373 0 0 0 0.5 0"/>
<feBlend mode="normal" in2="BackgroundImageFix" result="effect1_dropShadow_3_23"/>
<feColorMatrix in="SourceAlpha" type="matrix" values="0 0 0 0 0 0 0 0 0 0 0 0 0 0 0 0 0 0 127 0" result="hardAlpha"/>
<feOffset dx="-6" dy="-6"/>
<feGaussianBlur stdDeviation="6"/>
<feComposite in2="hardAlpha" operator="out"/>
<feColorMatrix type="matrix" values="0 0 0 0 0.0784314 0 0 0 0 0.101961 0 0 0 0 0.137255 0 0 0 0.5 0"/>
<feBlend mode="normal" in2="effect1_dropShadow_3_23" result="effect2_dropShadow_3_23"/>
<feBlend mode="normal" in="SourceGraphic" in2="effect2_dropShadow_3_23" result="shape"/>
</filter>
</defs>
</svg>
