<svg width="154" height="64" viewBox="0 0 154 64" fill="none" xmlns="http://www.w3.org/2000/svg">
<g filter="url(#filter0_dd_12_97)">
<rect x="18" y="18" width="118" height="28" rx="7" fill="#0D1117"/>
<path d="M56.712 27.624V33.504C56.712 34.32 56.476 34.956 56.004 35.412C55.532 35.86 54.9 36.084 54.108 36.084C53.308 36.084 52.66 35.852 52.164 35.388C51.676 34.924 51.432 34.276 51.432 33.444H53.112C53.12 33.804 53.204 34.084 53.364 34.284C53.532 34.484 53.772 34.584 54.084 34.584C54.388 34.584 54.62 34.488 54.78 34.296C54.94 34.104 55.02 33.84 55.02 33.504V27.624H56.712ZM63.8078 34.404H60.4718L59.9198 36H58.1558L61.1678 27.612H63.1238L66.1358 36H64.3598L63.8078 34.404ZM63.3518 33.06L62.1398 29.556L60.9277 33.06H63.3518ZM74.7856 27.624L71.7136 36H69.6736L66.6016 27.624H68.4016L70.7056 34.284L72.9976 27.624H74.7856ZM80.9288 34.404H77.5928L77.0408 36H75.2768L78.2888 27.612H80.2448L83.2568 36H81.4808L80.9288 34.404ZM80.4728 33.06L79.2608 29.556L78.0488 33.06H80.4728ZM87.2747 36.084C86.6907 36.084 86.1627 35.984 85.6907 35.784C85.2267 35.584 84.8587 35.296 84.5867 34.92C84.3147 34.544 84.1747 34.1 84.1667 33.588H85.9667C85.9907 33.932 86.1107 34.204 86.3267 34.404C86.5507 34.604 86.8547 34.704 87.2387 34.704C87.6307 34.704 87.9387 34.612 88.1627 34.428C88.3867 34.236 88.4987 33.988 88.4987 33.684C88.4987 33.436 88.4227 33.232 88.2707 33.072C88.1187 32.912 87.9267 32.788 87.6947 32.7C87.4707 32.604 87.1587 32.5 86.7587 32.388C86.2147 32.228 85.7707 32.072 85.4267 31.92C85.0907 31.76 84.7987 31.524 84.5507 31.212C84.3107 30.892 84.1907 30.468 84.1907 29.94C84.1907 29.444 84.3147 29.012 84.5627 28.644C84.8107 28.276 85.1587 27.996 85.6067 27.804C86.0547 27.604 86.5667 27.504 87.1427 27.504C88.0067 27.504 88.7067 27.716 89.2427 28.14C89.7867 28.556 90.0867 29.14 90.1427 29.892H88.2947C88.2787 29.604 88.1547 29.368 87.9227 29.184C87.6987 28.992 87.3987 28.896 87.0227 28.896C86.6947 28.896 86.4307 28.98 86.2307 29.148C86.0387 29.316 85.9427 29.56 85.9427 29.88C85.9427 30.104 86.0147 30.292 86.1587 30.444C86.3107 30.588 86.4947 30.708 86.7107 30.804C86.9347 30.892 87.2467 30.996 87.6467 31.116C88.1907 31.276 88.6347 31.436 88.9787 31.596C89.3227 31.756 89.6187 31.996 89.8667 32.316C90.1147 32.636 90.2387 33.056 90.2387 33.576C90.2387 34.024 90.1227 34.44 89.8907 34.824C89.6587 35.208 89.3187 35.516 88.8707 35.748C88.4227 35.972 87.8907 36.084 87.2747 36.084ZM91.2872 31.8C91.2872 30.976 91.4712 30.24 91.8392 29.592C92.2152 28.936 92.7232 28.428 93.3632 28.068C94.0112 27.7 94.7352 27.516 95.5352 27.516C96.4712 27.516 97.2912 27.756 97.9952 28.236C98.6992 28.716 99.1912 29.38 99.4712 30.228H97.5392C97.3472 29.828 97.0752 29.528 96.7232 29.328C96.3792 29.128 95.9792 29.028 95.5232 29.028C95.0352 29.028 94.5992 29.144 94.2152 29.376C93.8392 29.6 93.5432 29.92 93.3272 30.336C93.1192 30.752 93.0152 31.24 93.0152 31.8C93.0152 32.352 93.1192 32.84 93.3272 33.264C93.5432 33.68 93.8392 34.004 94.2152 34.236C94.5992 34.46 95.0352 34.572 95.5232 34.572C95.9792 34.572 96.3792 34.472 96.7232 34.272C97.0752 34.064 97.3472 33.76 97.5392 33.36H99.4712C99.1912 34.216 98.6992 34.884 97.9952 35.364C97.2992 35.836 96.4792 36.072 95.5352 36.072C94.7352 36.072 94.0112 35.892 93.3632 35.532C92.7232 35.164 92.2152 34.656 91.8392 34.008C91.4712 33.36 91.2872 32.624 91.2872 31.8ZM105.226 36L103.378 32.736H102.586V36H100.906V27.624H104.05C104.698 27.624 105.25 27.74 105.706 27.972C106.162 28.196 106.502 28.504 106.726 28.896C106.958 29.28 107.074 29.712 107.074 30.192C107.074 30.744 106.914 31.244 106.594 31.692C106.274 32.132 105.798 32.436 105.166 32.604L107.17 36H105.226ZM102.586 31.476H103.99C104.446 31.476 104.786 31.368 105.01 31.152C105.234 30.928 105.346 30.62 105.346 30.228C105.346 29.844 105.234 29.548 105.01 29.34C104.786 29.124 104.446 29.016 103.99 29.016H102.586V31.476ZM110.274 27.624V36H108.594V27.624H110.274ZM118.041 30.216C118.041 30.664 117.933 31.084 117.717 31.476C117.509 31.868 117.177 32.184 116.721 32.424C116.273 32.664 115.705 32.784 115.017 32.784H113.613V36H111.933V27.624H115.017C115.665 27.624 116.217 27.736 116.673 27.96C117.129 28.184 117.469 28.492 117.693 28.884C117.925 29.276 118.041 29.72 118.041 30.216ZM114.945 31.428C115.409 31.428 115.753 31.324 115.977 31.116C116.201 30.9 116.313 30.6 116.313 30.216C116.313 29.4 115.857 28.992 114.945 28.992H113.613V31.428H114.945ZM124.934 27.624V28.98H122.702V36H121.022V28.98H118.79V27.624H124.934Z" fill="#E8ECF2"/>
<path d="M29.125 24.125V39.875H44.875V24.125H29.125ZM37.5625 36.3594C37.5625 37.8925 36.6569 38.64 35.3459 38.64C34.1618 38.64 33.4745 38.0268 33.1258 37.2868L34.3309 36.5573C34.5633 36.9697 34.7398 37.3184 35.2471 37.3184C35.669 37.3184 36.0156 37.1282 36.0156 36.3882V31.4375H37.5625V36.3594ZM41.0553 38.6048C39.681 38.6048 38.793 37.9846 38.3595 37.1282L39.5664 36.4297C39.8828 36.9479 40.2959 37.2931 41.0254 37.2931C41.6385 37.2931 41.9946 37.0217 41.9946 36.5988C41.9946 36.0915 41.628 35.9118 40.9512 35.6144L40.5814 35.4555C39.5133 35.0013 38.8053 34.4304 38.8053 33.2248C38.8053 32.115 39.6508 31.3043 40.9723 31.3043C41.9134 31.3043 42.5895 31.5968 43.0764 32.4532L41.9219 33.1953C41.668 32.7407 41.3945 32.5625 40.9705 32.5625C40.5371 32.5625 40.2621 32.8374 40.2621 33.1953C40.2621 33.6393 40.5371 33.819 41.1713 34.0939L41.5411 34.2525C42.7994 34.7918 43.5078 35.3423 43.5078 36.5784C43.5081 37.9108 42.4615 38.6048 41.0553 38.6048Z" fill="#E8ECF2"/>
</g>
<defs>
<filter id="filter0_dd_12_97" x="0" y="0" width="154" height="64" filterUnits="userSpaceOnUse" color-interpolation-filters="sRGB">
<feFlood flood-opacity="0" result="BackgroundImageFix"/>
<feColorMatrix in="SourceAlpha" type="matrix" values="0 0 0 0 0 0 0 0 0 0 0 0 0 0 0 0 0 0 127 0" result="hardAlpha"/>
<feOffset dx="6" dy="6"/>
<feGaussianBlur stdDeviation="6"/>
<feComposite in2="hardAlpha" operator="out"/>
<feColorMatrix type="matrix" values="0 0 0 0 0.0235294 0 0 0 0 0.0313726 0 0 0 0 0.0431373 0 0 0 0.5 0"/>
<feBlend mode="normal" in2="BackgroundImageFix" result="effect1_dropShadow_12_97"/>
<feColorMatrix in="SourceAlpha" type="matrix" values="0 0 0 0 0 0 0 0 0 0 0 0 0 0 0 0 0 0 127 0" result="hardAlpha"/>
<feOffset dx="-6" dy="-6"/>
<feGaussianBlur stdDeviation="6"/>
<feComposite in2="hardAlpha" operator="out"/>
<feColorMatrix type="matrix" values="0 0 0 0 0.0784314 0 0 0 0 0.101961 0 0 0 0 0.137255 0 0 0 0.5 0"/>
<feBlend mode="normal" in2="effect1_dropShadow_12_97" result="effect2_dropShadow_12_97"/>
<feBlend mode="normal" in="SourceGraphic" in2="effect2_dropShadow_12_97" result="shape"/>
</filter>
</defs>
</svg>
