<svg width="130" height="64" viewBox="0 0 130 64" fill="none" xmlns="http://www.w3.org/2000/svg">
<g filter="url(#filter0_dd_12_102)">
<rect x="18" y="18" width="94" height="28" rx="7" fill="#0D1117"/>
<path d="M53.508 34.668H56.268V36H51.828V27.624H53.508V34.668ZM62.4718 34.404H59.1358L58.5838 36H56.8198L59.8318 27.612H61.7878L64.7998 36H63.0238L62.4718 34.404ZM62.0158 33.06L60.8038 29.556L59.5918 33.06H62.0158ZM70.2457 36L68.3977 32.736H67.6057V36H65.9257V27.624H69.0697C69.7177 27.624 70.2697 27.74 70.7257 27.972C71.1817 28.196 71.5217 28.504 71.7457 28.896C71.9777 29.28 72.0937 29.712 72.0937 30.192C72.0937 30.744 71.9337 31.244 71.6137 31.692C71.2937 32.132 70.8177 32.436 70.1857 32.604L72.1897 36H70.2457ZM67.6057 31.476H69.0097C69.4657 31.476 69.8057 31.368 70.0297 31.152C70.2537 30.928 70.3657 30.62 70.3657 30.228C70.3657 29.844 70.2537 29.548 70.0297 29.34C69.8057 29.124 69.4657 29.016 69.0097 29.016H67.6057V31.476ZM78.7492 34.404H75.4132L74.8612 36H73.0972L76.1092 27.612H78.0652L81.0772 36H79.3012L78.7492 34.404ZM78.2932 33.06L77.0812 29.556L75.8692 33.06H78.2932ZM89.727 27.624L86.655 36H84.615L81.543 27.624H83.343L85.647 34.284L87.939 27.624H89.727ZM92.4143 28.98V31.08H95.2343V32.412H92.4143V34.632H95.5943V36H90.7343V27.612H95.5943V28.98H92.4143ZM98.801 34.668H101.561V36H97.121V27.624H98.801V34.668Z" fill="#E8ECF2"/>
<g clip-path="url(#clip0_12_102)">
<path d="M44.6403 31.2484C44.5297 31.1243 43.7359 30.1132 43.308 29.5682C43.0804 29.2786 42.9006 29.0497 42.8251 28.9548L42.819 28.947L42.8123 28.9396C42.6363 28.7347 42.386 28.4998 42.0104 28.4998C41.9493 28.5007 41.8884 28.5058 41.828 28.5153C41.8155 28.5171 41.8027 28.5192 41.7892 28.5206C41.7066 28.5301 41.4499 28.5733 40.8403 28.6781C40.3682 28.7586 39.6563 28.8809 39.5484 28.8915L39.5245 28.8936L39.5012 28.8982C39.164 28.9607 38.9407 29.1168 38.8416 29.3619C38.7893 29.4913 38.733 29.7539 38.9407 30.0601C38.9923 30.1381 39.1711 30.3962 39.4783 30.8395C39.6826 31.1348 39.9122 31.466 40.1105 31.7536L36.356 32.668L32.6723 26.3768L32.6655 26.3648L32.6578 26.3532L32.6429 26.3304C32.4922 26.0997 32.3047 25.8125 31.7632 25.8125C31.7251 25.8125 31.6853 25.8125 31.6408 25.8164C31.4856 25.8252 30.9184 25.8716 30.2619 25.9257C29.5372 25.9851 28.5455 26.0663 28.4167 26.0698H28.392L28.3654 26.0727C28.0572 26.1039 27.8336 26.2344 27.7011 26.4594C27.4802 26.8352 27.6532 27.2571 27.7099 27.3956C27.8235 27.6758 28.8584 29.9504 29.7712 31.9582C30.3782 33.292 31.0048 34.6712 31.056 34.7935C31.1462 35.0221 31.3005 35.2168 31.4987 35.3523C31.6969 35.4878 31.9298 35.5576 32.1668 35.5525C32.2786 35.552 32.3901 35.5391 32.4993 35.5139H32.5064L32.5131 35.5121C32.9805 35.3933 34.4632 35.0009 35.5211 34.7179C35.5851 34.8346 35.6526 34.958 35.7234 35.085C36.4629 36.4385 37.0014 37.4176 37.1788 37.6675C37.2698 37.8008 37.5396 38.1875 38.0475 38.1875C38.2316 38.1875 38.4002 38.1383 38.5782 38.0859L38.6298 38.0708H38.6339C38.989 37.9653 43.7153 36.237 43.9575 36.1249L43.9649 36.1214C44.1483 36.0366 44.4255 35.9087 44.5105 35.58C44.5661 35.3648 44.5166 35.1465 44.3628 34.931L44.3604 34.9278L44.3581 34.9246C44.3294 34.886 44.2232 34.7415 44.0792 34.5414C43.7713 34.1171 43.2739 33.4316 42.8369 32.835C43.4226 32.6768 44.1453 32.4795 44.2997 32.4289C44.6865 32.3083 44.8035 32.0531 44.8393 31.9111C44.8659 31.8003 44.9006 31.5173 44.6403 31.2484ZM33.8495 33.2941C33.2489 33.4407 32.8304 33.543 32.5718 33.607C32.3469 33.138 31.9061 32.213 31.4759 31.3102C30.473 29.2037 29.955 28.1191 29.6826 27.552L29.9574 27.5274C30.4072 27.487 31.0233 27.4318 31.3663 27.4019C31.9314 28.3954 33.8724 31.807 34.6136 33.1078L33.8495 33.2941ZM39.8573 35.6369C39.0409 35.9182 38.5985 36.0718 38.3594 36.1551C38.1469 35.7916 37.6796 34.9767 37.2645 34.25L41.166 33.2136C41.3346 33.453 41.6573 33.9069 42.2943 34.7932C41.685 35.0055 40.669 35.3564 39.8573 35.6369ZM41.7413 31.3609L40.9401 30.2524C41.401 30.1684 41.6664 30.1198 41.8219 30.0907L42.2265 30.6138L42.6292 31.1348C42.3527 31.2048 42.031 31.2867 41.7413 31.3609Z" fill="#E8ECF2"/>
</g>
</g>
<defs>
<filter id="filter0_dd_12_102" x="0" y="0" width="130" height="64" filterUnits="userSpaceOnUse" color-interpolation-filters="sRGB">
<feFlood flood-opacity="0" result="BackgroundImageFix"/>
<feColorMatrix in="SourceAlpha" type="matrix" values="0 0 0 0 0 0 0 0 0 0 0 0 0 0 0 0 0 0 127 0" result="hardAlpha"/>
<feOffset dx="6" dy="6"/>
<feGaussianBlur stdDeviation="6"/>
<feComposite in2="hardAlpha" operator="out"/>
<feColorMatrix type="matrix" values="0 0 0 0 0.0235294 0 0 0 0 0.0313726 0 0 0 0 0.0431373 0 0 0 0.5 0"/>
<feBlend mode="normal" in2="BackgroundImageFix" result="effect1_dropShadow_12_102"/>
<feColorMatrix in="SourceAlpha" type="matrix" values="0 0 0 0 0 0 0 0 0 0 0 0 0 0 0 0 0 0 127 0" result="hardAlpha"/>
<feOffset dx="-6" dy="-6"/>
<feGaussianBlur stdDeviation="6"/>
<feComposite in2="hardAlpha" operator="out"/>
<feColorMatrix type="matrix" values="0 0 0 0 0.0784314 0 0 0 0 0.101961 0 0 0 0 0.137255 0 0 0 0.5 0"/>
<feBlend mode="normal" in2="effect1_dropShadow_12_102" result="effect2_dropShadow_12_102"/>
<feBlend mode="normal" in="SourceGraphic" in2="effect2_dropShadow_12_102" result="shape"/>
</filter>
<clipPath id="clip0_12_102">
<rect width="17.2653" height="18" fill="white" transform="translate(27.5918 23)"/>
</clipPath>
</defs>
</svg>
