<svg width="132" height="64" viewBox="0 0 132 64" fill="none" xmlns="http://www.w3.org/2000/svg">
<g filter="url(#filter0_dd_12_107)">
<rect x="18" y="18" width="96" height="28" rx="7" fill="#0D1117"/>
<path d="M53.508 34.668H56.268V36H51.828V27.624H53.508V34.668ZM59.0158 27.624V36H57.3358V27.624H59.0158ZM67.8397 36H66.1597L62.3557 30.252V36H60.6757V27.612H62.3557L66.1597 33.372V27.612H67.8397V36ZM74.2279 36L71.1799 32.268V36H69.4999V27.624H71.1799V31.38L74.2279 27.624H76.2559L72.7999 31.776L76.3519 36H74.2279ZM79.1369 28.98V31.08H81.9569V32.412H79.1369V34.632H82.3169V36H77.4569V27.612H82.3169V28.98H79.1369ZM86.7716 27.624C87.6516 27.624 88.4236 27.796 89.0876 28.14C89.7596 28.484 90.2756 28.976 90.6356 29.616C91.0036 30.248 91.1876 30.984 91.1876 31.824C91.1876 32.664 91.0036 33.4 90.6356 34.032C90.2756 34.656 89.7596 35.14 89.0876 35.484C88.4236 35.828 87.6516 36 86.7716 36H83.8436V27.624H86.7716ZM86.7116 34.572C87.5916 34.572 88.2716 34.332 88.7516 33.852C89.2316 33.372 89.4716 32.696 89.4716 31.824C89.4716 30.952 89.2316 30.272 88.7516 29.784C88.2716 29.288 87.5916 29.04 86.7116 29.04H85.5236V34.572H86.7116ZM94.1252 27.624V36H92.4452V27.624H94.1252ZM102.949 36H101.269L97.465 30.252V36H95.785V27.612H97.465L101.269 33.372V27.612H102.949V36Z" fill="#E8ECF2"/>
<path d="M43.6154 24.125H30.4708C29.7525 24.125 29.125 24.6418 29.125 25.3516V38.5254C29.125 39.239 29.7525 39.875 30.4708 39.875H43.6115C44.3336 39.875 44.875 39.2348 44.875 38.5254V25.3516C44.8792 24.6418 44.3336 24.125 43.6154 24.125ZM34.0071 37.2534H31.7508V30.238H34.0071V37.2534ZM32.957 29.1713H32.9409C32.2187 29.1713 31.7512 28.6338 31.7512 27.9609C31.7512 27.2757 32.2311 26.7508 32.9693 26.7508C33.7076 26.7508 34.1594 27.2718 34.1755 27.9609C34.1752 28.6338 33.7076 29.1713 32.957 29.1713ZM42.2534 37.2534H39.9971V33.4175C39.9971 32.4985 39.6687 31.8706 38.8524 31.8706C38.2287 31.8706 37.8596 32.2925 37.6954 32.7035C37.6339 32.8511 37.6173 33.0522 37.6173 33.2575V37.2534H35.361V30.238H37.6173V31.2143C37.9457 30.7467 38.4586 30.0738 39.6522 30.0738C41.1333 30.0738 42.2538 31.0501 42.2538 33.1549L42.2534 37.2534Z" fill="#E8ECF2"/>
</g>
<defs>
<filter id="filter0_dd_12_107" x="0" y="0" width="132" height="64" filterUnits="userSpaceOnUse" color-interpolation-filters="sRGB">
<feFlood flood-opacity="0" result="BackgroundImageFix"/>
<feColorMatrix in="SourceAlpha" type="matrix" values="0 0 0 0 0 0 0 0 0 0 0 0 0 0 0 0 0 0 127 0" result="hardAlpha"/>
<feOffset dx="6" dy="6"/>
<feGaussianBlur stdDeviation="6"/>
<feComposite in2="hardAlpha" operator="out"/>
<feColorMatrix type="matrix" values="0 0 0 0 0.0235294 0 0 0 0 0.0313726 0 0 0 0 0.0431373 0 0 0 0.5 0"/>
<feBlend mode="normal" in2="BackgroundImageFix" result="effect1_dropShadow_12_107"/>
<feColorMatrix in="SourceAlpha" type="matrix" values="0 0 0 0 0 0 0 0 0 0 0 0 0 0 0 0 0 0 127 0" result="hardAlpha"/>
<feOffset dx="-6" dy="-6"/>
<feGaussianBlur stdDeviation="6"/>
<feComposite in2="hardAlpha" operator="out"/>
<feColorMatrix type="matrix" values="0 0 0 0 0.0784314 0 0 0 0 0.101961 0 0 0 0 0.137255 0 0 0 0.5 0"/>
<feBlend mode="normal" in2="effect1_dropShadow_12_107" result="effect2_dropShadow_12_107"/>
<feBlend mode="normal" in="SourceGraphic" in2="effect2_dropShadow_12_107" result="shape"/>
</filter>
</defs>
</svg>
