<svg width="114" height="64" viewBox="0 0 114 64" fill="none" xmlns="http://www.w3.org/2000/svg">
<g filter="url(#filter0_dd_10_2)">
<rect x="18" y="18" width="78" height="28" rx="7" fill="#0D1117"/>
<path d="M53.508 34.668H56.268V36H51.828V27.624H53.508V34.668ZM59.0158 27.624V36H57.3358V27.624H59.0158ZM67.8397 36H66.1597L62.3557 30.252V36H60.6757V27.612H62.3557L66.1597 33.372V27.612H67.8397V36ZM71.1559 27.624V32.808C71.1559 33.376 71.3039 33.812 71.5999 34.116C71.8959 34.412 72.3119 34.56 72.8479 34.56C73.3919 34.56 73.8119 34.412 74.1079 34.116C74.4039 33.812 74.5519 33.376 74.5519 32.808V27.624H76.2439V32.796C76.2439 33.508 76.0879 34.112 75.7759 34.608C75.4719 35.096 75.0599 35.464 74.5399 35.712C74.0279 35.96 73.4559 36.084 72.8239 36.084C72.1999 36.084 71.6319 35.96 71.1199 35.712C70.6159 35.464 70.2159 35.096 69.9199 34.608C69.6239 34.112 69.4759 33.508 69.4759 32.796V27.624H71.1559ZM82.8831 36L81.0711 33.18L79.4271 36H77.5311L80.1711 31.776L77.4951 27.624H79.4271L81.2391 30.432L82.8711 27.624H84.7671L82.1391 31.836L84.8151 36H82.8831Z" fill="#E8ECF2"/>
<path d="M43.5974 37.24C43.5461 37.2123 43.4972 37.1859 43.4568 37.1627C43.2293 37.028 42.9998 36.7929 43.0402 36.5359C43.1253 35.9755 43.1418 35.7107 43.023 35.5237C42.959 35.4238 42.8644 35.3473 42.7533 35.3057V35.3036C42.8029 35.2136 42.8328 35.1046 42.8528 34.9479C42.9034 34.5611 42.677 33.401 42.3712 32.4623C42.0871 31.5946 41.3432 30.7045 40.7997 30.052L40.6728 29.8994C39.8332 28.8823 39.8171 28.5568 39.7394 26.993C39.7281 26.7656 39.7151 26.5079 39.6982 26.2196C39.597 24.4565 38.6875 23.5625 37 23.5625C36.1141 23.5625 35.4313 23.8139 34.9708 24.3099C34.602 24.7068 34.3984 25.25 34.3984 25.8399C34.3984 26.8777 34.4687 27.7032 34.474 27.7486C34.5232 29.0036 34.5092 29.1977 34.1819 29.7718C34.1035 29.91 33.8873 30.1539 33.6584 30.412C33.3603 30.7484 33.0224 31.1295 32.8371 31.4393C32.7046 31.6611 32.6304 31.8833 32.552 32.1188C32.4325 32.4778 32.2968 32.8845 31.9139 33.4045C31.472 34.0046 31.3683 34.4455 31.5272 35.0727C31.3536 35.2994 31.3574 35.5779 31.3602 35.7839C31.3652 35.8554 31.3616 35.9273 31.3497 35.998C31.2692 36.2648 30.913 36.3284 30.5762 36.3559C30.5207 36.3601 30.4673 36.3632 30.4163 36.3661C30.1611 36.3798 29.9406 36.3921 29.8141 36.5875C29.6921 36.776 29.7747 37.0727 29.8893 37.4833C29.9146 37.574 29.9406 37.6679 29.9663 37.7667C30.0306 38.0128 29.9607 38.1351 29.8721 38.2884C29.7863 38.4364 29.6889 38.6048 29.6889 38.9054C29.6889 39.4211 30.392 39.5382 31.2024 39.6767C31.4611 39.7203 31.7297 39.7657 31.998 39.8258C32.4066 39.9191 32.8073 40.0446 33.1961 40.2013C33.5378 40.3324 33.8078 40.4361 34.1253 40.4361C34.6941 40.4361 35.1184 40.0926 35.5287 39.7607L35.6043 39.6992C35.7987 39.5414 36.3602 39.5586 36.8116 39.5712C36.9332 39.5748 37.0482 39.5783 37.1508 39.5783H37.3695C37.8434 39.5755 38.4924 39.572 38.8541 39.6662C38.986 39.7013 39.0721 39.797 39.1807 39.9189C39.3871 40.1496 39.6437 40.4375 40.3546 40.4375C41.0363 40.4375 41.3935 40.1313 41.8073 39.7766C42.059 39.5611 42.3191 39.3378 42.6886 39.1487C42.8264 39.0784 42.9565 39.0126 43.0782 38.9514C43.8741 38.5514 44.3125 38.3309 44.3125 37.9734C44.3125 37.625 43.8822 37.3933 43.5974 37.24ZM35.4218 26.1071C35.5179 26.1109 35.6108 26.1429 35.6887 26.1992C35.7667 26.2555 35.8264 26.3335 35.8602 26.4235C35.9288 26.6186 35.9239 26.7898 35.8676 26.8784C35.8676 26.8784 35.8599 26.8433 35.855 26.8278C35.8198 26.7024 35.739 26.5947 35.6286 26.5258C35.5825 26.4961 35.5309 26.4762 35.4768 26.4673C35.4227 26.4584 35.3674 26.4607 35.3143 26.4741C35.1645 26.5139 35.0186 26.6499 35.001 27.1347C34.8196 26.7666 34.9198 26.5019 35.0334 26.3261C35.1146 26.195 35.296 26.1036 35.4218 26.1071ZM34.8066 39.2907C34.75 39.8483 34.1594 39.8398 33.9797 39.8254C33.6348 39.7966 33.2182 39.6605 32.815 39.5291C32.6561 39.4774 32.4919 39.4236 32.3323 39.3765C31.8682 39.2397 31.2734 39.1395 30.7953 39.0601C30.6821 39.0407 30.5748 39.0228 30.4771 39.0056C30.3794 38.9884 30.315 38.9609 30.2943 38.9247C30.2591 38.8667 30.3077 38.7402 30.3621 38.5939C30.4353 38.3984 30.5351 38.1291 30.5312 37.8008C30.5312 37.6633 30.4796 37.509 30.4314 37.3592C30.3745 37.1834 30.3161 37.0017 30.3636 36.9155C30.4068 36.8371 30.6009 36.828 30.7714 36.828H30.8508C30.9756 36.828 31.0836 36.8301 31.1584 36.8094C31.3873 36.7457 31.6809 36.5661 31.7846 36.3214C31.8162 36.2451 31.8327 36.0774 31.8549 35.8292C31.8679 35.6844 31.8809 35.535 31.8978 35.4573C31.9019 35.4374 31.9108 35.4189 31.9238 35.4033C31.9367 35.3876 31.9532 35.3754 31.972 35.3676C32.03 35.3405 32.2103 35.3005 32.6269 35.5111C33.02 35.7097 33.4313 36.4195 33.8293 37.1061C33.9544 37.322 34.0725 37.5259 34.1914 37.7164C34.685 38.5088 34.8534 38.8273 34.8066 39.2914V39.2907ZM39.3361 38.1812C39.2939 38.3133 39.2404 38.4415 39.1762 38.5644C39.174 38.5692 39.1702 38.573 39.1653 38.575C39.1605 38.577 39.155 38.577 39.1501 38.5751C39.1452 38.5732 39.1413 38.5695 39.1391 38.5648C39.1368 38.56 39.1365 38.5546 39.1382 38.5496C39.1984 38.3392 39.2234 38.1203 39.2124 37.9017C39.2036 37.7354 39.1983 37.6348 39.1189 37.6025C39.0394 37.5702 38.9691 37.6317 38.7866 37.7973C38.748 37.8324 38.7037 37.8725 38.6537 37.9168C38.2741 38.2497 37.7087 38.6438 36.6987 38.7384C36.1067 38.7943 35.7287 38.5756 35.6117 38.4522C35.6048 38.4449 35.5965 38.439 35.5874 38.4349C35.5782 38.4308 35.5683 38.4286 35.5583 38.4283C35.5483 38.428 35.5383 38.4298 35.5289 38.4334C35.5195 38.437 35.511 38.4425 35.5037 38.4494C35.4936 38.4598 35.4865 38.4729 35.4833 38.4871C35.4802 38.5013 35.481 38.5162 35.4858 38.5299C35.5603 38.7704 35.528 38.9609 35.4686 39.0991C35.4352 39.1764 35.4036 39.1712 35.3983 39.0871C35.3895 38.924 35.3631 38.7398 35.2928 38.5883C35.1835 38.3443 35.0467 38.0841 34.9803 37.9597V37.9579C35.0942 37.9055 35.2918 37.7881 35.38 37.5754C35.4682 37.3627 35.5375 36.9426 35.0348 36.4596C34.814 36.2469 34.2578 35.8563 33.767 35.5104C33.3838 35.2414 32.9876 34.9633 32.9356 34.8948C32.7777 34.6877 32.7116 34.5678 32.6916 34.2039C32.6941 34.1231 32.6962 34.0426 32.6983 33.9617L32.7078 33.8742C32.7084 33.8693 32.7108 33.8648 32.7145 33.8615C32.7183 33.8583 32.723 33.8565 32.728 33.8565C32.7329 33.8565 32.7377 33.8583 32.7414 33.8615C32.7451 33.8648 32.7476 33.8693 32.7482 33.8742C32.7626 33.9898 32.7861 34.104 32.8185 34.2159C32.8565 34.347 32.9029 34.4824 32.9458 34.5386C33.0579 34.687 33.2116 34.7984 33.3561 34.8371C33.3852 34.8473 33.4164 34.8503 33.447 34.8459C33.4776 34.8415 33.5067 34.8298 33.5318 34.8118C33.6348 34.7299 33.625 34.5446 33.6088 34.2373C33.5923 33.9209 33.5698 33.4871 33.6739 33.0227C33.8714 32.1438 34.0574 31.8798 34.293 31.5461C34.3232 31.5032 34.3545 31.4593 34.3861 31.4129C34.4368 31.3398 34.4916 31.2688 34.5503 31.1939C34.8129 30.856 35.1103 30.4735 35.0397 29.7542C35.0218 29.5718 35.013 29.4438 35.0095 29.3538C35.0084 29.3456 35.0102 29.3373 35.0147 29.3303C35.0191 29.3233 35.0259 29.3181 35.0338 29.3156C35.0417 29.3131 35.0502 29.3135 35.0578 29.3167C35.0655 29.3199 35.0717 29.3257 35.0755 29.333L35.0928 29.3601L35.1353 29.4304C35.3062 29.7117 35.6148 30.2239 36.0177 30.2239C36.0455 30.2239 36.0733 30.2214 36.1007 30.2165C36.923 30.0784 37.9253 29.153 37.9348 29.1439C38.0445 29.0384 38.0346 28.928 37.9925 28.8658C37.9679 28.8306 37.9316 28.8053 37.8901 28.7942C37.8486 28.7831 37.8046 28.7871 37.7657 28.8054C37.65 28.8546 37.5147 28.9161 37.3712 28.9811C36.8854 29.2016 36.0705 29.57 35.8859 29.4853C35.8017 29.4388 35.7265 29.3777 35.6637 29.3049C35.6599 29.3023 35.6566 29.2989 35.6541 29.295C35.6516 29.2912 35.6499 29.2868 35.6491 29.2823C35.6482 29.2777 35.6483 29.273 35.6493 29.2685C35.6503 29.264 35.6521 29.2597 35.6547 29.2559C35.6574 29.2521 35.6607 29.2488 35.6646 29.2463C35.6685 29.2438 35.6729 29.2421 35.6774 29.2412C35.682 29.2404 35.6866 29.2405 35.6912 29.2415C35.6957 29.2424 35.7 29.2443 35.7038 29.2469C35.9003 29.3274 36.0395 29.2979 36.203 29.2441L36.2382 29.2321C36.5676 29.1235 36.7374 29.0645 37.3196 28.8075C37.5036 28.7212 37.6949 28.6514 37.8912 28.599C38.0318 28.5638 38.1169 28.5417 38.1623 28.4464C38.1835 28.4073 38.1931 28.3629 38.19 28.3185C38.1869 28.2741 38.1712 28.2315 38.1447 28.1957C38.0909 28.13 38.0016 28.1054 37.8986 28.1289C37.7854 28.1553 37.7334 28.2344 37.6732 28.2868C37.5889 28.3589 37.4975 28.433 37.0689 28.5909C36.1197 28.9425 35.8532 28.9639 35.4795 28.7115C35.1336 28.4763 34.9469 28.2464 34.9469 28.149C34.9469 28.0741 35.1385 27.9486 35.2531 27.8734C35.2998 27.8428 35.3441 27.8139 35.3803 27.7869C35.5329 27.6737 35.8374 27.3864 35.8507 27.3745C36.0406 27.1843 36.4804 27.2979 36.7296 27.4652C36.7382 27.4716 36.748 27.4762 36.7584 27.4787C36.7688 27.4811 36.7796 27.4815 36.7901 27.4796C36.8 27.4777 36.8095 27.4738 36.8178 27.4682C36.8262 27.4625 36.8334 27.4553 36.8389 27.4468C36.8444 27.4383 36.8482 27.4288 36.8499 27.4189C36.8517 27.409 36.8514 27.3988 36.8492 27.3889C36.7015 26.7751 36.8446 26.4277 36.9898 26.2446C37.0636 26.1523 37.157 26.0776 37.2634 26.026C37.3697 25.9745 37.4862 25.9473 37.6043 25.9464C38.0547 25.9464 38.3693 26.298 38.3693 26.805C38.3693 27.1917 38.2702 27.3952 38.1767 27.5186C38.1714 27.5254 38.1648 27.531 38.1572 27.5351C38.1497 27.5392 38.1413 27.5416 38.1327 27.5422C38.1242 27.5428 38.1156 27.5415 38.1075 27.5386C38.0995 27.5356 38.0921 27.531 38.086 27.525C38.076 27.5149 38.0698 27.5018 38.0683 27.4878C38.0667 27.4737 38.07 27.4596 38.0775 27.4476C38.1554 27.3142 38.196 27.1623 38.1953 27.0078C38.1957 26.9302 38.1807 26.8533 38.151 26.7816C38.1213 26.71 38.0776 26.6449 38.0225 26.5903C37.9674 26.5357 37.9019 26.4927 37.8299 26.4638C37.7579 26.4348 37.6809 26.4205 37.6033 26.4218C37.4648 26.4218 37.1294 26.4745 37.0137 26.9646C36.9854 27.0924 36.9814 27.2244 37.0018 27.3537L37.0046 27.3787C37.0362 27.6382 37.5425 27.8185 37.9619 27.924C38.3612 28.0242 38.4189 28.1427 38.2727 28.6141C38.1264 29.0855 38.382 29.5362 38.473 29.6537C38.5842 29.7901 38.682 29.9369 38.7652 30.0921C38.8609 30.2774 38.9388 30.4714 38.9979 30.6714C39.0742 30.9102 39.1403 31.1162 39.3716 31.4175C39.7608 31.9237 39.9925 33.1275 39.899 34.1596C39.8916 34.2444 39.8803 34.3105 39.8719 34.359C39.8568 34.4479 39.8466 34.5066 39.8951 34.5481C39.9436 34.5896 40.0062 34.5727 40.1503 34.526L40.2709 34.4877C40.4163 34.4462 40.564 34.4133 40.7132 34.3892C40.7251 34.3874 40.7364 34.3827 40.7461 34.3756C40.7558 34.3685 40.7637 34.3592 40.7691 34.3484C40.8897 34.1055 40.9045 33.8134 40.9097 33.5585C40.9097 33.5278 40.9104 33.4951 40.9118 33.4604C40.9185 33.1872 40.9277 32.7949 40.8081 32.3354C40.8051 32.3264 40.8059 32.3166 40.8101 32.3081C40.8144 32.2996 40.8218 32.2932 40.8308 32.2902C40.8398 32.2872 40.8496 32.2879 40.8581 32.2922C40.8666 32.2964 40.873 32.3039 40.876 32.3129C40.9963 32.5996 41.0752 32.9021 41.1101 33.2111C41.1998 34.005 41.0433 34.3393 41.0419 34.3421C41.0383 34.3494 41.0363 34.3574 41.036 34.3656C41.0358 34.3737 41.0373 34.3818 41.0404 34.3893C41.0436 34.3968 41.0484 34.4036 41.0544 34.4091C41.0604 34.4146 41.0675 34.4187 41.0753 34.4212C41.1691 34.4549 41.253 34.5113 41.3196 34.5854C41.371 34.6438 41.3523 34.6698 41.2796 34.6423C41.136 34.5887 40.9839 34.5615 40.8306 34.5618C40.465 34.5618 40.1946 34.7359 40.0744 34.8849C39.9623 35.0234 39.9443 35.1546 39.9398 35.2811L39.9377 35.2829C39.6747 35.2565 39.4827 35.3254 39.3235 35.5012L39.3207 35.5044C39.1006 35.7768 39.18 36.3703 39.2753 36.8572C39.3203 37.0839 39.4718 37.7544 39.3361 38.1819V38.1812ZM42.7146 38.5352C42.1623 38.7711 41.8206 39.0453 41.5193 39.2872C41.3207 39.4464 41.1326 39.5969 40.9118 39.714C40.5561 39.9017 40.0361 39.9436 39.7422 39.4433C39.6589 39.3027 39.7172 39.0966 39.7977 38.8122C39.905 38.4343 40.0519 37.9171 39.9282 37.2425C39.8951 37.0625 39.8659 36.9082 39.8406 36.7746C39.7422 36.2539 39.7035 36.0581 39.7422 35.9023C39.7643 35.8162 39.8628 35.7969 39.9486 35.7969C39.9795 35.7971 40.0104 35.7994 40.041 35.8036C40.0878 35.963 40.1722 36.1089 40.2871 36.2289C40.4875 36.435 40.7663 36.5394 41.1154 36.5401C41.1892 36.5461 42.0273 36.5946 42.4 35.7526C42.4513 35.7589 42.5283 35.7772 42.5512 35.8334C42.5962 35.9456 42.5417 36.1467 42.4977 36.308C42.4661 36.4244 42.4387 36.5246 42.4404 36.6023C42.4513 37.1648 42.8271 37.4032 43.3485 37.7329C43.4114 37.7727 43.4772 37.8141 43.5436 37.8574C43.6101 37.9006 43.6445 37.9414 43.6445 37.9766C43.6262 38.145 42.9414 38.4392 42.7146 38.5359V38.5352Z" fill="#E8ECF2"/>
</g>
<defs>
<filter id="filter0_dd_10_2" x="0" y="0" width="114" height="64" filterUnits="userSpaceOnUse" color-interpolation-filters="sRGB">
<feFlood flood-opacity="0" result="BackgroundImageFix"/>
<feColorMatrix in="SourceAlpha" type="matrix" values="0 0 0 0 0 0 0 0 0 0 0 0 0 0 0 0 0 0 127 0" result="hardAlpha"/>
<feOffset dx="6" dy="6"/>
<feGaussianBlur stdDeviation="6"/>
<feComposite in2="hardAlpha" operator="out"/>
<feColorMatrix type="matrix" values="0 0 0 0 0.0235294 0 0 0 0 0.0313726 0 0 0 0 0.0431373 0 0 0 0.5 0"/>
<feBlend mode="normal" in2="BackgroundImageFix" result="effect1_dropShadow_10_2"/>
<feColorMatrix in="SourceAlpha" type="matrix" values="0 0 0 0 0 0 0 0 0 0 0 0 0 0 0 0 0 0 127 0" result="hardAlpha"/>
<feOffset dx="-6" dy="-6"/>
<feGaussianBlur stdDeviation="6"/>
<feComposite in2="hardAlpha" operator="out"/>
<feColorMatrix type="matrix" values="0 0 0 0 0.0784314 0 0 0 0 0.101961 0 0 0 0 0.137255 0 0 0 0.5 0"/>
<feBlend mode="normal" in2="effect1_dropShadow_10_2" result="effect2_dropShadow_10_2"/>
<feBlend mode="normal" in="SourceGraphic" in2="effect2_dropShadow_10_2" result="shape"/>
</filter>
</defs>
</svg>
