<svg width="149" height="64" viewBox="0 0 149 64" fill="none" xmlns="http://www.w3.org/2000/svg">
<g filter="url(#filter0_dd_12_112)">
<rect x="18" y="18" width="113" height="28" rx="7" fill="#0D1117"/>
<path d="M60.96 27.624V36H59.28V30.552L57.036 36H55.764L53.508 30.552V36H51.828V27.624H53.736L56.4 33.852L59.064 27.624H60.96ZM67.757 34.404H64.421L63.869 36H62.105L65.117 27.612H67.073L70.085 36H68.309L67.757 34.404ZM67.301 33.06L66.089 29.556L64.877 33.06H67.301ZM74.1028 36.084C73.5188 36.084 72.9908 35.984 72.5188 35.784C72.0548 35.584 71.6868 35.296 71.4148 34.92C71.1428 34.544 71.0028 34.1 70.9948 33.588H72.7948C72.8188 33.932 72.9388 34.204 73.1548 34.404C73.3788 34.604 73.6828 34.704 74.0668 34.704C74.4588 34.704 74.7668 34.612 74.9908 34.428C75.2148 34.236 75.3268 33.988 75.3268 33.684C75.3268 33.436 75.2508 33.232 75.0988 33.072C74.9468 32.912 74.7548 32.788 74.5228 32.7C74.2988 32.604 73.9868 32.5 73.5868 32.388C73.0428 32.228 72.5988 32.072 72.2548 31.92C71.9188 31.76 71.6268 31.524 71.3788 31.212C71.1388 30.892 71.0188 30.468 71.0188 29.94C71.0188 29.444 71.1428 29.012 71.3908 28.644C71.6388 28.276 71.9868 27.996 72.4348 27.804C72.8828 27.604 73.3948 27.504 73.9708 27.504C74.8348 27.504 75.5348 27.716 76.0708 28.14C76.6148 28.556 76.9148 29.14 76.9708 29.892H75.1228C75.1068 29.604 74.9828 29.368 74.7508 29.184C74.5268 28.992 74.2268 28.896 73.8508 28.896C73.5228 28.896 73.2588 28.98 73.0588 29.148C72.8668 29.316 72.7708 29.56 72.7708 29.88C72.7708 30.104 72.8428 30.292 72.9868 30.444C73.1388 30.588 73.3228 30.708 73.5388 30.804C73.7628 30.892 74.0748 30.996 74.4748 31.116C75.0188 31.276 75.4628 31.436 75.8068 31.596C76.1508 31.756 76.4468 31.996 76.6948 32.316C76.9428 32.636 77.0668 33.056 77.0668 33.576C77.0668 34.024 76.9508 34.44 76.7188 34.824C76.4868 35.208 76.1468 35.516 75.6988 35.748C75.2508 35.972 74.7188 36.084 74.1028 36.084ZM84.2233 27.624V28.98H81.9913V36H80.3113V28.98H78.0793V27.624H84.2233ZM89.3371 36.084C88.5531 36.084 87.8331 35.9 87.1771 35.532C86.5211 35.164 86.0011 34.656 85.6171 34.008C85.2331 33.352 85.0411 32.612 85.0411 31.788C85.0411 30.972 85.2331 30.24 85.6171 29.592C86.0011 28.936 86.5211 28.424 87.1771 28.056C87.8331 27.688 88.5531 27.504 89.3371 27.504C90.1291 27.504 90.8491 27.688 91.4971 28.056C92.1531 28.424 92.6691 28.936 93.0451 29.592C93.4291 30.24 93.6211 30.972 93.6211 31.788C93.6211 32.612 93.4291 33.352 93.0451 34.008C92.6691 34.656 92.1531 35.164 91.4971 35.532C90.8411 35.9 90.1211 36.084 89.3371 36.084ZM89.3371 34.584C89.8411 34.584 90.2851 34.472 90.6691 34.248C91.0531 34.016 91.3531 33.688 91.5691 33.264C91.7851 32.84 91.8931 32.348 91.8931 31.788C91.8931 31.228 91.7851 30.74 91.5691 30.324C91.3531 29.9 91.0531 29.576 90.6691 29.352C90.2851 29.128 89.8411 29.016 89.3371 29.016C88.8331 29.016 88.3851 29.128 87.9931 29.352C87.6091 29.576 87.3091 29.9 87.0931 30.324C86.8771 30.74 86.7691 31.228 86.7691 31.788C86.7691 32.348 86.8771 32.84 87.0931 33.264C87.3091 33.688 87.6091 34.016 87.9931 34.248C88.3851 34.472 88.8331 34.584 89.3371 34.584ZM97.799 27.624C98.679 27.624 99.451 27.796 100.115 28.14C100.787 28.484 101.303 28.976 101.663 29.616C102.031 30.248 102.215 30.984 102.215 31.824C102.215 32.664 102.031 33.4 101.663 34.032C101.303 34.656 100.787 35.14 100.115 35.484C99.451 35.828 98.679 36 97.799 36H94.871V27.624H97.799ZM97.739 34.572C98.619 34.572 99.299 34.332 99.779 33.852C100.259 33.372 100.499 32.696 100.499 31.824C100.499 30.952 100.259 30.272 99.779 29.784C99.299 29.288 98.619 29.04 97.739 29.04H96.551V34.572H97.739ZM107.361 36.084C106.577 36.084 105.857 35.9 105.201 35.532C104.545 35.164 104.025 34.656 103.641 34.008C103.257 33.352 103.065 32.612 103.065 31.788C103.065 30.972 103.257 30.24 103.641 29.592C104.025 28.936 104.545 28.424 105.201 28.056C105.857 27.688 106.577 27.504 107.361 27.504C108.153 27.504 108.873 27.688 109.521 28.056C110.177 28.424 110.693 28.936 111.069 29.592C111.453 30.24 111.645 30.972 111.645 31.788C111.645 32.612 111.453 33.352 111.069 34.008C110.693 34.656 110.177 35.164 109.521 35.532C108.865 35.9 108.145 36.084 107.361 36.084ZM107.361 34.584C107.865 34.584 108.309 34.472 108.693 34.248C109.077 34.016 109.377 33.688 109.593 33.264C109.809 32.84 109.917 32.348 109.917 31.788C109.917 31.228 109.809 30.74 109.593 30.324C109.377 29.9 109.077 29.576 108.693 29.352C108.309 29.128 107.865 29.016 107.361 29.016C106.857 29.016 106.409 29.128 106.017 29.352C105.633 29.576 105.333 29.9 105.117 30.324C104.901 30.74 104.793 31.228 104.793 31.788C104.793 32.348 104.901 32.84 105.117 33.264C105.333 33.688 105.633 34.016 106.017 34.248C106.409 34.472 106.857 34.584 107.361 34.584ZM120.058 36H118.378L114.574 30.252V36H112.894V27.612H114.574L118.378 33.372V27.612H120.058V36Z" fill="#E8ECF2"/>
<path d="M44.875 29.1028C44.875 25.442 42.4752 24.369 42.4752 24.369C41.2644 23.8139 39.1867 23.5801 37.0281 23.5625H36.975C34.8164 23.5801 32.7401 23.8139 31.53 24.369C31.53 24.369 29.1299 25.442 29.1299 29.1028C29.1299 29.9412 29.1137 30.9432 29.1401 32.0063C29.2273 35.5859 29.7968 39.1146 33.1089 39.9907C34.6357 40.3946 35.9471 40.479 37.0028 40.421C38.9178 40.3155 39.9911 39.7382 39.9911 39.7382L39.9282 38.3496C39.9282 38.3496 38.5595 38.7809 37.0228 38.7282C35.5002 38.6762 33.8939 38.564 33.6478 36.6958C33.6241 36.5222 33.6123 36.3472 33.6127 36.172C34.727 36.4207 35.8608 36.5719 37.0014 36.6237C38.1598 36.6768 39.2458 36.5559 40.349 36.4244C42.4647 36.172 44.3069 34.8691 44.5382 33.6791C44.9045 31.8038 44.875 29.1028 44.875 29.1028ZM42.0435 33.8193H40.2857V29.5173C40.2857 28.6102 39.9039 28.15 39.1403 28.15C38.2965 28.15 37.8726 28.696 37.8726 29.7757V32.1311H36.1267V29.7757C36.1267 28.696 35.7048 28.15 34.859 28.15C34.0954 28.15 33.7136 28.6102 33.7136 29.5173V33.8193H31.9558V29.3868C31.9558 28.481 32.1872 27.7616 32.6501 27.2286C33.1282 26.696 33.754 26.4228 34.5313 26.4228C35.4306 26.4228 36.1116 26.768 36.5616 27.4592L37 28.1922L37.4377 27.4592C37.888 26.768 38.5687 26.4228 39.468 26.4228C40.2453 26.4228 40.871 26.696 41.3492 27.2286C41.813 27.7611 42.0444 28.4805 42.0435 29.3868V33.8193Z" fill="#E8ECF2"/>
</g>
<defs>
<filter id="filter0_dd_12_112" x="0" y="0" width="149" height="64" filterUnits="userSpaceOnUse" color-interpolation-filters="sRGB">
<feFlood flood-opacity="0" result="BackgroundImageFix"/>
<feColorMatrix in="SourceAlpha" type="matrix" values="0 0 0 0 0 0 0 0 0 0 0 0 0 0 0 0 0 0 127 0" result="hardAlpha"/>
<feOffset dx="6" dy="6"/>
<feGaussianBlur stdDeviation="6"/>
<feComposite in2="hardAlpha" operator="out"/>
<feColorMatrix type="matrix" values="0 0 0 0 0.0235294 0 0 0 0 0.0313726 0 0 0 0 0.0431373 0 0 0 0.5 0"/>
<feBlend mode="normal" in2="BackgroundImageFix" result="effect1_dropShadow_12_112"/>
<feColorMatrix in="SourceAlpha" type="matrix" values="0 0 0 0 0 0 0 0 0 0 0 0 0 0 0 0 0 0 127 0" result="hardAlpha"/>
<feOffset dx="-6" dy="-6"/>
<feGaussianBlur stdDeviation="6"/>
<feComposite in2="hardAlpha" operator="out"/>
<feColorMatrix type="matrix" values="0 0 0 0 0.0784314 0 0 0 0 0.101961 0 0 0 0 0.137255 0 0 0 0.5 0"/>
<feBlend mode="normal" in2="effect1_dropShadow_12_112" result="effect2_dropShadow_12_112"/>
<feBlend mode="normal" in="SourceGraphic" in2="effect2_dropShadow_12_112" result="shape"/>
</filter>
</defs>
</svg>
