<svg width="127" height="64" viewBox="0 0 127 64" fill="none" xmlns="http://www.w3.org/2000/svg">
<g filter="url(#filter0_dd_12_117)">
<rect x="18" y="18" width="91" height="28" rx="7" fill="#0D1117"/>
<path d="M58.992 36H57.312L53.508 30.252V36H51.828V27.612H53.508L57.312 33.372V27.612H58.992V36ZM64.5402 36.084C63.7562 36.084 63.0362 35.9 62.3802 35.532C61.7242 35.164 61.2042 34.656 60.8202 34.008C60.4362 33.352 60.2442 32.612 60.2442 31.788C60.2442 30.972 60.4362 30.24 60.8202 29.592C61.2042 28.936 61.7242 28.424 62.3802 28.056C63.0362 27.688 63.7562 27.504 64.5402 27.504C65.3322 27.504 66.0522 27.688 66.7002 28.056C67.3562 28.424 67.8722 28.936 68.2482 29.592C68.6322 30.24 68.8242 30.972 68.8242 31.788C68.8242 32.612 68.6322 33.352 68.2482 34.008C67.8722 34.656 67.3562 35.164 66.7002 35.532C66.0442 35.9 65.3242 36.084 64.5402 36.084ZM64.5402 34.584C65.0442 34.584 65.4882 34.472 65.8722 34.248C66.2562 34.016 66.5562 33.688 66.7722 33.264C66.9882 32.84 67.0962 32.348 67.0962 31.788C67.0962 31.228 66.9882 30.74 66.7722 30.324C66.5562 29.9 66.2562 29.576 65.8722 29.352C65.4882 29.128 65.0442 29.016 64.5402 29.016C64.0362 29.016 63.5882 29.128 63.1962 29.352C62.8122 29.576 62.5122 29.9 62.2962 30.324C62.0802 30.74 61.9722 31.228 61.9722 31.788C61.9722 32.348 62.0802 32.84 62.2962 33.264C62.5122 33.688 62.8122 34.016 63.1962 34.248C63.5882 34.472 64.0362 34.584 64.5402 34.584ZM73.0021 27.624C73.8821 27.624 74.6541 27.796 75.3181 28.14C75.9901 28.484 76.5061 28.976 76.8661 29.616C77.2341 30.248 77.4181 30.984 77.4181 31.824C77.4181 32.664 77.2341 33.4 76.8661 34.032C76.5061 34.656 75.9901 35.14 75.3181 35.484C74.6541 35.828 73.8821 36 73.0021 36H70.0741V27.624H73.0021ZM72.9421 34.572C73.8221 34.572 74.5021 34.332 74.9821 33.852C75.4621 33.372 75.7021 32.696 75.7021 31.824C75.7021 30.952 75.4621 30.272 74.9821 29.784C74.5021 29.288 73.8221 29.04 72.9421 29.04H71.7541V34.572H72.9421ZM80.3557 28.98V31.08H83.1757V32.412H80.3557V34.632H83.5357V36H78.6757V27.612H83.5357V28.98H80.3557ZM89.9464 27.624V33.504C89.9464 34.32 89.7104 34.956 89.2384 35.412C88.7664 35.86 88.1344 36.084 87.3424 36.084C86.5424 36.084 85.8944 35.852 85.3984 35.388C84.9104 34.924 84.6664 34.276 84.6664 33.444H86.3464C86.3544 33.804 86.4384 34.084 86.5984 34.284C86.7664 34.484 87.0064 34.584 87.3184 34.584C87.6224 34.584 87.8544 34.488 88.0144 34.296C88.1744 34.104 88.2544 33.84 88.2544 33.504V27.624H89.9464ZM94.7981 36.084C94.2141 36.084 93.6861 35.984 93.2141 35.784C92.7501 35.584 92.3821 35.296 92.1101 34.92C91.8381 34.544 91.6981 34.1 91.6901 33.588H93.4901C93.5141 33.932 93.6341 34.204 93.8501 34.404C94.0741 34.604 94.3781 34.704 94.7621 34.704C95.1541 34.704 95.4621 34.612 95.6861 34.428C95.9101 34.236 96.0221 33.988 96.0221 33.684C96.0221 33.436 95.9461 33.232 95.7941 33.072C95.6421 32.912 95.4501 32.788 95.2181 32.7C94.9941 32.604 94.6821 32.5 94.2821 32.388C93.7381 32.228 93.2941 32.072 92.9501 31.92C92.6141 31.76 92.3221 31.524 92.0741 31.212C91.8341 30.892 91.7141 30.468 91.7141 29.94C91.7141 29.444 91.8381 29.012 92.0861 28.644C92.3341 28.276 92.6821 27.996 93.1301 27.804C93.5781 27.604 94.0901 27.504 94.6661 27.504C95.5301 27.504 96.2301 27.716 96.7661 28.14C97.3101 28.556 97.6101 29.14 97.6661 29.892H95.8181C95.8021 29.604 95.6781 29.368 95.4461 29.184C95.2221 28.992 94.9221 28.896 94.5461 28.896C94.2181 28.896 93.9541 28.98 93.7541 29.148C93.5621 29.316 93.4661 29.56 93.4661 29.88C93.4661 30.104 93.5381 30.292 93.6821 30.444C93.8341 30.588 94.0181 30.708 94.2341 30.804C94.4581 30.892 94.7701 30.996 95.1701 31.116C95.7141 31.276 96.1581 31.436 96.5021 31.596C96.8461 31.756 97.1421 31.996 97.3901 32.316C97.6381 32.636 97.7621 33.056 97.7621 33.576C97.7621 34.024 97.6461 34.44 97.4141 34.824C97.1821 35.208 96.8421 35.516 96.3941 35.748C95.9461 35.972 95.4141 36.084 94.7981 36.084Z" fill="#E8ECF2"/>
<path d="M43.1088 27.5728L37.6444 24.2955C37.4482 24.1836 37.2261 24.1248 37.0002 24.1248C36.7743 24.1248 36.5522 24.1836 36.356 24.2955L30.8913 27.5724C30.6943 27.6931 30.5319 27.8625 30.4195 28.0643C30.3072 28.2661 30.2488 28.4935 30.25 28.7245V35.2695C30.2488 35.5006 30.3072 35.7281 30.4195 35.9301C30.5319 36.1321 30.6943 36.3017 30.8913 36.4226L32.3242 37.2783L32.3323 37.2829C33.0558 37.6531 33.3329 37.6531 33.6538 37.6531C34.7838 37.6531 35.4858 36.9219 35.4858 35.7445V29.3984C35.4865 29.3192 35.4557 29.2429 35.4002 29.1864C35.3447 29.1298 35.269 29.0976 35.1898 29.0968H34.403C34.3238 29.0976 34.2481 29.1298 34.1926 29.1864C34.1372 29.2429 34.1064 29.3192 34.107 29.3984V35.7445C34.1099 35.8353 34.0892 35.9254 34.047 36.0059C34.0048 36.0864 33.9425 36.1546 33.8662 36.204C33.6588 36.3305 33.3575 36.3038 33.0175 36.1284L31.6443 35.3019C31.6391 35.2983 31.6348 35.2935 31.6318 35.2878C31.6289 35.2822 31.6274 35.2759 31.6274 35.2695V28.8169C31.6277 28.8095 31.6297 28.8023 31.6333 28.7958C31.6369 28.7893 31.642 28.7838 31.6482 28.7797L36.9863 25.5101C36.9903 25.5082 36.9947 25.5071 36.9991 25.5071C37.0036 25.5071 37.008 25.5082 37.012 25.5101L42.3533 28.7797C42.3593 28.7841 42.3643 28.7899 42.3676 28.7967C42.371 28.8034 42.3727 28.8108 42.3726 28.8183V35.2695C42.3727 35.2762 42.3714 35.2828 42.3686 35.2889C42.3659 35.295 42.3619 35.3004 42.3568 35.3047L37.0109 38.4916C37.0018 38.4948 36.9919 38.4948 36.9828 38.4916L35.6177 37.6809C35.5771 37.6544 35.5303 37.6391 35.482 37.6366C35.4336 37.634 35.3855 37.6444 35.3424 37.6665L35.3304 37.6735C34.9536 37.8967 34.8523 37.9548 34.5029 38.082C34.4459 38.1028 34.312 38.1523 34.3004 38.2849C34.2888 38.4174 34.416 38.5116 34.5292 38.5774L36.3538 39.6978C36.5483 39.8143 36.7706 39.8759 36.9972 39.876H37.0176C37.2385 39.8726 37.4547 39.8111 37.6444 39.6978L43.1088 36.4237C43.3056 36.3024 43.468 36.1325 43.5803 35.9304C43.6926 35.7283 43.751 35.5007 43.75 35.2695V28.7245C43.7511 28.4936 43.6927 28.2663 43.5804 28.0646C43.4681 27.8628 43.3056 27.6934 43.1088 27.5728Z" fill="#E8ECF2"/>
<path d="M38.8239 34.1814C37.5129 34.1814 37.2334 33.8151 37.1504 33.2238C37.1411 33.1534 37.1068 33.0887 37.0538 33.0414C37.0007 32.9942 36.9325 32.9676 36.8615 32.9664H36.1654C36.0869 32.9681 36.0123 33.0008 35.9579 33.0573C35.9035 33.1138 35.8737 33.1896 35.875 33.2681C35.875 33.7807 36.055 35.4537 38.8253 35.4537C39.6824 35.4537 40.3954 35.2534 40.8865 34.874C41.3776 34.4947 41.6406 33.9427 41.6406 33.285C41.6406 31.9648 40.7793 31.6034 39.083 31.3672C37.3586 31.1274 37.3586 31.0054 37.3586 30.7382C37.3586 30.5459 37.3586 30.0956 38.6052 30.0956C39.4922 30.0956 39.9672 30.2077 40.119 30.7987C40.1325 30.8642 40.1679 30.9232 40.2194 30.9658C40.271 31.0085 40.3355 31.0322 40.4024 31.0332H41.101C41.1421 31.0328 41.1827 31.0236 41.2201 31.0063C41.2574 30.9889 41.2906 30.9638 41.3175 30.9326C41.3712 30.87 41.398 30.7886 41.3921 30.7062C41.3017 29.4564 40.388 28.8226 38.6063 28.8226C36.987 28.8226 36.0205 29.5521 36.0205 30.7737C36.0205 32.1132 37.0221 32.4918 38.5268 32.6486C40.2846 32.8304 40.2846 33.0955 40.2846 33.3296C40.2857 33.6945 40.1342 34.1814 38.8239 34.1814Z" fill="#E8ECF2"/>
</g>
<defs>
<filter id="filter0_dd_12_117" x="0" y="0" width="127" height="64" filterUnits="userSpaceOnUse" color-interpolation-filters="sRGB">
<feFlood flood-opacity="0" result="BackgroundImageFix"/>
<feColorMatrix in="SourceAlpha" type="matrix" values="0 0 0 0 0 0 0 0 0 0 0 0 0 0 0 0 0 0 127 0" result="hardAlpha"/>
<feOffset dx="6" dy="6"/>
<feGaussianBlur stdDeviation="6"/>
<feComposite in2="hardAlpha" operator="out"/>
<feColorMatrix type="matrix" values="0 0 0 0 0.0235294 0 0 0 0 0.0313726 0 0 0 0 0.0431373 0 0 0 0.5 0"/>
<feBlend mode="normal" in2="BackgroundImageFix" result="effect1_dropShadow_12_117"/>
<feColorMatrix in="SourceAlpha" type="matrix" values="0 0 0 0 0 0 0 0 0 0 0 0 0 0 0 0 0 0 127 0" result="hardAlpha"/>
<feOffset dx="-6" dy="-6"/>
<feGaussianBlur stdDeviation="6"/>
<feComposite in2="hardAlpha" operator="out"/>
<feColorMatrix type="matrix" values="0 0 0 0 0.0784314 0 0 0 0 0.101961 0 0 0 0 0.137255 0 0 0 0.5 0"/>
<feBlend mode="normal" in2="effect1_dropShadow_12_117" result="effect2_dropShadow_12_117"/>
<feBlend mode="normal" in="SourceGraphic" in2="effect2_dropShadow_12_117" result="shape"/>
</filter>
</defs>
</svg>
