<svg width="106" height="64" viewBox="0 0 106 64" fill="none" xmlns="http://www.w3.org/2000/svg">
<g filter="url(#filter0_dd_12_122)">
<rect x="18" y="18" width="70" height="28" rx="7" fill="#0D1117"/>
<path d="M58.992 36H57.312L53.508 30.252V36H51.828V27.612H53.508L57.312 33.372V27.612H58.992V36ZM66.7602 30.216C66.7602 30.664 66.6522 31.084 66.4362 31.476C66.2282 31.868 65.8962 32.184 65.4402 32.424C64.9922 32.664 64.4242 32.784 63.7362 32.784H62.3322V36H60.6522V27.624H63.7362C64.3842 27.624 64.9362 27.736 65.3922 27.96C65.8482 28.184 66.1882 28.492 66.4122 28.884C66.6442 29.276 66.7602 29.72 66.7602 30.216ZM63.6642 31.428C64.1282 31.428 64.4722 31.324 64.6962 31.116C64.9202 30.9 65.0322 30.6 65.0322 30.216C65.0322 29.4 64.5762 28.992 63.6642 28.992H62.3322V31.428H63.6642ZM77.085 27.624V36H75.405V30.552L73.161 36H71.889L69.633 30.552V36H67.953V27.624H69.861L72.525 33.852L75.189 27.624H77.085Z" fill="#E8ECF2"/>
<path d="M36.0016 30.4918H37V32.4992H36.0016V30.4918Z" fill="#E8ECF2"/>
<path d="M28 28.4844V34.5102H32.9992V35.5156H37V34.5102H46V28.4844H28ZM32.9992 33.5082H32.0008V30.4953H30.9988V33.5082H28.9984V29.4898H32.9992V33.5082ZM37.9984 33.5082H35.998V34.5137H33.9977V29.4898H37.9984V33.5082ZM45.0016 33.5082H44.0031V30.4953H43.0047V33.5082H42.0062V30.4953H41.0078V33.5082H39.0074V29.4898H45.0086V33.5082H45.0016Z" fill="#E8ECF2"/>
</g>
<defs>
<filter id="filter0_dd_12_122" x="0" y="0" width="106" height="64" filterUnits="userSpaceOnUse" color-interpolation-filters="sRGB">
<feFlood flood-opacity="0" result="BackgroundImageFix"/>
<feColorMatrix in="SourceAlpha" type="matrix" values="0 0 0 0 0 0 0 0 0 0 0 0 0 0 0 0 0 0 127 0" result="hardAlpha"/>
<feOffset dx="6" dy="6"/>
<feGaussianBlur stdDeviation="6"/>
<feComposite in2="hardAlpha" operator="out"/>
<feColorMatrix type="matrix" values="0 0 0 0 0.0235294 0 0 0 0 0.0313726 0 0 0 0 0.0431373 0 0 0 0.5 0"/>
<feBlend mode="normal" in2="BackgroundImageFix" result="effect1_dropShadow_12_122"/>
<feColorMatrix in="SourceAlpha" type="matrix" values="0 0 0 0 0 0 0 0 0 0 0 0 0 0 0 0 0 0 127 0" result="hardAlpha"/>
<feOffset dx="-6" dy="-6"/>
<feGaussianBlur stdDeviation="6"/>
<feComposite in2="hardAlpha" operator="out"/>
<feColorMatrix type="matrix" values="0 0 0 0 0.0784314 0 0 0 0 0.101961 0 0 0 0 0.137255 0 0 0 0.5 0"/>
<feBlend mode="normal" in2="effect1_dropShadow_12_122" result="effect2_dropShadow_12_122"/>
<feBlend mode="normal" in="SourceGraphic" in2="effect2_dropShadow_12_122" result="shape"/>
</filter>
</defs>
</svg>
