<svg width="124" height="64" viewBox="0 0 124 64" fill="none" xmlns="http://www.w3.org/2000/svg">
<g filter="url(#filter0_dd_12_147)">
<rect x="18" y="18" width="88" height="28" rx="7" fill="#0D1117"/>
<path d="M57.936 30.216C57.936 30.664 57.828 31.084 57.612 31.476C57.404 31.868 57.072 32.184 56.616 32.424C56.168 32.664 55.6 32.784 54.912 32.784H53.508V36H51.828V27.624H54.912C55.56 27.624 56.112 27.736 56.568 27.96C57.024 28.184 57.364 28.492 57.588 28.884C57.82 29.276 57.936 29.72 57.936 30.216ZM54.84 31.428C55.304 31.428 55.648 31.324 55.872 31.116C56.096 30.9 56.208 30.6 56.208 30.216C56.208 29.4 55.752 28.992 54.84 28.992H53.508V31.428H54.84ZM64.2648 34.404H60.9288L60.3768 36H58.6128L61.6248 27.612H63.5808L66.5928 36H64.8168L64.2648 34.404ZM63.8088 33.06L62.5968 29.556L61.3848 33.06H63.8088ZM74.3786 27.624L71.5466 33.084V36H69.8666V33.084L67.0226 27.624H68.9186L70.7186 31.452L72.5066 27.624H74.3786ZM81.4555 30.216C81.4555 30.664 81.3475 31.084 81.1315 31.476C80.9235 31.868 80.5915 32.184 80.1355 32.424C79.6875 32.664 79.1195 32.784 78.4315 32.784H77.0275V36H75.3475V27.624H78.4315C79.0795 27.624 79.6315 27.736 80.0875 27.96C80.5435 28.184 80.8835 28.492 81.1075 28.884C81.3395 29.276 81.4555 29.72 81.4555 30.216ZM78.3595 31.428C78.8235 31.428 79.1675 31.324 79.3915 31.116C79.6155 30.9 79.7275 30.6 79.7275 30.216C79.7275 29.4 79.2715 28.992 78.3595 28.992H77.0275V31.428H78.3595ZM87.7843 34.404H84.4483L83.8963 36H82.1323L85.1443 27.612H87.1003L90.1123 36H88.3363L87.7843 34.404ZM87.3283 33.06L86.1163 29.556L84.9043 33.06H87.3283ZM92.9182 34.668H95.6782V36H91.2382V27.624H92.9182V34.668Z" fill="#E8ECF2"/>
<path d="M42.9347 28.2309C42.9196 28.3279 42.9021 28.4271 42.8824 28.529C42.2084 31.9743 39.9025 33.1626 36.9571 33.1626H35.4577C35.2842 33.1622 35.1163 33.2238 34.9843 33.3364C34.8524 33.449 34.765 33.6051 34.7381 33.7764L33.9703 38.6224L33.753 39.9959C33.7452 40.0456 33.7472 40.0962 33.7591 40.145C33.7709 40.1939 33.7922 40.2399 33.8218 40.2804C33.8514 40.321 33.8888 40.3553 33.9317 40.3814C33.9746 40.4075 34.0222 40.4249 34.0719 40.4326C34.0916 40.4357 34.1116 40.4372 34.1316 40.4371H36.7912C36.9433 40.4376 37.0906 40.3838 37.2066 40.2854C37.3226 40.187 37.3997 40.0505 37.424 39.9003L37.45 39.7657L37.9506 36.6016L37.9826 36.4279C38.0066 36.2775 38.0836 36.1407 38.1996 36.042C38.3157 35.9434 38.4632 35.8895 38.6154 35.89H39.0131C41.59 35.89 43.6069 34.8487 44.1965 31.8358C44.4426 30.5772 44.3153 29.5264 43.6635 28.7871C43.4563 28.559 43.2094 28.3706 42.9347 28.2309Z" fill="#E8ECF2"/>
<path d="M41.5534 24.7961C40.7913 23.9323 39.4156 23.5625 37.655 23.5625H32.5439C32.3701 23.5621 32.2018 23.6238 32.0694 23.7364C31.937 23.8491 31.8492 24.0054 31.8218 24.177L29.6931 37.6067C29.6842 37.6635 29.6865 37.7216 29.7001 37.7775C29.7136 37.8334 29.738 37.8861 29.772 37.9325C29.8059 37.979 29.8487 38.0183 29.8978 38.0481C29.947 38.078 30.0015 38.0979 30.0584 38.1066C30.081 38.1102 30.1038 38.1119 30.1266 38.1119H33.2822L34.0747 33.1095L34.05 33.2663C34.077 33.095 34.1643 32.9389 34.2963 32.8263C34.4283 32.7137 34.5962 32.6521 34.7697 32.6525H36.2691C39.2141 32.6525 41.52 31.4621 42.1943 28.0189C42.2144 27.917 42.2313 27.8178 42.2467 27.7208C42.4471 26.4474 42.245 25.5808 41.5534 24.7961Z" fill="#E8ECF2"/>
</g>
<defs>
<filter id="filter0_dd_12_147" x="0" y="0" width="124" height="64" filterUnits="userSpaceOnUse" color-interpolation-filters="sRGB">
<feFlood flood-opacity="0" result="BackgroundImageFix"/>
<feColorMatrix in="SourceAlpha" type="matrix" values="0 0 0 0 0 0 0 0 0 0 0 0 0 0 0 0 0 0 127 0" result="hardAlpha"/>
<feOffset dx="6" dy="6"/>
<feGaussianBlur stdDeviation="6"/>
<feComposite in2="hardAlpha" operator="out"/>
<feColorMatrix type="matrix" values="0 0 0 0 0.0235294 0 0 0 0 0.0313726 0 0 0 0 0.0431373 0 0 0 0.5 0"/>
<feBlend mode="normal" in2="BackgroundImageFix" result="effect1_dropShadow_12_147"/>
<feColorMatrix in="SourceAlpha" type="matrix" values="0 0 0 0 0 0 0 0 0 0 0 0 0 0 0 0 0 0 127 0" result="hardAlpha"/>
<feOffset dx="-6" dy="-6"/>
<feGaussianBlur stdDeviation="6"/>
<feComposite in2="hardAlpha" operator="out"/>
<feColorMatrix type="matrix" values="0 0 0 0 0.0784314 0 0 0 0 0.101961 0 0 0 0 0.137255 0 0 0 0.5 0"/>
<feBlend mode="normal" in2="effect1_dropShadow_12_147" result="effect2_dropShadow_12_147"/>
<feBlend mode="normal" in="SourceGraphic" in2="effect2_dropShadow_12_147" result="shape"/>
</filter>
</defs>
</svg>
