<svg width="128" height="64" viewBox="0 0 128 64" fill="none" xmlns="http://www.w3.org/2000/svg">
<g filter="url(#filter0_dd_12_154)">
<rect x="18" y="18" width="92" height="28" rx="7" fill="#0D1117"/>
<path d="M57.936 30.216C57.936 30.664 57.828 31.084 57.612 31.476C57.404 31.868 57.072 32.184 56.616 32.424C56.168 32.664 55.6 32.784 54.912 32.784H53.508V36H51.828V27.624H54.912C55.56 27.624 56.112 27.736 56.568 27.96C57.024 28.184 57.364 28.492 57.588 28.884C57.82 29.276 57.936 29.72 57.936 30.216ZM54.84 31.428C55.304 31.428 55.648 31.324 55.872 31.116C56.096 30.9 56.208 30.6 56.208 30.216C56.208 29.4 55.752 28.992 54.84 28.992H53.508V31.428H54.84ZM65.7888 27.624L62.9568 33.084V36H61.2768V33.084L58.4328 27.624H60.3288L62.1288 31.452L63.9168 27.624H65.7888ZM72.4577 27.624V28.98H70.2257V36H68.5457V28.98H66.3137V27.624H72.4577ZM80.6315 27.624V36H78.9515V32.436H75.3635V36H73.6835V27.624H75.3635V31.068H78.9515V27.624H80.6315ZM86.173 36.084C85.389 36.084 84.669 35.9 84.013 35.532C83.357 35.164 82.837 34.656 82.453 34.008C82.069 33.352 81.877 32.612 81.877 31.788C81.877 30.972 82.069 30.24 82.453 29.592C82.837 28.936 83.357 28.424 84.013 28.056C84.669 27.688 85.389 27.504 86.173 27.504C86.965 27.504 87.685 27.688 88.333 28.056C88.989 28.424 89.505 28.936 89.881 29.592C90.265 30.24 90.457 30.972 90.457 31.788C90.457 32.612 90.265 33.352 89.881 34.008C89.505 34.656 88.989 35.164 88.333 35.532C87.677 35.9 86.957 36.084 86.173 36.084ZM86.173 34.584C86.677 34.584 87.121 34.472 87.505 34.248C87.889 34.016 88.189 33.688 88.405 33.264C88.621 32.84 88.729 32.348 88.729 31.788C88.729 31.228 88.621 30.74 88.405 30.324C88.189 29.9 87.889 29.576 87.505 29.352C87.121 29.128 86.677 29.016 86.173 29.016C85.669 29.016 85.221 29.128 84.829 29.352C84.445 29.576 84.145 29.9 83.929 30.324C83.713 30.74 83.605 31.228 83.605 31.788C83.605 32.348 83.713 32.84 83.929 33.264C84.145 33.688 84.445 34.016 84.829 34.248C85.221 34.472 85.669 34.584 86.173 34.584ZM98.8709 36H97.1909L93.3869 30.252V36H91.7069V27.612H93.3869L97.1909 33.372V27.612H98.8709V36Z" fill="#E8ECF2"/>
<path d="M39.0391 24.279C38.3855 24.1714 37.4289 24.1218 36.7796 24.125C36.171 24.1257 35.5635 24.1772 34.9634 24.279C33.3554 24.5602 33.0625 25.1473 33.0625 26.2316V27.5H37V28.0625H31.7835C30.3224 28.0625 29.1366 29.8087 29.125 31.9691V32C29.1245 32.3777 29.1614 32.7545 29.235 33.125C29.5616 34.752 30.5791 35.9375 31.7835 35.9375H32.5V34.0391C32.5 32.9387 33.2327 31.9314 34.4336 31.7152L34.7806 31.672H39.0391C39.2179 31.6727 39.396 31.649 39.5685 31.6017C39.9628 31.4964 40.3111 31.2633 40.5588 30.9389C40.8066 30.6145 40.9397 30.2172 40.9375 29.8091V26.2316C40.9375 25.2148 40.0698 24.4481 39.0391 24.279ZM34.853 26.709C34.7112 26.7095 34.5724 26.6678 34.4542 26.5893C34.3361 26.5108 34.2439 26.399 34.1894 26.268C34.1349 26.1371 34.1205 25.9929 34.1481 25.8537C34.1756 25.7146 34.2439 25.5868 34.3442 25.4865C34.4445 25.3862 34.5723 25.3179 34.7114 25.2904C34.8506 25.2628 34.9948 25.2772 35.1257 25.3317C35.2567 25.3862 35.3685 25.4784 35.447 25.5965C35.5255 25.7147 35.5672 25.8535 35.5667 25.9953C35.5667 26.089 35.5483 26.1819 35.5125 26.2685C35.4766 26.3551 35.424 26.4338 35.3578 26.5C35.2915 26.5663 35.2128 26.6189 35.1262 26.6547C35.0396 26.6906 34.9467 26.709 34.853 26.709Z" fill="#E8ECF2"/>
<path d="M44.7091 30.6289C44.3329 29.1309 43.3587 28.0625 42.2165 28.0625H41.5939V29.7307C41.5939 31.1218 40.6798 32.129 39.5639 32.3016C39.4512 32.3191 39.3373 32.3279 39.2233 32.328H34.9638C34.7831 32.3278 34.6031 32.3509 34.4283 32.3966C33.644 32.6026 33.0625 33.2551 33.0625 34.1013V37.6791C33.0625 38.6987 34.087 39.2963 35.0921 39.5885C36.2948 39.9383 37.605 40.0016 39.0443 39.5885C40.0002 39.3153 40.9375 38.763 40.9375 37.6791V36.5H37V35.9375H42.2165C43.2515 35.9375 44.1483 35.0611 44.5878 33.7821C44.7808 33.2079 44.8778 32.6058 44.875 32C44.876 31.5379 44.8203 31.0774 44.7091 30.6289ZM39.1273 37.2031C39.2692 37.2026 39.4079 37.2443 39.5261 37.3228C39.6442 37.4013 39.7364 37.5131 39.7909 37.6441C39.8454 37.775 39.8598 37.9192 39.8323 38.0584C39.8047 38.1975 39.7364 38.3253 39.6361 38.4256C39.5358 38.5259 39.408 38.5942 39.2689 38.6217C39.1297 38.6493 38.9855 38.6349 38.8546 38.5804C38.7236 38.5259 38.6118 38.4337 38.5333 38.3156C38.4548 38.1974 38.4131 38.0586 38.4136 37.9168C38.4136 37.8231 38.432 37.7302 38.4679 37.6436C38.5037 37.557 38.5563 37.4783 38.6226 37.4121C38.6888 37.3458 38.7675 37.2932 38.8541 37.2574C38.9407 37.2215 39.0336 37.2031 39.1273 37.2031Z" fill="#E8ECF2"/>
</g>
<defs>
<filter id="filter0_dd_12_154" x="0" y="0" width="128" height="64" filterUnits="userSpaceOnUse" color-interpolation-filters="sRGB">
<feFlood flood-opacity="0" result="BackgroundImageFix"/>
<feColorMatrix in="SourceAlpha" type="matrix" values="0 0 0 0 0 0 0 0 0 0 0 0 0 0 0 0 0 0 127 0" result="hardAlpha"/>
<feOffset dx="6" dy="6"/>
<feGaussianBlur stdDeviation="6"/>
<feComposite in2="hardAlpha" operator="out"/>
<feColorMatrix type="matrix" values="0 0 0 0 0.0235294 0 0 0 0 0.0313726 0 0 0 0 0.0431373 0 0 0 0.5 0"/>
<feBlend mode="normal" in2="BackgroundImageFix" result="effect1_dropShadow_12_154"/>
<feColorMatrix in="SourceAlpha" type="matrix" values="0 0 0 0 0 0 0 0 0 0 0 0 0 0 0 0 0 0 127 0" result="hardAlpha"/>
<feOffset dx="-6" dy="-6"/>
<feGaussianBlur stdDeviation="6"/>
<feComposite in2="hardAlpha" operator="out"/>
<feColorMatrix type="matrix" values="0 0 0 0 0.0784314 0 0 0 0 0.101961 0 0 0 0 0.137255 0 0 0 0.5 0"/>
<feBlend mode="normal" in2="effect1_dropShadow_12_154" result="effect2_dropShadow_12_154"/>
<feBlend mode="normal" in="SourceGraphic" in2="effect2_dropShadow_12_154" result="shape"/>
</filter>
</defs>
</svg>
