<svg width="118" height="64" viewBox="0 0 118 64" fill="none" xmlns="http://www.w3.org/2000/svg">
<g filter="url(#filter0_dd_12_161)">
<rect x="18" y="18" width="82" height="28" rx="7" fill="#0D1117"/>
<path d="M56.148 36L54.3 32.736H53.508V36H51.828V27.624H54.972C55.62 27.624 56.172 27.74 56.628 27.972C57.084 28.196 57.424 28.504 57.648 28.896C57.88 29.28 57.996 29.712 57.996 30.192C57.996 30.744 57.836 31.244 57.516 31.692C57.196 32.132 56.72 32.436 56.088 32.604L58.092 36H56.148ZM53.508 31.476H54.912C55.368 31.476 55.708 31.368 55.932 31.152C56.156 30.928 56.268 30.62 56.268 30.228C56.268 29.844 56.156 29.548 55.932 29.34C55.708 29.124 55.368 29.016 54.912 29.016H53.508V31.476ZM61.1955 28.98V31.08H64.0155V32.412H61.1955V34.632H64.3755V36H59.5155V27.612H64.3755V28.98H61.1955ZM71.0382 34.404H67.7022L67.1502 36H65.3862L68.3982 27.612H70.3542L73.3662 36H71.5902L71.0382 34.404ZM70.5822 33.06L69.3702 29.556L68.1582 33.06H70.5822ZM74.0841 31.8C74.0841 30.976 74.2681 30.24 74.6361 29.592C75.0121 28.936 75.5201 28.428 76.1601 28.068C76.8081 27.7 77.5321 27.516 78.3321 27.516C79.2681 27.516 80.0881 27.756 80.7921 28.236C81.4961 28.716 81.9881 29.38 82.2681 30.228H80.3361C80.1441 29.828 79.8721 29.528 79.5201 29.328C79.1761 29.128 78.7761 29.028 78.3201 29.028C77.8321 29.028 77.3961 29.144 77.0121 29.376C76.6361 29.6 76.3401 29.92 76.1241 30.336C75.9161 30.752 75.8121 31.24 75.8121 31.8C75.8121 32.352 75.9161 32.84 76.1241 33.264C76.3401 33.68 76.6361 34.004 77.0121 34.236C77.3961 34.46 77.8321 34.572 78.3201 34.572C78.7761 34.572 79.1761 34.472 79.5201 34.272C79.8721 34.064 80.1441 33.76 80.3361 33.36H82.2681C81.9881 34.216 81.4961 34.884 80.7921 35.364C80.0961 35.836 79.2761 36.072 78.3321 36.072C77.5321 36.072 76.8081 35.892 76.1601 35.532C75.5201 35.164 75.0121 34.656 74.6361 34.008C74.2681 33.36 74.0841 32.624 74.0841 31.8ZM89.403 27.624V28.98H87.171V36H85.491V28.98H83.259V27.624H89.403Z" fill="#E8ECF2"/>
<path d="M42.4373 29.3534C42.2575 29.292 42.0764 29.2349 41.8941 29.1819C41.9243 29.0588 41.9522 28.9351 41.9778 28.8106C42.3891 26.8102 42.1202 25.1987 41.2022 24.6682C40.3233 24.1591 38.8819 24.6896 37.4279 25.9581C37.2849 26.0832 37.1448 26.2121 37.0077 26.3448C36.9163 26.2567 36.8226 26.1704 36.7265 26.086C35.2025 24.7297 33.6749 24.1584 32.758 24.6907C31.8791 25.2008 31.6179 26.7157 31.9881 28.6117C32.0252 28.7992 32.0668 28.9858 32.1129 29.1717C31.9028 29.2313 31.6945 29.2969 31.4882 29.3686C29.7037 29.9926 28.5625 30.971 28.5625 31.9856C28.5625 33.034 29.7873 34.0851 31.6482 34.7225C31.7991 34.7738 31.9514 34.8215 32.1052 34.8656C32.0553 35.0646 32.0111 35.2658 31.9727 35.4692C31.6211 37.3325 31.8953 38.8115 32.7725 39.3185C33.6784 39.842 35.1982 39.3041 36.6797 38.0068C36.7969 37.9042 36.9141 37.7958 37.0313 37.6816C37.1794 37.8248 37.3318 37.9638 37.4883 38.0986C38.9227 39.3354 40.3391 39.8349 41.2149 39.3266C42.1202 38.8013 42.4144 37.2123 42.0323 35.279C42.003 35.1314 41.9692 34.9807 41.931 34.8269C42.0379 34.7953 42.1425 34.7626 42.245 34.7288C44.1786 34.0865 45.4382 33.048 45.4382 31.9867C45.4375 30.9671 44.2598 29.9824 42.4373 29.3534ZM37.9021 26.503C39.1477 25.4163 40.3121 24.9874 40.8429 25.294C41.4079 25.6206 41.6276 26.9375 41.2725 28.6647C41.2491 28.7772 41.2238 28.8894 41.1966 29.0012C40.4533 28.8321 39.6995 28.7128 38.9403 28.644C38.5056 28.0178 38.0291 27.4217 37.514 26.8598C37.6401 26.7375 37.7692 26.6185 37.9014 26.503H37.9021ZM33.5452 32.8525C33.6978 33.1479 33.8573 33.4395 34.0237 33.7276C34.1931 34.0215 34.3697 34.3111 34.5535 34.5963C34.0311 34.5395 33.512 34.4558 32.9982 34.3456C33.1472 33.8633 33.3307 33.3623 33.5452 32.8525ZM33.5452 31.1534C33.3343 30.6546 33.1557 30.1638 33.0091 29.6899C33.4907 29.582 34.004 29.4937 34.5391 29.4269C34.3598 29.7068 34.1873 29.9907 34.0216 30.2788C33.8559 30.5668 33.6967 30.8584 33.5441 31.1534H33.5452ZM33.9284 32.0032C34.1506 31.5398 34.3899 31.0854 34.6463 30.6398C34.9025 30.1945 35.1752 29.7594 35.4644 29.3345C35.9664 29.2965 36.4811 29.2765 37.0011 29.2765C37.521 29.2765 38.0389 29.2965 38.5405 29.3348C38.8267 29.7588 39.0978 30.1924 39.3537 30.6356C39.6096 31.0788 39.8521 31.5311 40.0811 31.9926C39.8552 32.4576 39.6133 32.914 39.3555 33.3616C39.0998 33.8069 38.8302 34.2433 38.5469 34.6708C38.0459 34.706 37.5273 34.7253 37 34.7253C36.4727 34.7253 35.9639 34.7088 35.4721 34.6768C35.1808 34.2505 34.9059 33.8135 34.6473 33.3658C34.3888 32.9182 34.1488 32.464 33.9273 32.0032H33.9284ZM39.9795 33.7227C40.1494 33.4278 40.3125 33.1291 40.4689 32.8265C40.6832 33.3124 40.8723 33.809 41.0356 34.3143C40.5158 34.4314 39.9902 34.5212 39.4609 34.5833C39.6395 34.2999 39.8124 34.0131 39.9795 33.7227ZM40.4618 31.1538C40.3062 30.8573 40.1444 30.5643 39.9763 30.2749C39.8123 29.9894 39.6413 29.7075 39.4634 29.429C40.0016 29.4972 40.5181 29.5879 41.0022 29.6987C40.8465 30.1925 40.6662 30.6781 40.4618 31.1538ZM37.0081 27.3763C37.3591 27.7599 37.6906 28.1609 38.0013 28.5779C37.3368 28.5463 36.6719 28.5463 36.0065 28.5779C36.3345 28.1441 36.6702 27.7415 37.0081 27.3763ZM33.1209 25.3154C33.6855 24.9877 34.9339 25.456 36.2498 26.6257C36.3338 26.7006 36.4185 26.779 36.5029 26.8602C35.9852 27.422 35.5053 28.0176 35.0664 28.6429C34.3089 28.7112 33.5566 28.8286 32.8143 28.9945C32.7714 28.822 32.7327 28.6483 32.6983 28.4735C32.3801 26.8482 32.5907 25.623 33.1209 25.3154ZM32.2979 34.1695C32.1572 34.1294 32.0184 34.0859 31.8813 34.0391C31.0586 33.7578 30.379 33.3908 29.9125 32.9911C29.4948 32.6328 29.2832 32.2753 29.2832 31.9856C29.2832 31.37 30.1994 30.5846 31.7273 30.052C31.9192 29.9852 32.1128 29.9242 32.308 29.8688C32.535 30.5981 32.8098 31.3115 33.1307 32.0046C32.806 32.7072 32.5277 33.4304 32.2979 34.1695ZM36.2048 37.4626C35.5498 38.0363 34.8938 38.4431 34.3155 38.6481C33.7959 38.8319 33.3821 38.8372 33.1321 38.6927C32.5998 38.3851 32.3784 37.1972 32.6804 35.6039C32.7162 35.4164 32.7572 35.2289 32.8034 35.0414C33.5531 35.2029 34.313 35.3132 35.0777 35.3715C35.5208 36.0001 36.0047 36.5991 36.5261 37.1645C36.4213 37.2675 36.3141 37.3666 36.2048 37.4626ZM37.0281 36.6463C36.6864 36.2768 36.3454 35.8679 36.0128 35.4284C36.336 35.4411 36.6651 35.4474 37 35.4474C37.3438 35.4474 37.6841 35.44 38.0195 35.4249C37.71 35.8486 37.3791 36.2563 37.0281 36.6463ZM41.4058 37.6514C41.3052 38.1942 41.1031 38.5563 40.8531 38.7011C40.3212 39.0098 39.1839 38.6087 37.9577 37.5508C37.817 37.4299 37.6764 37.3002 37.5333 37.1641C38.0446 36.5965 38.5171 35.9951 38.9477 35.3641C39.7166 35.299 40.4801 35.1809 41.2328 35.0108C41.2673 35.15 41.2977 35.2864 41.3242 35.42C41.4933 36.2743 41.5176 37.047 41.4058 37.6514ZM42.0175 34.0429C41.9254 34.0735 41.8305 34.1031 41.7341 34.1319C41.4981 33.3992 41.2126 32.6834 40.8795 31.9895C41.2001 31.3048 41.4744 30.5994 41.7007 29.878C41.8734 29.9283 42.0411 29.981 42.2024 30.0369C43.7641 30.5755 44.7168 31.3728 44.7168 31.9856C44.7168 32.6395 43.6878 33.4882 42.0175 34.0429Z" fill="#E8ECF2"/>
<path d="M37 33.4959C37.2992 33.4969 37.592 33.409 37.8412 33.2435C38.0904 33.078 38.285 32.8423 38.4001 32.5661C38.5153 32.29 38.546 31.9859 38.4882 31.6923C38.4304 31.3987 38.2868 31.1289 38.0756 30.917C37.8644 30.7051 37.595 30.5606 37.3017 30.5019C37.0083 30.4432 36.7041 30.4728 36.4275 30.5871C36.151 30.7013 35.9146 30.8951 35.7483 31.1438C35.582 31.3925 35.4932 31.685 35.4932 31.9842C35.4928 32.1824 35.5314 32.3788 35.607 32.562C35.6825 32.7453 35.7934 32.9119 35.9333 33.0523C36.0732 33.1927 36.2395 33.3042 36.4225 33.3803C36.6055 33.4564 36.8018 33.4957 37 33.4959Z" fill="#E8ECF2"/>
</g>
<defs>
<filter id="filter0_dd_12_161" x="0" y="0" width="118" height="64" filterUnits="userSpaceOnUse" color-interpolation-filters="sRGB">
<feFlood flood-opacity="0" result="BackgroundImageFix"/>
<feColorMatrix in="SourceAlpha" type="matrix" values="0 0 0 0 0 0 0 0 0 0 0 0 0 0 0 0 0 0 127 0" result="hardAlpha"/>
<feOffset dx="6" dy="6"/>
<feGaussianBlur stdDeviation="6"/>
<feComposite in2="hardAlpha" operator="out"/>
<feColorMatrix type="matrix" values="0 0 0 0 0.0235294 0 0 0 0 0.0313726 0 0 0 0 0.0431373 0 0 0 0.5 0"/>
<feBlend mode="normal" in2="BackgroundImageFix" result="effect1_dropShadow_12_161"/>
<feColorMatrix in="SourceAlpha" type="matrix" values="0 0 0 0 0 0 0 0 0 0 0 0 0 0 0 0 0 0 127 0" result="hardAlpha"/>
<feOffset dx="-6" dy="-6"/>
<feGaussianBlur stdDeviation="6"/>
<feComposite in2="hardAlpha" operator="out"/>
<feColorMatrix type="matrix" values="0 0 0 0 0.0784314 0 0 0 0 0.101961 0 0 0 0 0.137255 0 0 0 0.5 0"/>
<feBlend mode="normal" in2="effect1_dropShadow_12_161" result="effect2_dropShadow_12_161"/>
<feBlend mode="normal" in="SourceGraphic" in2="effect2_dropShadow_12_161" result="shape"/>
</filter>
</defs>
</svg>
