<svg width="121" height="64" viewBox="0 0 121 64" fill="none" xmlns="http://www.w3.org/2000/svg">
<g filter="url(#filter0_dd_12_168)">
<rect x="18" y="18" width="85" height="28" rx="7" fill="#0D1117"/>
<path d="M56.148 36L54.3 32.736H53.508V36H51.828V27.624H54.972C55.62 27.624 56.172 27.74 56.628 27.972C57.084 28.196 57.424 28.504 57.648 28.896C57.88 29.28 57.996 29.712 57.996 30.192C57.996 30.744 57.836 31.244 57.516 31.692C57.196 32.132 56.72 32.436 56.088 32.604L58.092 36H56.148ZM53.508 31.476H54.912C55.368 31.476 55.708 31.368 55.932 31.152C56.156 30.928 56.268 30.62 56.268 30.228C56.268 29.844 56.156 29.548 55.932 29.34C55.708 29.124 55.368 29.016 54.912 29.016H53.508V31.476ZM61.1955 28.98V31.08H64.0155V32.412H61.1955V34.632H64.3755V36H59.5155V27.612H64.3755V28.98H61.1955ZM68.8302 27.624C69.7102 27.624 70.4822 27.796 71.1462 28.14C71.8182 28.484 72.3342 28.976 72.6942 29.616C73.0622 30.248 73.2462 30.984 73.2462 31.824C73.2462 32.664 73.0622 33.4 72.6942 34.032C72.3342 34.656 71.8182 35.14 71.1462 35.484C70.4822 35.828 69.7102 36 68.8302 36H65.9022V27.624H68.8302ZM68.7702 34.572C69.6502 34.572 70.3302 34.332 70.8102 33.852C71.2902 33.372 71.5302 32.696 71.5302 31.824C71.5302 30.952 71.2902 30.272 70.8102 29.784C70.3302 29.288 69.6502 29.04 68.7702 29.04H67.5822V34.572H68.7702ZM77.4318 27.624C78.3118 27.624 79.0838 27.796 79.7478 28.14C80.4198 28.484 80.9358 28.976 81.2958 29.616C81.6638 30.248 81.8478 30.984 81.8478 31.824C81.8478 32.664 81.6638 33.4 81.2958 34.032C80.9358 34.656 80.4198 35.14 79.7478 35.484C79.0838 35.828 78.3118 36 77.4318 36H74.5038V27.624H77.4318ZM77.3718 34.572C78.2518 34.572 78.9318 34.332 79.4118 33.852C79.8918 33.372 80.1318 32.696 80.1318 31.824C80.1318 30.952 79.8918 30.272 79.4118 29.784C78.9318 29.288 78.2518 29.04 77.3718 29.04H76.1838V34.572H77.3718ZM84.7853 27.624V36H83.1053V27.624H84.7853ZM92.1452 27.624V28.98H89.9132V36H88.2332V28.98H86.0012V27.624H92.1452Z" fill="#E8ECF2"/>
<path d="M39.3906 32C39.1403 32 38.8956 32.0742 38.6875 32.2133C38.4794 32.3524 38.3171 32.55 38.2213 32.7813C38.1255 33.0126 38.1005 33.267 38.1493 33.5125C38.1982 33.758 38.3187 33.9836 38.4957 34.1606C38.6727 34.3376 38.8982 34.4581 39.1437 34.5069C39.3892 34.5558 39.6437 34.5307 39.875 34.4349C40.1062 34.3391 40.3039 34.1769 40.443 33.9688C40.582 33.7606 40.6563 33.5159 40.6563 33.2656C40.6563 32.93 40.5229 32.608 40.2856 32.3707C40.0482 32.1333 39.7263 32 39.3906 32Z" fill="#E8ECF2"/>
<path d="M35.0938 34.4348C35.7396 34.1674 36.0463 33.427 35.7788 32.7812C35.5113 32.1355 34.7709 31.8288 34.1251 32.0963C33.4794 32.3638 33.1727 33.1041 33.4402 33.7499C33.7077 34.3957 34.448 34.7023 35.0938 34.4348Z" fill="#E8ECF2"/>
<path d="M45.4375 31.9216C45.4375 30.8251 44.5537 29.9332 43.4688 29.9332C43.0115 29.9331 42.5686 30.0931 42.2168 30.3853C40.9864 29.5496 39.3769 29.0381 37.6588 28.9344L38.4323 26.157L40.767 26.6211C40.8338 27.552 41.6107 28.2907 42.5477 28.2907C43.532 28.2907 44.3329 27.4821 44.3329 26.4903C44.3329 25.4986 43.5039 24.6875 42.5195 24.6875C41.8329 24.6875 41.243 25.0809 40.9428 25.6989L37.7787 25.07L36.6854 28.9203L36.5226 28.9249C34.7426 29.0026 33.0653 29.5201 31.7846 30.3849C31.4329 30.0916 30.9892 29.9317 30.5313 29.9332C29.4453 29.9332 28.5625 30.8251 28.5625 31.9216C28.561 32.2706 28.6515 32.6139 28.825 32.9167C28.9985 33.2195 29.2489 33.4712 29.5507 33.6464C29.5297 33.8018 29.5193 33.9585 29.5195 34.1154C29.5233 35.5125 30.3101 36.8224 31.7343 37.8068C33.1455 38.7771 35.014 39.3125 37 39.3125C38.986 39.3125 40.8588 38.7771 42.2675 37.8046C43.6923 36.8203 44.477 35.51 44.477 34.1111C44.4767 33.9548 44.4668 33.7987 44.4475 33.6436C44.7496 33.4692 45.0002 33.2181 45.174 32.9157C45.3479 32.6133 45.4388 32.2704 45.4375 31.9216ZM42.5547 25.6367C42.7216 25.6367 42.8847 25.6862 43.0235 25.7789C43.1622 25.8716 43.2704 26.0034 43.3342 26.1576C43.3981 26.3118 43.4148 26.4814 43.3822 26.6451C43.3497 26.8087 43.2693 26.9591 43.1513 27.0771C43.0333 27.1951 42.883 27.2755 42.7193 27.308C42.5556 27.3406 42.386 27.3239 42.2318 27.26C42.0776 27.1961 41.9459 27.088 41.8531 26.9492C41.7604 26.8105 41.7109 26.6473 41.7109 26.4805C41.7109 26.2567 41.7998 26.0421 41.9581 25.8838C42.1163 25.7256 42.3309 25.6367 42.5547 25.6367ZM29.5019 31.9216C29.5009 31.646 29.6092 31.3813 29.8031 31.1855C29.997 30.9897 30.2606 30.8788 30.5362 30.8771C30.7033 30.8775 30.8677 30.9189 31.015 30.9977C30.4701 31.5043 30.0682 32.0668 29.8172 32.6739C29.7177 32.5755 29.6386 32.4583 29.5845 32.3292C29.5304 32.2001 29.5023 32.0616 29.5019 31.9216ZM41.7398 37.0273C40.4833 37.8918 38.8007 38.3682 37.0018 38.3682C35.2028 38.3682 33.5195 37.8925 32.2641 37.0273C31.1039 36.2261 30.4627 35.1901 30.4627 34.1094C30.4633 33.7819 30.5223 33.4571 30.6367 33.1503C30.8364 32.597 31.2048 32.0787 31.7318 31.6108C31.8965 31.4654 32.0698 31.33 32.2507 31.2055L32.2613 31.1981L32.2697 31.1921C33.5255 30.3301 35.206 29.8562 37.0021 29.8562C38.7982 29.8562 40.4791 30.3311 41.7348 31.1921L41.7429 31.1981L41.7549 31.2069C41.9356 31.331 42.1088 31.4657 42.2734 31.6105C42.8008 32.0787 43.1692 32.5966 43.3689 33.1507C43.4414 33.3518 43.4922 33.56 43.5204 33.7719C43.5345 33.8844 43.5416 33.9977 43.5415 34.1111C43.5412 35.1911 42.9013 36.2272 41.7398 37.0273ZM44.1866 32.6708C43.936 32.0633 43.5341 31.5004 42.9889 30.9931C43.1368 30.9151 43.3015 30.8746 43.4688 30.875C43.7443 30.8767 44.0079 30.9876 44.2017 31.1834C44.3956 31.3792 44.5038 31.644 44.5027 31.9195C44.5024 32.0595 44.4744 32.1981 44.4201 32.3272C44.3659 32.4563 44.2865 32.5733 44.1866 32.6715V32.6708Z" fill="#E8ECF2"/>
<path d="M39.3636 35.7343C39.3548 35.7431 38.465 36.6508 37.0028 36.6579C35.5262 36.6508 34.6727 35.7709 34.6364 35.7343C34.6092 35.7073 34.5724 35.6921 34.534 35.6921C34.4956 35.6921 34.4587 35.7073 34.4315 35.7343L33.9498 36.2079C33.9362 36.2214 33.9253 36.2375 33.9179 36.2553C33.9105 36.2731 33.9067 36.2921 33.9067 36.3114C33.9067 36.3306 33.9105 36.3497 33.9179 36.3675C33.9253 36.3852 33.9362 36.4014 33.9498 36.4149C34.0694 36.5345 35.1698 37.6183 37.0007 37.6261C38.8267 37.6183 39.932 36.5345 40.0516 36.4149C40.0652 36.4013 40.0761 36.3852 40.0835 36.3674C40.0909 36.3496 40.0947 36.3305 40.0947 36.3112C40.0947 36.2919 40.0909 36.2728 40.0835 36.255C40.0761 36.2373 40.0652 36.2211 40.0516 36.2075L39.5696 35.7339C39.5424 35.707 39.5057 35.692 39.4674 35.692C39.4292 35.692 39.3925 35.707 39.3653 35.7339L39.3636 35.7343Z" fill="#E8ECF2"/>
</g>
<defs>
<filter id="filter0_dd_12_168" x="0" y="0" width="121" height="64" filterUnits="userSpaceOnUse" color-interpolation-filters="sRGB">
<feFlood flood-opacity="0" result="BackgroundImageFix"/>
<feColorMatrix in="SourceAlpha" type="matrix" values="0 0 0 0 0 0 0 0 0 0 0 0 0 0 0 0 0 0 127 0" result="hardAlpha"/>
<feOffset dx="6" dy="6"/>
<feGaussianBlur stdDeviation="6"/>
<feComposite in2="hardAlpha" operator="out"/>
<feColorMatrix type="matrix" values="0 0 0 0 0.0235294 0 0 0 0 0.0313726 0 0 0 0 0.0431373 0 0 0 0.5 0"/>
<feBlend mode="normal" in2="BackgroundImageFix" result="effect1_dropShadow_12_168"/>
<feColorMatrix in="SourceAlpha" type="matrix" values="0 0 0 0 0 0 0 0 0 0 0 0 0 0 0 0 0 0 127 0" result="hardAlpha"/>
<feOffset dx="-6" dy="-6"/>
<feGaussianBlur stdDeviation="6"/>
<feComposite in2="hardAlpha" operator="out"/>
<feColorMatrix type="matrix" values="0 0 0 0 0.0784314 0 0 0 0 0.101961 0 0 0 0 0.137255 0 0 0 0.5 0"/>
<feBlend mode="normal" in2="effect1_dropShadow_12_168" result="effect2_dropShadow_12_168"/>
<feBlend mode="normal" in="SourceGraphic" in2="effect2_dropShadow_12_168" result="shape"/>
</filter>
</defs>
</svg>
