<svg width="110" height="64" viewBox="0 0 110 64" fill="none" xmlns="http://www.w3.org/2000/svg">
<g filter="url(#filter0_dd_12_175)">
<rect x="18" y="18" width="74" height="28" rx="7" fill="#0D1117"/>
<path d="M54.72 36.084C54.136 36.084 53.608 35.984 53.136 35.784C52.672 35.584 52.304 35.296 52.032 34.92C51.76 34.544 51.62 34.1 51.612 33.588H53.412C53.436 33.932 53.556 34.204 53.772 34.404C53.996 34.604 54.3 34.704 54.684 34.704C55.076 34.704 55.384 34.612 55.608 34.428C55.832 34.236 55.944 33.988 55.944 33.684C55.944 33.436 55.868 33.232 55.716 33.072C55.564 32.912 55.372 32.788 55.14 32.7C54.916 32.604 54.604 32.5 54.204 32.388C53.66 32.228 53.216 32.072 52.872 31.92C52.536 31.76 52.244 31.524 51.996 31.212C51.756 30.892 51.636 30.468 51.636 29.94C51.636 29.444 51.76 29.012 52.008 28.644C52.256 28.276 52.604 27.996 53.052 27.804C53.5 27.604 54.012 27.504 54.588 27.504C55.452 27.504 56.152 27.716 56.688 28.14C57.232 28.556 57.532 29.14 57.588 29.892H55.74C55.724 29.604 55.6 29.368 55.368 29.184C55.144 28.992 54.844 28.896 54.468 28.896C54.14 28.896 53.876 28.98 53.676 29.148C53.484 29.316 53.388 29.56 53.388 29.88C53.388 30.104 53.46 30.292 53.604 30.444C53.756 30.588 53.94 30.708 54.156 30.804C54.38 30.892 54.692 30.996 55.092 31.116C55.636 31.276 56.08 31.436 56.424 31.596C56.768 31.756 57.064 31.996 57.312 32.316C57.56 32.636 57.684 33.056 57.684 33.576C57.684 34.024 57.568 34.44 57.336 34.824C57.104 35.208 56.764 35.516 56.316 35.748C55.868 35.972 55.336 36.084 54.72 36.084ZM64.2765 34.404H60.9405L60.3885 36H58.6245L61.6365 27.612H63.5925L66.6045 36H64.8285L64.2765 34.404ZM63.8205 33.06L62.6085 29.556L61.3965 33.06H63.8205ZM70.6223 36.084C70.0383 36.084 69.5103 35.984 69.0383 35.784C68.5743 35.584 68.2063 35.296 67.9343 34.92C67.6623 34.544 67.5223 34.1 67.5143 33.588H69.3143C69.3383 33.932 69.4583 34.204 69.6743 34.404C69.8983 34.604 70.2023 34.704 70.5863 34.704C70.9783 34.704 71.2863 34.612 71.5103 34.428C71.7343 34.236 71.8463 33.988 71.8463 33.684C71.8463 33.436 71.7703 33.232 71.6183 33.072C71.4663 32.912 71.2743 32.788 71.0423 32.7C70.8183 32.604 70.5063 32.5 70.1063 32.388C69.5623 32.228 69.1183 32.072 68.7743 31.92C68.4383 31.76 68.1463 31.524 67.8983 31.212C67.6583 30.892 67.5383 30.468 67.5383 29.94C67.5383 29.444 67.6623 29.012 67.9103 28.644C68.1583 28.276 68.5063 27.996 68.9543 27.804C69.4023 27.604 69.9143 27.504 70.4903 27.504C71.3543 27.504 72.0543 27.716 72.5903 28.14C73.1343 28.556 73.4343 29.14 73.4903 29.892H71.6423C71.6263 29.604 71.5023 29.368 71.2703 29.184C71.0463 28.992 70.7463 28.896 70.3703 28.896C70.0423 28.896 69.7783 28.98 69.5783 29.148C69.3863 29.316 69.2903 29.56 69.2903 29.88C69.2903 30.104 69.3623 30.292 69.5063 30.444C69.6583 30.588 69.8423 30.708 70.0583 30.804C70.2823 30.892 70.5943 30.996 70.9943 31.116C71.5383 31.276 71.9823 31.436 72.3263 31.596C72.6703 31.756 72.9663 31.996 73.2143 32.316C73.4623 32.636 73.5863 33.056 73.5863 33.576C73.5863 34.024 73.4703 34.44 73.2383 34.824C73.0063 35.208 72.6663 35.516 72.2183 35.748C71.7703 35.972 71.2383 36.084 70.6223 36.084ZM77.9348 36.084C77.3508 36.084 76.8228 35.984 76.3508 35.784C75.8868 35.584 75.5188 35.296 75.2468 34.92C74.9748 34.544 74.8348 34.1 74.8268 33.588H76.6268C76.6508 33.932 76.7708 34.204 76.9868 34.404C77.2108 34.604 77.5148 34.704 77.8988 34.704C78.2908 34.704 78.5988 34.612 78.8228 34.428C79.0468 34.236 79.1588 33.988 79.1588 33.684C79.1588 33.436 79.0828 33.232 78.9308 33.072C78.7788 32.912 78.5868 32.788 78.3548 32.7C78.1308 32.604 77.8188 32.5 77.4188 32.388C76.8748 32.228 76.4308 32.072 76.0868 31.92C75.7508 31.76 75.4588 31.524 75.2108 31.212C74.9708 30.892 74.8508 30.468 74.8508 29.94C74.8508 29.444 74.9748 29.012 75.2228 28.644C75.4708 28.276 75.8188 27.996 76.2668 27.804C76.7148 27.604 77.2268 27.504 77.8028 27.504C78.6668 27.504 79.3668 27.716 79.9028 28.14C80.4468 28.556 80.7468 29.14 80.8028 29.892H78.9548C78.9388 29.604 78.8148 29.368 78.5828 29.184C78.3588 28.992 78.0588 28.896 77.6828 28.896C77.3548 28.896 77.0908 28.98 76.8908 29.148C76.6988 29.316 76.6028 29.56 76.6028 29.88C76.6028 30.104 76.6748 30.292 76.8188 30.444C76.9708 30.588 77.1548 30.708 77.3708 30.804C77.5948 30.892 77.9068 30.996 78.3068 31.116C78.8508 31.276 79.2948 31.436 79.6388 31.596C79.9828 31.756 80.2788 31.996 80.5268 32.316C80.7748 32.636 80.8988 33.056 80.8988 33.576C80.8988 34.024 80.7828 34.44 80.5508 34.824C80.3188 35.208 79.9788 35.516 79.5308 35.748C79.0828 35.972 78.5508 36.084 77.9348 36.084Z" fill="#E8ECF2"/>
<g clip-path="url(#clip0_12_175)">
<path d="M45.9923 34.5337C45.9406 34.1147 45.7282 33.7511 45.3595 33.452C45.3549 33.4464 45.3498 33.4412 45.3443 33.4365L45.3257 33.4231L45.3197 33.4189L45.1239 33.2783L45.1172 33.2734L45.0923 33.2558C45.0831 33.2504 45.0733 33.2463 45.0631 33.2435C44.4436 32.8747 43.4181 32.6163 41.8491 33.17C41.4747 32.54 41.4321 32.0352 41.6828 31.2617C41.7275 31.1271 41.686 31.0381 41.5524 30.9805C41.2838 30.8662 40.9161 30.9246 40.6552 30.9935C40.5336 31.0251 40.4604 31.094 40.4372 31.1984C40.272 31.9719 39.7918 32.6785 39.3273 33.3606L39.2999 33.4006C39.0138 32.7938 39.0732 32.3238 39.2725 31.7349C39.3122 31.6175 39.2809 31.5395 39.1709 31.4811C38.8636 31.3225 38.4027 31.4315 38.2192 31.4857C37.9865 31.5535 37.7369 32.1825 37.4581 32.9355C37.3878 33.125 37.3273 33.2871 37.2911 33.3627C37.205 33.5384 37.1227 33.7388 37.0355 33.9515C36.8386 34.4328 36.6168 34.9746 36.2997 35.3149C36.1844 35.06 36.3658 34.6582 36.5419 34.2683C36.7504 33.8074 36.9473 33.3718 36.7205 33.0937C36.6846 33.0498 36.6402 33.0136 36.5898 32.9875C36.5394 32.9614 36.4843 32.9458 36.4277 32.9418C36.3538 32.9362 36.2797 32.9483 36.2114 32.977C36.235 32.7784 36.2361 32.6216 36.178 32.4321C36.0951 32.1617 35.8796 32.0102 35.5829 32.0183C34.9071 32.038 34.3355 32.5414 33.9745 32.9605C33.734 33.2417 33.201 33.4562 32.7331 33.6443C32.5482 33.7227 32.3724 33.793 32.2258 33.8633C31.992 33.6657 31.6949 33.4664 31.382 33.2558C30.5031 32.6659 29.5071 31.9968 29.4727 31.0898C29.4235 29.75 30.9493 28.7997 32.281 28.1216C33.2903 27.6083 34.1678 27.268 34.9637 27.082C36.0817 26.8208 37.026 26.8735 37.7699 27.2381C38.177 27.4374 38.3676 27.8709 38.2466 28.3167C37.9302 29.4751 36.6193 30.2689 35.4981 30.6261C34.8228 30.8413 34.248 30.9313 33.7403 30.9017C33.104 30.8648 32.5844 30.5456 32.3622 30.4095C32.3266 30.3852 32.2889 30.3641 32.2497 30.3463L32.2395 30.3438C32.2194 30.3388 32.1983 30.3394 32.1785 30.3456C32.1587 30.3518 32.141 30.3634 32.1273 30.379C32.0816 30.4334 32.0978 30.5196 32.1143 30.5632C32.3305 31.1281 32.777 31.485 33.4411 31.6238C33.6585 31.6674 33.8797 31.6884 34.1014 31.6868C35.6556 31.6868 37.6388 30.7906 38.3672 30.0527C38.864 29.55 39.2257 29.0332 39.3755 28.142C39.532 27.2086 38.8991 26.5599 38.2544 26.2611C36.6875 25.5379 34.9079 25.8238 33.6907 26.1908C32.2669 26.62 30.7939 27.4005 29.6499 28.3329C28.2394 29.4814 27.7296 30.5477 28.1339 31.5057C28.5491 32.4876 29.5616 33.1018 30.5407 33.6959C30.8571 33.8875 31.1581 34.07 31.4291 34.2584C31.3476 34.2982 31.2643 34.3386 31.1795 34.379C30.3576 34.7774 29.4252 35.2256 28.9081 35.9663C28.5326 36.506 28.4623 37.0432 28.6993 37.5631C28.8258 37.8398 29.0508 38.0275 29.3634 38.1211C29.5259 38.1671 29.6943 38.1895 29.8633 38.1875C30.4718 38.1875 31.1416 37.9414 31.5061 37.714C32.1502 37.3097 32.5675 36.7668 32.7468 36.1006C32.9064 35.5079 32.8681 34.919 32.6361 34.3934L33.4253 33.9955C33.0446 35.2611 33.3364 36.017 33.657 36.4339C33.7751 36.5875 33.9882 36.68 34.2262 36.6842C34.4642 36.6884 34.6832 36.5988 34.807 36.4462C35.0411 36.1562 35.2141 35.8169 35.3733 35.4777C35.3649 35.6991 35.3754 35.9234 35.451 36.1136C35.5189 36.2849 35.6307 36.3984 35.7748 36.442C35.9281 36.4888 36.1077 36.4494 36.2807 36.3313C37.0601 35.7979 37.5931 34.5179 38.0213 33.4889C38.0821 33.3426 38.1405 33.202 38.1971 33.0705C38.303 33.4496 38.4504 33.816 38.6365 34.1628C38.678 34.2381 38.6745 34.2711 38.6182 34.333C38.5335 34.4258 38.4154 34.5379 38.2902 34.6568C37.9113 35.0164 37.4395 35.4654 37.3762 35.8602C37.3516 36.0184 37.4605 36.1625 37.6296 36.1952C38.1384 36.2965 38.7511 36.1484 39.2693 35.7997C39.7404 35.4833 39.9176 35.0421 39.7967 34.4922C39.6796 33.9628 39.9468 33.3054 40.5909 32.5368C40.6963 32.9773 40.837 33.3335 41.031 33.6453L41.0257 33.6495C40.5568 34.0591 39.9141 34.6198 40.0139 35.3001C40.0223 35.3648 40.0441 35.4271 40.0779 35.4829C40.1116 35.5387 40.1567 35.5868 40.2101 35.6243C40.2672 35.6628 40.3317 35.6891 40.3994 35.7016C40.4672 35.7141 40.5368 35.7124 40.6039 35.6967C41.218 35.5677 41.6804 35.3079 42.0164 34.9032C42.3525 34.4986 42.2298 34.05 42.1166 33.7019C42.9955 33.4636 43.7781 33.4695 44.5108 33.7195C44.9221 33.8601 45.2171 34.0911 45.3872 34.41C45.6013 34.8111 45.4857 35.1813 45.0606 35.4524C44.9302 35.5357 44.8673 35.5866 44.8634 35.651C44.8625 35.6659 44.8653 35.6808 44.8714 35.6945C44.8775 35.7081 44.8868 35.7201 44.8986 35.7294C44.9478 35.7698 45.0996 35.8401 45.4431 35.6239C45.7595 35.4253 45.9452 35.1549 45.9926 34.8153C46.0022 34.7217 46.002 34.6273 45.9923 34.5337ZM31.9393 35.4147L31.9357 35.4597C31.8809 35.9744 31.6193 36.423 31.157 36.7957C30.8666 37.0298 30.5513 37.1736 30.2693 37.201C30.0725 37.22 29.9294 37.1933 29.8443 37.1212C29.7807 37.0674 29.7466 36.9869 29.7388 36.8751C29.6812 35.9793 31.086 35.0892 31.8767 34.7963C31.9331 34.9973 31.9543 35.2065 31.9393 35.4147ZM35.5375 32.8884C35.4074 33.6298 35.0281 35.0294 34.4318 35.5726C34.4034 35.5986 34.3795 35.6077 34.3686 35.6053C34.3577 35.6028 34.3492 35.5898 34.3404 35.5701C34.1414 35.1089 34.2149 34.3298 34.5162 33.7177C34.7479 33.2459 35.0787 32.9334 35.4486 32.8388C35.4639 32.8346 35.4797 32.8324 35.4957 32.8322C35.5081 32.8313 35.5205 32.8346 35.5308 32.8416C35.5352 32.8485 35.538 32.8563 35.5392 32.8643C35.5403 32.8724 35.5398 32.8806 35.5375 32.8884ZM38.4727 35.5912C38.3605 35.7083 38.2069 35.6925 38.2431 35.6496L38.8141 35.0435C38.768 35.252 38.632 35.4246 38.4727 35.5912ZM40.8412 35.067C40.7869 35.0938 40.7281 35.1104 40.6679 35.1159C40.6517 34.797 40.9607 34.4381 41.2655 34.1987C41.3474 34.5313 41.1797 34.8828 40.8412 35.067Z" fill="#E8ECF2"/>
</g>
</g>
<defs>
<filter id="filter0_dd_12_175" x="0" y="0" width="110" height="64" filterUnits="userSpaceOnUse" color-interpolation-filters="sRGB">
<feFlood flood-opacity="0" result="BackgroundImageFix"/>
<feColorMatrix in="SourceAlpha" type="matrix" values="0 0 0 0 0 0 0 0 0 0 0 0 0 0 0 0 0 0 127 0" result="hardAlpha"/>
<feOffset dx="6" dy="6"/>
<feGaussianBlur stdDeviation="6"/>
<feComposite in2="hardAlpha" operator="out"/>
<feColorMatrix type="matrix" values="0 0 0 0 0.0235294 0 0 0 0 0.0313726 0 0 0 0 0.0431373 0 0 0 0.5 0"/>
<feBlend mode="normal" in2="BackgroundImageFix" result="effect1_dropShadow_12_175"/>
<feColorMatrix in="SourceAlpha" type="matrix" values="0 0 0 0 0 0 0 0 0 0 0 0 0 0 0 0 0 0 127 0" result="hardAlpha"/>
<feOffset dx="-6" dy="-6"/>
<feGaussianBlur stdDeviation="6"/>
<feComposite in2="hardAlpha" operator="out"/>
<feColorMatrix type="matrix" values="0 0 0 0 0.0784314 0 0 0 0 0.101961 0 0 0 0 0.137255 0 0 0 0.5 0"/>
<feBlend mode="normal" in2="effect1_dropShadow_12_175" result="effect2_dropShadow_12_175"/>
<feBlend mode="normal" in="SourceGraphic" in2="effect2_dropShadow_12_175" result="shape"/>
</filter>
<clipPath id="clip0_12_175">
<rect width="18" height="18" fill="white" transform="translate(28 23)"/>
</clipPath>
</defs>
</svg>
