<svg width="118" height="64" viewBox="0 0 118 64" fill="none" xmlns="http://www.w3.org/2000/svg">
<g filter="url(#filter0_dd_6_153)">
<rect x="18" y="18" width="82" height="28" rx="7" fill="#0D1117"/>
<path d="M32.4339 34.0777C32.4336 34.4049 32.3364 34.7246 32.1544 34.9965C31.9724 35.2684 31.7139 35.4802 31.4116 35.6052C31.1093 35.7303 30.7767 35.7628 30.4558 35.6988C30.135 35.6348 29.8403 35.4771 29.6091 35.2457C29.3778 35.0143 29.2204 34.7195 29.1567 34.3986C29.093 34.0777 29.1258 33.7451 29.2511 33.4429C29.3763 33.1406 29.5884 32.8823 29.8604 32.7006C30.1325 32.5189 30.4523 32.4219 30.7795 32.4219H32.4339V34.0777ZM33.2678 34.0777C33.2678 33.6389 33.4421 33.2181 33.7524 32.9079C34.0627 32.5976 34.4835 32.4233 34.9223 32.4233C35.3611 32.4233 35.7819 32.5976 36.0921 32.9079C36.4024 33.2181 36.5767 33.6389 36.5767 34.0777V38.2205C36.5767 38.6593 36.4024 39.0802 36.0921 39.3904C35.7819 39.7007 35.3611 39.875 34.9223 39.875C34.4835 39.875 34.0627 39.7007 33.7524 39.3904C33.4421 39.0802 33.2678 38.6593 33.2678 38.2205V34.0777ZM34.9223 27.4339C34.5951 27.4336 34.2754 27.3364 34.0035 27.1544C33.7316 26.9724 33.5198 26.7139 33.3948 26.4116C33.2697 26.1093 33.2372 25.7767 33.3012 25.4558C33.3652 25.135 33.5229 24.8403 33.7543 24.6091C33.9857 24.3778 34.2805 24.2204 34.6014 24.1567C34.9223 24.093 35.2549 24.1258 35.5571 24.2511C35.8594 24.3763 36.1177 24.5884 36.2994 24.8604C36.4811 25.1325 36.5781 25.4523 36.5781 25.7795V27.4339H34.9223ZM34.9223 28.2678C35.3611 28.2678 35.7819 28.4421 36.0921 28.7524C36.4024 29.0627 36.5767 29.4835 36.5767 29.9223C36.5767 30.3611 36.4024 30.7819 36.0921 31.0921C35.7819 31.4024 35.3611 31.5767 34.9223 31.5767H30.7795C30.3407 31.5767 29.9198 31.4024 29.6096 31.0921C29.2993 30.7819 29.125 30.3611 29.125 29.9223C29.125 29.4835 29.2993 29.0627 29.6096 28.7524C29.9198 28.4421 30.3407 28.2678 30.7795 28.2678H34.9223ZM41.5661 29.9223C41.5664 29.5951 41.6636 29.2754 41.8456 29.0035C42.0276 28.7316 42.2861 28.5198 42.5884 28.3948C42.8907 28.2697 43.2233 28.2372 43.5442 28.3012C43.865 28.3652 44.1597 28.5229 44.3909 28.7543C44.6222 28.9857 44.7796 29.2805 44.8433 29.6014C44.907 29.9223 44.8742 30.2549 44.7489 30.5571C44.6237 30.8594 44.4116 31.1177 44.1396 31.2994C43.8675 31.4811 43.5477 31.5781 43.2205 31.5781H41.5661V29.9223ZM40.7322 29.9223C40.7322 30.3611 40.5579 30.7819 40.2476 31.0921C39.9373 31.4024 39.5165 31.5767 39.0777 31.5767C38.6389 31.5767 38.2181 31.4024 37.9079 31.0921C37.5976 30.7819 37.4233 30.3611 37.4233 29.9223V25.7795C37.4233 25.3407 37.5976 24.9198 37.9079 24.6096C38.2181 24.2993 38.6389 24.125 39.0777 24.125C39.5165 24.125 39.9373 24.2993 40.2476 24.6096C40.5579 24.9198 40.7322 25.3407 40.7322 25.7795V29.9223ZM39.0777 36.5661C39.4049 36.5664 39.7246 36.6636 39.9965 36.8456C40.2684 37.0276 40.4802 37.2861 40.6052 37.5884C40.7303 37.8907 40.7628 38.2233 40.6988 38.5442C40.6348 38.865 40.4771 39.1597 40.2457 39.3909C40.0143 39.6222 39.7195 39.7796 39.3986 39.8433C39.0777 39.907 38.7451 39.8742 38.4429 39.7489C38.1406 39.6237 37.8823 39.4116 37.7006 39.1396C37.5189 38.8675 37.4219 38.5477 37.4219 38.2205V36.5661H39.0777ZM39.0777 35.7322C38.6389 35.7322 38.2181 35.5579 37.9079 35.2476C37.5976 34.9373 37.4233 34.5165 37.4233 34.0777C37.4233 33.6389 37.5976 33.2181 37.9079 32.9079C38.2181 32.5976 38.6389 32.4233 39.0777 32.4233H43.2205C43.6593 32.4233 44.0802 32.5976 44.3904 32.9079C44.7007 33.2181 44.875 33.6389 44.875 34.0777C44.875 34.5165 44.7007 34.9373 44.3904 35.2476C44.0802 35.5579 43.6593 35.7322 43.2205 35.7322H39.0777Z" fill="#E8ECF2"/>
<path d="M54.72 36.084C54.136 36.084 53.608 35.984 53.136 35.784C52.672 35.584 52.304 35.296 52.032 34.92C51.76 34.544 51.62 34.1 51.612 33.588H53.412C53.436 33.932 53.556 34.204 53.772 34.404C53.996 34.604 54.3 34.704 54.684 34.704C55.076 34.704 55.384 34.612 55.608 34.428C55.832 34.236 55.944 33.988 55.944 33.684C55.944 33.436 55.868 33.232 55.716 33.072C55.564 32.912 55.372 32.788 55.14 32.7C54.916 32.604 54.604 32.5 54.204 32.388C53.66 32.228 53.216 32.072 52.872 31.92C52.536 31.76 52.244 31.524 51.996 31.212C51.756 30.892 51.636 30.468 51.636 29.94C51.636 29.444 51.76 29.012 52.008 28.644C52.256 28.276 52.604 27.996 53.052 27.804C53.5 27.604 54.012 27.504 54.588 27.504C55.452 27.504 56.152 27.716 56.688 28.14C57.232 28.556 57.532 29.14 57.588 29.892H55.74C55.724 29.604 55.6 29.368 55.368 29.184C55.144 28.992 54.844 28.896 54.468 28.896C54.14 28.896 53.876 28.98 53.676 29.148C53.484 29.316 53.388 29.56 53.388 29.88C53.388 30.104 53.46 30.292 53.604 30.444C53.756 30.588 53.94 30.708 54.156 30.804C54.38 30.892 54.692 30.996 55.092 31.116C55.636 31.276 56.08 31.436 56.424 31.596C56.768 31.756 57.064 31.996 57.312 32.316C57.56 32.636 57.684 33.056 57.684 33.576C57.684 34.024 57.568 34.44 57.336 34.824C57.104 35.208 56.764 35.516 56.316 35.748C55.868 35.972 55.336 36.084 54.72 36.084ZM60.8205 34.668H63.5805V36H59.1405V27.624H60.8205V34.668ZM69.7843 34.404H66.4483L65.8963 36H64.1323L67.1443 27.612H69.1003L72.1123 36H70.3363L69.7843 34.404ZM69.3283 33.06L68.1163 29.556L66.9043 33.06H69.3283ZM72.8302 31.8C72.8302 30.976 73.0142 30.24 73.3822 29.592C73.7582 28.936 74.2662 28.428 74.9062 28.068C75.5542 27.7 76.2782 27.516 77.0782 27.516C78.0142 27.516 78.8342 27.756 79.5382 28.236C80.2422 28.716 80.7342 29.38 81.0142 30.228H79.0822C78.8902 29.828 78.6182 29.528 78.2662 29.328C77.9222 29.128 77.5222 29.028 77.0662 29.028C76.5782 29.028 76.1422 29.144 75.7582 29.376C75.3822 29.6 75.0862 29.92 74.8702 30.336C74.6622 30.752 74.5582 31.24 74.5582 31.8C74.5582 32.352 74.6622 32.84 74.8702 33.264C75.0862 33.68 75.3822 34.004 75.7582 34.236C76.1422 34.46 76.5782 34.572 77.0662 34.572C77.5222 34.572 77.9222 34.472 78.2662 34.272C78.6182 34.064 78.8902 33.76 79.0822 33.36H81.0142C80.7342 34.216 80.2422 34.884 79.5382 35.364C78.8422 35.836 78.0222 36.072 77.0782 36.072C76.2782 36.072 75.5542 35.892 74.9062 35.532C74.2662 35.164 73.7582 34.656 73.3822 34.008C73.0142 33.36 72.8302 32.624 72.8302 31.8ZM87.1771 36L84.1291 32.268V36H82.4491V27.624H84.1291V31.38L87.1771 27.624H89.2051L85.7491 31.776L89.3011 36H87.1771Z" fill="#E8ECF2"/>
</g>
<defs>
<filter id="filter0_dd_6_153" x="0" y="0" width="118" height="64" filterUnits="userSpaceOnUse" color-interpolation-filters="sRGB">
<feFlood flood-opacity="0" result="BackgroundImageFix"/>
<feColorMatrix in="SourceAlpha" type="matrix" values="0 0 0 0 0 0 0 0 0 0 0 0 0 0 0 0 0 0 127 0" result="hardAlpha"/>
<feOffset dx="6" dy="6"/>
<feGaussianBlur stdDeviation="6"/>
<feComposite in2="hardAlpha" operator="out"/>
<feColorMatrix type="matrix" values="0 0 0 0 0.0235294 0 0 0 0 0.0313726 0 0 0 0 0.0431373 0 0 0 0.5 0"/>
<feBlend mode="normal" in2="BackgroundImageFix" result="effect1_dropShadow_6_153"/>
<feColorMatrix in="SourceAlpha" type="matrix" values="0 0 0 0 0 0 0 0 0 0 0 0 0 0 0 0 0 0 127 0" result="hardAlpha"/>
<feOffset dx="-6" dy="-6"/>
<feGaussianBlur stdDeviation="6"/>
<feComposite in2="hardAlpha" operator="out"/>
<feColorMatrix type="matrix" values="0 0 0 0 0.0784314 0 0 0 0 0.101961 0 0 0 0 0.137255 0 0 0 0.5 0"/>
<feBlend mode="normal" in2="effect1_dropShadow_6_153" result="effect2_dropShadow_6_153"/>
<feBlend mode="normal" in="SourceGraphic" in2="effect2_dropShadow_6_153" result="shape"/>
</filter>
</defs>
</svg>
