<svg width="185" height="64" viewBox="0 0 185 64" fill="none" xmlns="http://www.w3.org/2000/svg">
<g filter="url(#filter0_dd_8_2)">
<rect x="18" y="18" width="149" height="28" rx="7" fill="#0D1117"/>
<path d="M54.72 36.084C54.136 36.084 53.608 35.984 53.136 35.784C52.672 35.584 52.304 35.296 52.032 34.92C51.76 34.544 51.62 34.1 51.612 33.588H53.412C53.436 33.932 53.556 34.204 53.772 34.404C53.996 34.604 54.3 34.704 54.684 34.704C55.076 34.704 55.384 34.612 55.608 34.428C55.832 34.236 55.944 33.988 55.944 33.684C55.944 33.436 55.868 33.232 55.716 33.072C55.564 32.912 55.372 32.788 55.14 32.7C54.916 32.604 54.604 32.5 54.204 32.388C53.66 32.228 53.216 32.072 52.872 31.92C52.536 31.76 52.244 31.524 51.996 31.212C51.756 30.892 51.636 30.468 51.636 29.94C51.636 29.444 51.76 29.012 52.008 28.644C52.256 28.276 52.604 27.996 53.052 27.804C53.5 27.604 54.012 27.504 54.588 27.504C55.452 27.504 56.152 27.716 56.688 28.14C57.232 28.556 57.532 29.14 57.588 29.892H55.74C55.724 29.604 55.6 29.368 55.368 29.184C55.144 28.992 54.844 28.896 54.468 28.896C54.14 28.896 53.876 28.98 53.676 29.148C53.484 29.316 53.388 29.56 53.388 29.88C53.388 30.104 53.46 30.292 53.604 30.444C53.756 30.588 53.94 30.708 54.156 30.804C54.38 30.892 54.692 30.996 55.092 31.116C55.636 31.276 56.08 31.436 56.424 31.596C56.768 31.756 57.064 31.996 57.312 32.316C57.56 32.636 57.684 33.056 57.684 33.576C57.684 34.024 57.568 34.44 57.336 34.824C57.104 35.208 56.764 35.516 56.316 35.748C55.868 35.972 55.336 36.084 54.72 36.084ZM64.8405 27.624V28.98H62.6085V36H60.9285V28.98H58.6965V27.624H64.8405ZM71.2023 34.404H67.8663L67.3143 36H65.5503L68.5623 27.612H70.5183L73.5303 36H71.7543L71.2023 34.404ZM70.7463 33.06L69.5343 29.556L68.3223 33.06H70.7463ZM74.2481 31.8C74.2481 30.976 74.4321 30.24 74.8001 29.592C75.1761 28.936 75.6841 28.428 76.3241 28.068C76.9721 27.7 77.6961 27.516 78.4961 27.516C79.4321 27.516 80.2521 27.756 80.9561 28.236C81.6601 28.716 82.1521 29.38 82.4321 30.228H80.5001C80.3081 29.828 80.0361 29.528 79.6841 29.328C79.3401 29.128 78.9401 29.028 78.4841 29.028C77.9961 29.028 77.5601 29.144 77.1761 29.376C76.8001 29.6 76.5041 29.92 76.2881 30.336C76.0801 30.752 75.9761 31.24 75.9761 31.8C75.9761 32.352 76.0801 32.84 76.2881 33.264C76.5041 33.68 76.8001 34.004 77.1761 34.236C77.5601 34.46 77.9961 34.572 78.4841 34.572C78.9401 34.572 79.3401 34.472 79.6841 34.272C80.0361 34.064 80.3081 33.76 80.5001 33.36H82.4321C82.1521 34.216 81.6601 34.884 80.9561 35.364C80.2601 35.836 79.4401 36.072 78.4961 36.072C77.6961 36.072 76.9721 35.892 76.3241 35.532C75.6841 35.164 75.1761 34.656 74.8001 34.008C74.4321 33.36 74.2481 32.624 74.2481 31.8ZM88.5951 36L85.5471 32.268V36H83.8671V27.624H85.5471V31.38L88.5951 27.624H90.6231L87.1671 31.776L90.7191 36H88.5951ZM95.7121 36.084C94.9281 36.084 94.2081 35.9 93.5521 35.532C92.8961 35.164 92.3761 34.656 91.9921 34.008C91.6081 33.352 91.4161 32.612 91.4161 31.788C91.4161 30.972 91.6081 30.24 91.9921 29.592C92.3761 28.936 92.8961 28.424 93.5521 28.056C94.2081 27.688 94.9281 27.504 95.7121 27.504C96.5041 27.504 97.2241 27.688 97.8721 28.056C98.5281 28.424 99.0441 28.936 99.4201 29.592C99.8041 30.24 99.9961 30.972 99.9961 31.788C99.9961 32.612 99.8041 33.352 99.4201 34.008C99.0441 34.656 98.5281 35.164 97.8721 35.532C97.2161 35.9 96.4961 36.084 95.7121 36.084ZM95.7121 34.584C96.2161 34.584 96.6601 34.472 97.0441 34.248C97.4281 34.016 97.7281 33.688 97.9441 33.264C98.1601 32.84 98.2681 32.348 98.2681 31.788C98.2681 31.228 98.1601 30.74 97.9441 30.324C97.7281 29.9 97.4281 29.576 97.0441 29.352C96.6601 29.128 96.2161 29.016 95.7121 29.016C95.2081 29.016 94.7601 29.128 94.3681 29.352C93.9841 29.576 93.6841 29.9 93.4681 30.324C93.2521 30.74 93.1441 31.228 93.1441 31.788C93.1441 32.348 93.2521 32.84 93.4681 33.264C93.6841 33.688 93.9841 34.016 94.3681 34.248C94.7601 34.472 95.2081 34.584 95.7121 34.584ZM108.77 27.624L105.698 36H103.658L100.586 27.624H102.386L104.69 34.284L106.982 27.624H108.77ZM111.457 28.98V31.08H114.277V32.412H111.457V34.632H114.637V36H109.777V27.612H114.637V28.98H111.457ZM120.484 36L118.636 32.736H117.844V36H116.164V27.624H119.308C119.956 27.624 120.508 27.74 120.964 27.972C121.42 28.196 121.76 28.504 121.984 28.896C122.216 29.28 122.332 29.712 122.332 30.192C122.332 30.744 122.172 31.244 121.852 31.692C121.532 32.132 121.056 32.436 120.424 32.604L122.428 36H120.484ZM117.844 31.476H119.248C119.704 31.476 120.044 31.368 120.268 31.152C120.492 30.928 120.604 30.62 120.604 30.228C120.604 29.844 120.492 29.548 120.268 29.34C120.044 29.124 119.704 29.016 119.248 29.016H117.844V31.476ZM129.023 27.624V28.98H125.531V31.128H128.207V32.46H125.531V36H123.851V27.624H129.023ZM131.895 34.668H134.655V36H130.215V27.624H131.895V34.668ZM139.611 36.084C138.827 36.084 138.107 35.9 137.451 35.532C136.795 35.164 136.275 34.656 135.891 34.008C135.507 33.352 135.315 32.612 135.315 31.788C135.315 30.972 135.507 30.24 135.891 29.592C136.275 28.936 136.795 28.424 137.451 28.056C138.107 27.688 138.827 27.504 139.611 27.504C140.403 27.504 141.123 27.688 141.771 28.056C142.427 28.424 142.943 28.936 143.319 29.592C143.703 30.24 143.895 30.972 143.895 31.788C143.895 32.612 143.703 33.352 143.319 34.008C142.943 34.656 142.427 35.164 141.771 35.532C141.115 35.9 140.395 36.084 139.611 36.084ZM139.611 34.584C140.115 34.584 140.559 34.472 140.943 34.248C141.327 34.016 141.627 33.688 141.843 33.264C142.059 32.84 142.167 32.348 142.167 31.788C142.167 31.228 142.059 30.74 141.843 30.324C141.627 29.9 141.327 29.576 140.943 29.352C140.559 29.128 140.115 29.016 139.611 29.016C139.107 29.016 138.659 29.128 138.267 29.352C137.883 29.576 137.583 29.9 137.367 30.324C137.151 30.74 137.043 31.228 137.043 31.788C137.043 32.348 137.151 32.84 137.367 33.264C137.583 33.688 137.883 34.016 138.267 34.248C138.659 34.472 139.107 34.584 139.611 34.584ZM156.34 27.624L154 36H152.02L150.448 30.036L148.804 36L146.836 36.012L144.58 27.624H146.38L147.856 34.128L149.56 27.624H151.432L153.04 34.092L154.528 27.624H156.34Z" fill="#E8ECF2"/>
<path d="M41.7812 38.4688V34.25H43.1875V39.875H30.25V34.25H31.6562V38.4688H41.7812Z" fill="#E8ECF2"/>
<path d="M33.2418 33.8552L40.2228 35.292L40.5181 33.9097L33.5371 32.4729L33.2418 33.8552ZM34.1654 30.5814L40.6288 33.5469L41.2188 32.2728L34.7563 29.2902L34.1654 30.5814ZM35.9566 27.4525L41.4409 31.9448L42.3459 30.8718L36.8615 26.3796L35.9566 27.4525ZM39.5312 24.125L38.3574 24.9617L42.605 30.5997L43.75 29.75L39.5312 24.125ZM33.0625 37.0625H40.2344V35.6562H33.0625V37.0625Z" fill="#E8ECF2"/>
</g>
<defs>
<filter id="filter0_dd_8_2" x="0" y="0" width="185" height="64" filterUnits="userSpaceOnUse" color-interpolation-filters="sRGB">
<feFlood flood-opacity="0" result="BackgroundImageFix"/>
<feColorMatrix in="SourceAlpha" type="matrix" values="0 0 0 0 0 0 0 0 0 0 0 0 0 0 0 0 0 0 127 0" result="hardAlpha"/>
<feOffset dx="6" dy="6"/>
<feGaussianBlur stdDeviation="6"/>
<feComposite in2="hardAlpha" operator="out"/>
<feColorMatrix type="matrix" values="0 0 0 0 0.0235294 0 0 0 0 0.0313726 0 0 0 0 0.0431373 0 0 0 0.5 0"/>
<feBlend mode="normal" in2="BackgroundImageFix" result="effect1_dropShadow_8_2"/>
<feColorMatrix in="SourceAlpha" type="matrix" values="0 0 0 0 0 0 0 0 0 0 0 0 0 0 0 0 0 0 127 0" result="hardAlpha"/>
<feOffset dx="-6" dy="-6"/>
<feGaussianBlur stdDeviation="6"/>
<feComposite in2="hardAlpha" operator="out"/>
<feColorMatrix type="matrix" values="0 0 0 0 0.0784314 0 0 0 0 0.101961 0 0 0 0 0.137255 0 0 0 0.5 0"/>
<feBlend mode="normal" in2="effect1_dropShadow_8_2" result="effect2_dropShadow_8_2"/>
<feBlend mode="normal" in="SourceGraphic" in2="effect2_dropShadow_8_2" result="shape"/>
</filter>
</defs>
</svg>
