<svg width="130" height="64" viewBox="0 0 130 64" fill="none" xmlns="http://www.w3.org/2000/svg">
<g filter="url(#filter0_dd_10_8)">
<rect x="18" y="18" width="94" height="28" rx="7" fill="#0D1117"/>
<path d="M57.528 27.624V28.98H55.296V36H53.616V28.98H51.384V27.624H57.528ZM69.9498 27.624L67.6098 36H65.6298L64.0578 30.036L62.4138 36L60.4458 36.012L58.1898 27.624H59.9898L61.4658 34.128L63.1698 27.624H65.0418L66.6498 34.092L68.1378 27.624H69.9498ZM72.7268 27.624V36H71.0468V27.624H72.7268ZM80.0866 27.624V28.98H77.8546V36H76.1746V28.98H73.9426V27.624H80.0866ZM87.0124 27.624V28.98H84.7804V36H83.1004V28.98H80.8684V27.624H87.0124ZM89.9182 28.98V31.08H92.7382V32.412H89.9182V34.632H93.0982V36H88.2382V27.612H93.0982V28.98H89.9182ZM98.9449 36L97.0969 32.736H96.3049V36H94.6249V27.624H97.7689C98.4169 27.624 98.9689 27.74 99.4249 27.972C99.8809 28.196 100.221 28.504 100.445 28.896C100.677 29.28 100.793 29.712 100.793 30.192C100.793 30.744 100.633 31.244 100.313 31.692C99.9929 32.132 99.5169 32.436 98.8849 32.604L100.889 36H98.9449ZM96.3049 31.476H97.7089C98.1649 31.476 98.5049 31.368 98.7289 31.152C98.9529 30.928 99.0649 30.62 99.0649 30.228C99.0649 29.844 98.9529 29.548 98.7289 29.34C98.5049 29.124 98.1649 29.016 97.7089 29.016H96.3049V31.476Z" fill="#E8ECF2"/>
<path d="M45.4375 26.8496C44.8045 27.1247 44.1347 27.3059 43.4494 27.3875C44.1696 26.9658 44.7113 26.2958 44.9727 25.5031C44.2918 25.9013 43.548 26.1807 42.7734 26.3293C42.4471 25.9874 42.0548 25.7154 41.6202 25.5299C41.1856 25.3444 40.7178 25.2491 40.2453 25.25C38.3321 25.25 36.7838 26.7758 36.7838 28.6566C36.7824 28.9183 36.8124 29.1791 36.8731 29.4336C35.5012 29.3693 34.1578 29.0193 32.9289 28.4061C31.7 27.7928 30.6126 26.9298 29.7364 25.8723C29.429 26.3905 29.2664 26.9818 29.2656 27.5844C29.2656 28.7656 29.8819 29.8098 30.8125 30.4215C30.2612 30.4084 29.7211 30.2625 29.2382 29.9961V30.0383C29.2382 31.6906 30.4335 33.0652 32.0155 33.3781C31.718 33.4574 31.4115 33.4976 31.1036 33.4977C30.8851 33.498 30.6672 33.4768 30.4529 33.4344C30.8927 34.7879 32.1727 35.7723 33.689 35.8004C32.4569 36.7499 30.9442 37.2632 29.3887 37.2594C29.1126 37.259 28.8367 37.2425 28.5625 37.2102C30.1449 38.2206 31.9844 38.7551 33.862 38.75C40.2379 38.75 43.7212 33.5574 43.7212 29.0539C43.7212 28.9063 43.7173 28.7586 43.7103 28.6145C44.3864 28.1335 44.9713 27.5359 45.4375 26.8496Z" fill="#E8ECF2"/>
</g>
<defs>
<filter id="filter0_dd_10_8" x="0" y="0" width="130" height="64" filterUnits="userSpaceOnUse" color-interpolation-filters="sRGB">
<feFlood flood-opacity="0" result="BackgroundImageFix"/>
<feColorMatrix in="SourceAlpha" type="matrix" values="0 0 0 0 0 0 0 0 0 0 0 0 0 0 0 0 0 0 127 0" result="hardAlpha"/>
<feOffset dx="6" dy="6"/>
<feGaussianBlur stdDeviation="6"/>
<feComposite in2="hardAlpha" operator="out"/>
<feColorMatrix type="matrix" values="0 0 0 0 0.0235294 0 0 0 0 0.0313726 0 0 0 0 0.0431373 0 0 0 0.5 0"/>
<feBlend mode="normal" in2="BackgroundImageFix" result="effect1_dropShadow_10_8"/>
<feColorMatrix in="SourceAlpha" type="matrix" values="0 0 0 0 0 0 0 0 0 0 0 0 0 0 0 0 0 0 127 0" result="hardAlpha"/>
<feOffset dx="-6" dy="-6"/>
<feGaussianBlur stdDeviation="6"/>
<feComposite in2="hardAlpha" operator="out"/>
<feColorMatrix type="matrix" values="0 0 0 0 0.0784314 0 0 0 0 0.101961 0 0 0 0 0.137255 0 0 0 0.5 0"/>
<feBlend mode="normal" in2="effect1_dropShadow_10_8" result="effect2_dropShadow_10_8"/>
<feBlend mode="normal" in="SourceGraphic" in2="effect2_dropShadow_10_8" result="shape"/>
</filter>
</defs>
</svg>
