<svg width="123" height="64" viewBox="0 0 123 64" fill="none" xmlns="http://www.w3.org/2000/svg">
<g filter="url(#filter0_dd_10_13)">
<rect x="18" y="18" width="87" height="28" rx="7" fill="#0D1117"/>
<path d="M59.352 27.624L56.28 36H54.24L51.168 27.624H52.968L55.272 34.284L57.564 27.624H59.352ZM62.0393 28.98V31.08H64.8593V32.412H62.0393V34.632H65.2193V36H60.3593V27.612H65.2193V28.98H62.0393ZM71.066 36L69.218 32.736H68.426V36H66.746V27.624H69.89C70.538 27.624 71.09 27.74 71.546 27.972C72.002 28.196 72.342 28.504 72.566 28.896C72.798 29.28 72.914 29.712 72.914 30.192C72.914 30.744 72.754 31.244 72.434 31.692C72.114 32.132 71.638 32.436 71.006 32.604L73.01 36H71.066ZM68.426 31.476H69.83C70.286 31.476 70.626 31.368 70.85 31.152C71.074 30.928 71.186 30.62 71.186 30.228C71.186 29.844 71.074 29.548 70.85 29.34C70.626 29.124 70.286 29.016 69.83 29.016H68.426V31.476ZM74.0255 31.8C74.0255 30.976 74.2095 30.24 74.5775 29.592C74.9535 28.936 75.4615 28.428 76.1015 28.068C76.7495 27.7 77.4735 27.516 78.2735 27.516C79.2095 27.516 80.0295 27.756 80.7335 28.236C81.4375 28.716 81.9295 29.38 82.2095 30.228H80.2775C80.0855 29.828 79.8135 29.528 79.4615 29.328C79.1175 29.128 78.7175 29.028 78.2615 29.028C77.7735 29.028 77.3375 29.144 76.9535 29.376C76.5775 29.6 76.2815 29.92 76.0655 30.336C75.8575 30.752 75.7535 31.24 75.7535 31.8C75.7535 32.352 75.8575 32.84 76.0655 33.264C76.2815 33.68 76.5775 34.004 76.9535 34.236C77.3375 34.46 77.7735 34.572 78.2615 34.572C78.7175 34.572 79.1175 34.472 79.4615 34.272C79.8135 34.064 80.0855 33.76 80.2775 33.36H82.2095C81.9295 34.216 81.4375 34.884 80.7335 35.364C80.0375 35.836 79.2175 36.072 78.2735 36.072C77.4735 36.072 76.7495 35.892 76.1015 35.532C75.4615 35.164 74.9535 34.656 74.5775 34.008C74.2095 33.36 74.0255 32.624 74.0255 31.8ZM85.3244 28.98V31.08H88.1444V32.412H85.3244V34.632H88.5044V36H83.6444V27.612H88.5044V28.98H85.3244ZM91.7111 34.668H94.4711V36H90.0311V27.624H91.7111V34.668Z" fill="#E8ECF2"/>
<path fill-rule="evenodd" clip-rule="evenodd" d="M37 24.6875L45.4375 39.3125H28.5625L37 24.6875Z" fill="#E8ECF2"/>
</g>
<defs>
<filter id="filter0_dd_10_13" x="0" y="0" width="123" height="64" filterUnits="userSpaceOnUse" color-interpolation-filters="sRGB">
<feFlood flood-opacity="0" result="BackgroundImageFix"/>
<feColorMatrix in="SourceAlpha" type="matrix" values="0 0 0 0 0 0 0 0 0 0 0 0 0 0 0 0 0 0 127 0" result="hardAlpha"/>
<feOffset dx="6" dy="6"/>
<feGaussianBlur stdDeviation="6"/>
<feComposite in2="hardAlpha" operator="out"/>
<feColorMatrix type="matrix" values="0 0 0 0 0.0235294 0 0 0 0 0.0313726 0 0 0 0 0.0431373 0 0 0 0.5 0"/>
<feBlend mode="normal" in2="BackgroundImageFix" result="effect1_dropShadow_10_13"/>
<feColorMatrix in="SourceAlpha" type="matrix" values="0 0 0 0 0 0 0 0 0 0 0 0 0 0 0 0 0 0 127 0" result="hardAlpha"/>
<feOffset dx="-6" dy="-6"/>
<feGaussianBlur stdDeviation="6"/>
<feComposite in2="hardAlpha" operator="out"/>
<feColorMatrix type="matrix" values="0 0 0 0 0.0784314 0 0 0 0 0.101961 0 0 0 0 0.137255 0 0 0 0.5 0"/>
<feBlend mode="normal" in2="effect1_dropShadow_10_13" result="effect2_dropShadow_10_13"/>
<feBlend mode="normal" in="SourceGraphic" in2="effect2_dropShadow_10_13" result="shape"/>
</filter>
</defs>
</svg>
