<svg width="132" height="64" viewBox="0 0 132 64" fill="none" xmlns="http://www.w3.org/2000/svg">
<g filter="url(#filter0_dd_10_23)">
<rect x="18" y="18" width="96" height="28" rx="7" fill="#0D1117"/>
<path d="M63.024 27.624L60.684 36H58.704L57.132 30.036L55.488 36L53.52 36.012L51.264 27.624H53.064L54.54 34.128L56.244 27.624H58.116L59.724 34.092L61.212 27.624H63.024ZM65.801 28.98V31.08H68.621V32.412H65.801V34.632H68.981V36H64.121V27.612H68.981V28.98H65.801ZM70.0997 31.8C70.0997 30.976 70.2837 30.24 70.6517 29.592C71.0277 28.936 71.5357 28.428 72.1757 28.068C72.8237 27.7 73.5477 27.516 74.3477 27.516C75.2837 27.516 76.1037 27.756 76.8077 28.236C77.5117 28.716 78.0037 29.38 78.2837 30.228H76.3517C76.1597 29.828 75.8877 29.528 75.5357 29.328C75.1917 29.128 74.7917 29.028 74.3357 29.028C73.8477 29.028 73.4117 29.144 73.0277 29.376C72.6517 29.6 72.3557 29.92 72.1397 30.336C71.9317 30.752 71.8277 31.24 71.8277 31.8C71.8277 32.352 71.9317 32.84 72.1397 33.264C72.3557 33.68 72.6517 34.004 73.0277 34.236C73.4117 34.46 73.8477 34.572 74.3357 34.572C74.7917 34.572 75.1917 34.472 75.5357 34.272C75.8877 34.064 76.1597 33.76 76.3517 33.36H78.2837C78.0037 34.216 77.5117 34.884 76.8077 35.364C76.1117 35.836 75.2917 36.072 74.3477 36.072C73.5477 36.072 72.8237 35.892 72.1757 35.532C71.5357 35.164 71.0277 34.656 70.6517 34.008C70.2837 33.36 70.0997 32.624 70.0997 31.8ZM86.6666 27.624V36H84.9866V32.436H81.3986V36H79.7186V27.624H81.3986V31.068H84.9866V27.624H86.6666ZM93.4562 34.404H90.1202L89.5682 36H87.8042L90.8162 27.612H92.7722L95.7842 36H94.0082L93.4562 34.404ZM93.0002 33.06L91.7882 29.556L90.5762 33.06H93.0002ZM102.61 27.624V28.98H100.378V36H98.698V28.98H96.466V27.624H102.61Z" fill="#E8ECF2"/>
<g clip-path="url(#clip0_10_23)">
<path d="M42.3673 33.4952C42.2211 33.4959 42.0781 33.4532 41.9562 33.3725C41.8343 33.2918 41.7391 33.1767 41.6827 33.0419C41.6263 32.907 41.6112 32.7585 41.6393 32.615C41.6674 32.4716 41.7374 32.3397 41.8405 32.2361C41.9436 32.1325 42.0752 32.0618 42.2185 32.0331C42.3618 32.0043 42.5104 32.0187 42.6455 32.0745C42.7806 32.1303 42.8961 32.2249 42.9774 32.3464C43.0587 32.4679 43.1021 32.6107 43.1021 32.7569C43.1028 32.8538 43.0843 32.9498 43.0476 33.0394C43.011 33.1291 42.957 33.2106 42.8886 33.2793C42.8203 33.3479 42.7391 33.4023 42.6496 33.4394C42.5601 33.4765 42.4642 33.4954 42.3673 33.4952ZM38.7754 33.4952C38.6292 33.4959 38.4861 33.4532 38.3643 33.3725C38.2424 33.2918 38.1472 33.1767 38.0908 33.0419C38.0344 32.907 38.0193 32.7585 38.0474 32.615C38.0754 32.4716 38.1455 32.3397 38.2486 32.2361C38.3517 32.1325 38.4832 32.0618 38.6266 32.0331C38.7699 32.0043 38.9185 32.0187 39.0536 32.0745C39.1887 32.1303 39.3042 32.2249 39.3855 32.3464C39.4668 32.4679 39.5102 32.6107 39.5102 32.7569C39.5109 32.8538 39.4924 32.9498 39.4558 33.0395C39.4192 33.1292 39.3652 33.2107 39.2968 33.2794C39.2285 33.348 39.1472 33.4024 39.0577 33.4395C38.9682 33.4765 38.8723 33.4955 38.7754 33.4952ZM44.1223 37.6739C45.2652 36.8544 46 35.6257 46 34.2328C46 31.7339 43.5918 29.6853 40.5715 29.6853C37.5513 29.6853 35.1427 31.7339 35.1427 34.2328C35.1427 36.7317 37.5509 38.7799 40.5715 38.7799C41.1836 38.7799 41.796 38.698 42.3265 38.5338C42.4141 38.5035 42.4489 38.4926 42.4897 38.4926C42.5904 38.495 42.6889 38.5234 42.7755 38.5749L43.9609 39.2714C43.9993 39.2915 44.0406 39.3053 44.0833 39.3125C44.1258 39.3096 44.1657 39.2914 44.1958 39.2613C44.2259 39.2311 44.244 39.1911 44.2468 39.1487C44.2441 39.1024 44.2349 39.0567 44.2197 39.013C44.2053 38.9616 44.0439 38.4505 43.9609 38.1246C43.9533 38.0843 43.9495 38.0435 43.9493 38.0026C43.9498 37.9376 43.9661 37.8738 43.9967 37.8165C44.0273 37.7593 44.0714 37.7103 44.1251 37.6739" fill="#E8ECF2"/>
<path d="M36.653 29.2757C36.4248 29.2757 36.206 29.1851 36.0447 29.0238C35.8834 28.8624 35.7927 28.6436 35.7927 28.4155C35.7927 28.1873 35.8834 27.9685 36.0447 27.8072C36.206 27.6458 36.4248 27.5552 36.653 27.5552C37.102 27.5552 37.5101 27.9648 37.5101 28.4155C37.5509 28.8662 37.1427 29.2757 36.653 29.2757ZM32.3267 29.2757C32.1565 29.2764 31.9899 29.2265 31.848 29.1324C31.7062 29.0383 31.5954 28.9043 31.5298 28.7472C31.4641 28.5901 31.4466 28.4171 31.4793 28.2501C31.512 28.0831 31.5936 27.9295 31.7136 27.8088C31.8336 27.6881 31.9868 27.6057 32.1537 27.5721C32.3205 27.5385 32.4936 27.5552 32.651 27.62C32.8084 27.6848 32.9431 27.7948 33.0379 27.9362C33.1327 28.0775 33.1835 28.2438 33.1838 28.4141C33.1829 28.6414 33.0924 28.8592 32.9319 29.0202C32.7715 29.1813 32.554 29.2726 32.3267 29.2743M34.4898 24.6875C30.8979 24.6875 28 27.1045 28 30.1367C28 31.7754 28.8571 33.2502 30.2447 34.2335C30.3674 34.3147 30.3906 34.4961 30.3906 34.5664C30.3936 34.62 30.3857 34.6737 30.3674 34.7243C30.2447 35.1338 30.0883 35.7969 30.0816 35.832C30.0749 35.8672 30.0408 35.9551 30.0408 35.9959C30.0391 36.0231 30.0432 36.0505 30.0528 36.0761C30.0624 36.1016 30.0773 36.1249 30.0966 36.1443C30.1159 36.1636 30.1391 36.1787 30.1646 36.1885C30.1901 36.1982 30.2174 36.2024 30.2447 36.2008C30.2885 36.1981 30.3308 36.1839 30.3674 36.1597L31.7969 35.3398C31.9196 35.2579 32.0011 35.2579 32.1235 35.2579C32.1935 35.259 32.2627 35.2728 32.3277 35.2987C32.9806 35.5037 33.7154 35.5856 34.4501 35.5856H34.8175C34.6837 35.1474 34.6149 34.692 34.6132 34.2338C34.6132 31.4888 37.2665 29.2768 40.5318 29.2768H40.8992C40.4488 26.6949 37.7552 24.6875 34.4898 24.6875Z" fill="#E8ECF2"/>
</g>
</g>
<defs>
<filter id="filter0_dd_10_23" x="0" y="0" width="132" height="64" filterUnits="userSpaceOnUse" color-interpolation-filters="sRGB">
<feFlood flood-opacity="0" result="BackgroundImageFix"/>
<feColorMatrix in="SourceAlpha" type="matrix" values="0 0 0 0 0 0 0 0 0 0 0 0 0 0 0 0 0 0 127 0" result="hardAlpha"/>
<feOffset dx="6" dy="6"/>
<feGaussianBlur stdDeviation="6"/>
<feComposite in2="hardAlpha" operator="out"/>
<feColorMatrix type="matrix" values="0 0 0 0 0.0235294 0 0 0 0 0.0313726 0 0 0 0 0.0431373 0 0 0 0.5 0"/>
<feBlend mode="normal" in2="BackgroundImageFix" result="effect1_dropShadow_10_23"/>
<feColorMatrix in="SourceAlpha" type="matrix" values="0 0 0 0 0 0 0 0 0 0 0 0 0 0 0 0 0 0 127 0" result="hardAlpha"/>
<feOffset dx="-6" dy="-6"/>
<feGaussianBlur stdDeviation="6"/>
<feComposite in2="hardAlpha" operator="out"/>
<feColorMatrix type="matrix" values="0 0 0 0 0.0784314 0 0 0 0 0.101961 0 0 0 0 0.137255 0 0 0 0.5 0"/>
<feBlend mode="normal" in2="effect1_dropShadow_10_23" result="effect2_dropShadow_10_23"/>
<feBlend mode="normal" in="SourceGraphic" in2="effect2_dropShadow_10_23" result="shape"/>
</filter>
<clipPath id="clip0_10_23">
<rect width="18" height="18" fill="white" transform="translate(28 23)"/>
</clipPath>
</defs>
</svg>
