<svg width="146" height="64" viewBox="0 0 146 64" fill="none" xmlns="http://www.w3.org/2000/svg">
<g filter="url(#filter0_dd_10_29)">
<rect x="18" y="18" width="110" height="28" rx="7" fill="#0D1117"/>
<path d="M63.024 27.624L60.684 36H58.704L57.132 30.036L55.488 36L53.52 36.012L51.264 27.624H53.064L54.54 34.128L56.244 27.624H58.116L59.724 34.092L61.212 27.624H63.024ZM71.069 27.624V36H69.389V32.436H65.801V36H64.121V27.624H65.801V31.068H69.389V27.624H71.069ZM77.8585 34.404H74.5225L73.9705 36H72.2065L75.2185 27.612H77.1745L80.1865 36H78.4105L77.8585 34.404ZM77.4025 33.06L76.1905 29.556L74.9785 33.06H77.4025ZM87.0124 27.624V28.98H84.7804V36H83.1004V28.98H80.8684V27.624H87.0124ZM91.1302 36.084C90.5462 36.084 90.0182 35.984 89.5462 35.784C89.0822 35.584 88.7142 35.296 88.4422 34.92C88.1702 34.544 88.0302 34.1 88.0222 33.588H89.8222C89.8462 33.932 89.9662 34.204 90.1822 34.404C90.4062 34.604 90.7102 34.704 91.0942 34.704C91.4862 34.704 91.7942 34.612 92.0182 34.428C92.2422 34.236 92.3542 33.988 92.3542 33.684C92.3542 33.436 92.2782 33.232 92.1262 33.072C91.9742 32.912 91.7822 32.788 91.5502 32.7C91.3262 32.604 91.0142 32.5 90.6142 32.388C90.0702 32.228 89.6262 32.072 89.2822 31.92C88.9462 31.76 88.6542 31.524 88.4062 31.212C88.1662 30.892 88.0462 30.468 88.0462 29.94C88.0462 29.444 88.1702 29.012 88.4182 28.644C88.6662 28.276 89.0142 27.996 89.4622 27.804C89.9102 27.604 90.4222 27.504 90.9982 27.504C91.8622 27.504 92.5622 27.716 93.0982 28.14C93.6422 28.556 93.9422 29.14 93.9982 29.892H92.1502C92.1342 29.604 92.0102 29.368 91.7782 29.184C91.5542 28.992 91.2542 28.896 90.8782 28.896C90.5502 28.896 90.2862 28.98 90.0862 29.148C89.8942 29.316 89.7982 29.56 89.7982 29.88C89.7982 30.104 89.8702 30.292 90.0142 30.444C90.1662 30.588 90.3502 30.708 90.5662 30.804C90.7902 30.892 91.1022 30.996 91.5022 31.116C92.0462 31.276 92.4902 31.436 92.8342 31.596C93.1782 31.756 93.4742 31.996 93.7222 32.316C93.9702 32.636 94.0942 33.056 94.0942 33.576C94.0942 34.024 93.9782 34.44 93.7462 34.824C93.5142 35.208 93.1742 35.516 92.7262 35.748C92.2782 35.972 91.7462 36.084 91.1302 36.084ZM100.687 34.404H97.3507L96.7987 36H95.0347L98.0467 27.612H100.003L103.015 36H101.239L100.687 34.404ZM100.231 33.06L99.0187 29.556L97.8067 33.06H100.231ZM110.249 30.216C110.249 30.664 110.141 31.084 109.924 31.476C109.717 31.868 109.385 32.184 108.929 32.424C108.481 32.664 107.913 32.784 107.225 32.784H105.821V36H104.141V27.624H107.225C107.873 27.624 108.425 27.736 108.881 27.96C109.337 28.184 109.677 28.492 109.901 28.884C110.133 29.276 110.249 29.72 110.249 30.216ZM107.153 31.428C107.617 31.428 107.961 31.324 108.185 31.116C108.409 30.9 108.521 30.6 108.521 30.216C108.521 29.4 108.065 28.992 107.153 28.992H105.821V31.428H107.153ZM117.549 30.216C117.549 30.664 117.441 31.084 117.225 31.476C117.017 31.868 116.685 32.184 116.229 32.424C115.781 32.664 115.213 32.784 114.525 32.784H113.121V36H111.441V27.624H114.525C115.173 27.624 115.725 27.736 116.181 27.96C116.637 28.184 116.977 28.492 117.201 28.884C117.433 29.276 117.549 29.72 117.549 30.216ZM114.453 31.428C114.917 31.428 115.261 31.324 115.485 31.116C115.709 30.9 115.821 30.6 115.821 30.216C115.821 29.4 115.365 28.992 114.453 28.992H113.121V31.428H114.453Z" fill="#E8ECF2"/>
<path fill-rule="evenodd" clip-rule="evenodd" d="M42.5804 26.4137C41.8523 25.6853 40.9873 25.108 40.0353 24.7153C39.0833 24.3225 38.0629 24.1219 37.033 24.125C32.7109 24.125 29.1925 27.6259 29.1907 31.9297C29.1888 33.3001 29.5501 34.6466 30.2377 35.832L29.125 39.875L33.2822 38.7897C34.433 39.4131 35.7211 39.7394 37.0299 39.739H37.033C41.3548 39.739 44.8729 36.2377 44.875 31.9343C44.8776 30.9079 44.6761 29.8913 44.2822 28.9435C43.8882 27.9957 43.3097 27.1358 42.5804 26.4137ZM37.033 38.4216H37.0302C35.8635 38.422 34.718 38.1098 33.7129 37.5174L33.4749 37.3768L31.008 38.0209L31.6664 35.6271L31.5114 35.381C30.859 34.3482 30.5134 33.1513 30.5147 31.9297C30.5147 28.3532 33.4401 25.4434 37.0355 25.4434C38.7603 25.4403 40.4156 26.1224 41.6375 27.3397C42.8594 28.5571 43.5477 30.2099 43.551 31.9346C43.5496 35.5114 40.6257 38.4216 37.033 38.4216ZM40.6081 33.5634C40.4123 33.4657 39.4479 32.9939 39.2693 32.9288C39.0907 32.8638 38.9589 32.8311 38.8285 33.0266C38.698 33.222 38.3222 33.6594 38.208 33.7912C38.0937 33.9231 37.9795 33.9375 37.7836 33.8397C37.5878 33.742 36.9561 33.5363 36.2076 32.8719C35.625 32.3547 35.232 31.7163 35.1177 31.5212C35.0035 31.3261 35.1054 31.2202 35.2035 31.1232C35.2918 31.0357 35.3993 30.8954 35.4974 30.7815C35.5955 30.6676 35.6282 30.586 35.6932 30.4559C35.7583 30.3259 35.7259 30.212 35.6771 30.1146C35.6282 30.0172 35.2362 29.0571 35.0731 28.6665C34.9138 28.2861 34.7525 28.3378 34.6322 28.3318C34.518 28.3262 34.3861 28.3248 34.2564 28.3248C34.1572 28.3274 34.0597 28.3504 33.9698 28.3923C33.8799 28.4343 33.7996 28.4944 33.734 28.5688C33.5543 28.7642 33.0481 29.2367 33.0481 30.1958C33.0481 31.1548 33.7512 32.083 33.8482 32.2131C33.9453 32.3431 35.2299 34.3129 37.1955 35.1577C37.5605 35.314 37.9334 35.4511 38.3127 35.5684C38.7821 35.7167 39.2092 35.696 39.5467 35.6457C39.9232 35.5898 40.7069 35.1739 40.8696 34.7183C41.0324 34.2627 41.0328 33.8724 40.9839 33.7912C40.935 33.71 40.8043 33.6608 40.6081 33.5634Z" fill="#E8ECF2"/>
</g>
<defs>
<filter id="filter0_dd_10_29" x="0" y="0" width="146" height="64" filterUnits="userSpaceOnUse" color-interpolation-filters="sRGB">
<feFlood flood-opacity="0" result="BackgroundImageFix"/>
<feColorMatrix in="SourceAlpha" type="matrix" values="0 0 0 0 0 0 0 0 0 0 0 0 0 0 0 0 0 0 127 0" result="hardAlpha"/>
<feOffset dx="6" dy="6"/>
<feGaussianBlur stdDeviation="6"/>
<feComposite in2="hardAlpha" operator="out"/>
<feColorMatrix type="matrix" values="0 0 0 0 0.0235294 0 0 0 0 0.0313726 0 0 0 0 0.0431373 0 0 0 0.5 0"/>
<feBlend mode="normal" in2="BackgroundImageFix" result="effect1_dropShadow_10_29"/>
<feColorMatrix in="SourceAlpha" type="matrix" values="0 0 0 0 0 0 0 0 0 0 0 0 0 0 0 0 0 0 127 0" result="hardAlpha"/>
<feOffset dx="-6" dy="-6"/>
<feGaussianBlur stdDeviation="6"/>
<feComposite in2="hardAlpha" operator="out"/>
<feColorMatrix type="matrix" values="0 0 0 0 0.0784314 0 0 0 0 0.101961 0 0 0 0 0.137255 0 0 0 0.5 0"/>
<feBlend mode="normal" in2="effect1_dropShadow_10_29" result="effect2_dropShadow_10_29"/>
<feBlend mode="normal" in="SourceGraphic" in2="effect2_dropShadow_10_29" result="shape"/>
</filter>
</defs>
</svg>
