<svg width="142" height="64" viewBox="0 0 142 64" fill="none" xmlns="http://www.w3.org/2000/svg">
<g filter="url(#filter0_dd_12_10)">
<rect x="18" y="18" width="106" height="28" rx="7" fill="#0D1117"/>
<path d="M63.024 27.624L60.684 36H58.704L57.132 30.036L55.488 36L53.52 36.012L51.264 27.624H53.064L54.54 34.128L56.244 27.624H58.116L59.724 34.092L61.212 27.624H63.024ZM65.801 27.624V36H64.121V27.624H65.801ZM74.6248 36H72.9448L69.1408 30.252V36H67.4608V27.612H69.1408L72.9448 33.372V27.612H74.6248V36ZM79.213 27.624C80.093 27.624 80.865 27.796 81.529 28.14C82.201 28.484 82.717 28.976 83.077 29.616C83.445 30.248 83.629 30.984 83.629 31.824C83.629 32.664 83.445 33.4 83.077 34.032C82.717 34.656 82.201 35.14 81.529 35.484C80.865 35.828 80.093 36 79.213 36H76.285V27.624H79.213ZM79.153 34.572C80.033 34.572 80.713 34.332 81.193 33.852C81.673 33.372 81.913 32.696 81.913 31.824C81.913 30.952 81.673 30.272 81.193 29.784C80.713 29.288 80.033 29.04 79.153 29.04H77.965V34.572H79.153ZM88.7746 36.084C87.9906 36.084 87.2706 35.9 86.6146 35.532C85.9586 35.164 85.4386 34.656 85.0546 34.008C84.6706 33.352 84.4786 32.612 84.4786 31.788C84.4786 30.972 84.6706 30.24 85.0546 29.592C85.4386 28.936 85.9586 28.424 86.6146 28.056C87.2706 27.688 87.9906 27.504 88.7746 27.504C89.5666 27.504 90.2866 27.688 90.9346 28.056C91.5906 28.424 92.1066 28.936 92.4826 29.592C92.8666 30.24 93.0586 30.972 93.0586 31.788C93.0586 32.612 92.8666 33.352 92.4826 34.008C92.1066 34.656 91.5906 35.164 90.9346 35.532C90.2786 35.9 89.5586 36.084 88.7746 36.084ZM88.7746 34.584C89.2786 34.584 89.7226 34.472 90.1066 34.248C90.4906 34.016 90.7906 33.688 91.0066 33.264C91.2226 32.84 91.3306 32.348 91.3306 31.788C91.3306 31.228 91.2226 30.74 91.0066 30.324C90.7906 29.9 90.4906 29.576 90.1066 29.352C89.7226 29.128 89.2786 29.016 88.7746 29.016C88.2706 29.016 87.8226 29.128 87.4306 29.352C87.0466 29.576 86.7466 29.9 86.5306 30.324C86.3146 30.74 86.2066 31.228 86.2066 31.788C86.2066 32.348 86.3146 32.84 86.5306 33.264C86.7466 33.688 87.0466 34.016 87.4306 34.248C87.8226 34.472 88.2706 34.584 88.7746 34.584ZM105.504 27.624L103.164 36H101.184L99.6125 30.036L97.9685 36L96.0005 36.012L93.7445 27.624H95.5445L97.0205 34.128L98.7245 27.624H100.596L102.204 34.092L103.692 27.624H105.504ZM109.493 36.084C108.909 36.084 108.381 35.984 107.909 35.784C107.445 35.584 107.077 35.296 106.805 34.92C106.533 34.544 106.393 34.1 106.385 33.588H108.185C108.209 33.932 108.329 34.204 108.545 34.404C108.769 34.604 109.073 34.704 109.457 34.704C109.849 34.704 110.157 34.612 110.381 34.428C110.605 34.236 110.717 33.988 110.717 33.684C110.717 33.436 110.641 33.232 110.489 33.072C110.337 32.912 110.145 32.788 109.913 32.7C109.689 32.604 109.377 32.5 108.977 32.388C108.433 32.228 107.989 32.072 107.645 31.92C107.309 31.76 107.017 31.524 106.769 31.212C106.529 30.892 106.409 30.468 106.409 29.94C106.409 29.444 106.533 29.012 106.781 28.644C107.029 28.276 107.377 27.996 107.825 27.804C108.273 27.604 108.785 27.504 109.361 27.504C110.225 27.504 110.925 27.716 111.461 28.14C112.005 28.556 112.305 29.14 112.361 29.892H110.513C110.497 29.604 110.373 29.368 110.141 29.184C109.917 28.992 109.617 28.896 109.241 28.896C108.913 28.896 108.649 28.98 108.449 29.148C108.257 29.316 108.161 29.56 108.161 29.88C108.161 30.104 108.233 30.292 108.377 30.444C108.529 30.588 108.713 30.708 108.929 30.804C109.153 30.892 109.465 30.996 109.865 31.116C110.409 31.276 110.853 31.436 111.197 31.596C111.541 31.756 111.837 31.996 112.085 32.316C112.333 32.636 112.457 33.056 112.457 33.576C112.457 34.024 112.341 34.44 112.109 34.824C111.877 35.208 111.537 35.516 111.089 35.748C110.641 35.972 110.109 36.084 109.493 36.084Z" fill="#E8ECF2"/>
<path d="M44.875 32.3164H36.1562V38.6094L44.875 39.875V32.3164ZM35.5938 32.3164H29.125V37.5898L35.5938 38.5285V32.3164ZM44.875 24.125L36.1562 25.3695V31.7539H44.875V24.125ZM35.5938 25.4504L29.125 26.375V31.7539H35.5938V25.4504Z" fill="#E8ECF2"/>
</g>
<defs>
<filter id="filter0_dd_12_10" x="0" y="0" width="142" height="64" filterUnits="userSpaceOnUse" color-interpolation-filters="sRGB">
<feFlood flood-opacity="0" result="BackgroundImageFix"/>
<feColorMatrix in="SourceAlpha" type="matrix" values="0 0 0 0 0 0 0 0 0 0 0 0 0 0 0 0 0 0 127 0" result="hardAlpha"/>
<feOffset dx="6" dy="6"/>
<feGaussianBlur stdDeviation="6"/>
<feComposite in2="hardAlpha" operator="out"/>
<feColorMatrix type="matrix" values="0 0 0 0 0.0235294 0 0 0 0 0.0313726 0 0 0 0 0.0431373 0 0 0 0.5 0"/>
<feBlend mode="normal" in2="BackgroundImageFix" result="effect1_dropShadow_12_10"/>
<feColorMatrix in="SourceAlpha" type="matrix" values="0 0 0 0 0 0 0 0 0 0 0 0 0 0 0 0 0 0 127 0" result="hardAlpha"/>
<feOffset dx="-6" dy="-6"/>
<feGaussianBlur stdDeviation="6"/>
<feComposite in2="hardAlpha" operator="out"/>
<feColorMatrix type="matrix" values="0 0 0 0 0.0784314 0 0 0 0 0.101961 0 0 0 0 0.137255 0 0 0 0.5 0"/>
<feBlend mode="normal" in2="effect1_dropShadow_12_10" result="effect2_dropShadow_12_10"/>
<feBlend mode="normal" in="SourceGraphic" in2="effect2_dropShadow_12_10" result="shape"/>
</filter>
</defs>
</svg>
