<svg width="154" height="64" viewBox="0 0 154 64" fill="none" xmlns="http://www.w3.org/2000/svg">
<g filter="url(#filter0_dd_10_35)">
<rect x="18" y="18" width="118" height="28" rx="7" fill="#0D1117"/>
<path d="M63.024 27.624L60.684 36H58.704L57.132 30.036L55.488 36L53.52 36.012L51.264 27.624H53.064L54.54 34.128L56.244 27.624H58.116L59.724 34.092L61.212 27.624H63.024ZM68.009 36.084C67.225 36.084 66.505 35.9 65.849 35.532C65.193 35.164 64.673 34.656 64.289 34.008C63.905 33.352 63.713 32.612 63.713 31.788C63.713 30.972 63.905 30.24 64.289 29.592C64.673 28.936 65.193 28.424 65.849 28.056C66.505 27.688 67.225 27.504 68.009 27.504C68.801 27.504 69.521 27.688 70.169 28.056C70.825 28.424 71.341 28.936 71.717 29.592C72.101 30.24 72.293 30.972 72.293 31.788C72.293 32.612 72.101 33.352 71.717 34.008C71.341 34.656 70.825 35.164 70.169 35.532C69.513 35.9 68.793 36.084 68.009 36.084ZM68.009 34.584C68.513 34.584 68.957 34.472 69.341 34.248C69.725 34.016 70.025 33.688 70.241 33.264C70.457 32.84 70.565 32.348 70.565 31.788C70.565 31.228 70.457 30.74 70.241 30.324C70.025 29.9 69.725 29.576 69.341 29.352C68.957 29.128 68.513 29.016 68.009 29.016C67.505 29.016 67.057 29.128 66.665 29.352C66.281 29.576 65.981 29.9 65.765 30.324C65.549 30.74 65.441 31.228 65.441 31.788C65.441 32.348 65.549 32.84 65.765 33.264C65.981 33.688 66.281 34.016 66.665 34.248C67.057 34.472 67.505 34.584 68.009 34.584ZM77.8628 36L76.0148 32.736H75.2228V36H73.5428V27.624H76.6868C77.3348 27.624 77.8868 27.74 78.3428 27.972C78.7988 28.196 79.1388 28.504 79.3628 28.896C79.5948 29.28 79.7108 29.712 79.7108 30.192C79.7108 30.744 79.5508 31.244 79.2308 31.692C78.9108 32.132 78.4348 32.436 77.8028 32.604L79.8068 36H77.8628ZM75.2228 31.476H76.6268C77.0828 31.476 77.4228 31.368 77.6468 31.152C77.8708 30.928 77.9828 30.62 77.9828 30.228C77.9828 29.844 77.8708 29.548 77.6468 29.34C77.4228 29.124 77.0828 29.016 76.6268 29.016H75.2228V31.476ZM84.1583 27.624C85.0383 27.624 85.8103 27.796 86.4743 28.14C87.1463 28.484 87.6623 28.976 88.0223 29.616C88.3903 30.248 88.5743 30.984 88.5743 31.824C88.5743 32.664 88.3903 33.4 88.0223 34.032C87.6623 34.656 87.1463 35.14 86.4743 35.484C85.8103 35.828 85.0383 36 84.1583 36H81.2303V27.624H84.1583ZM84.0983 34.572C84.9783 34.572 85.6583 34.332 86.1383 33.852C86.6183 33.372 86.8583 32.696 86.8583 31.824C86.8583 30.952 86.6183 30.272 86.1383 29.784C85.6583 29.288 84.9783 29.04 84.0983 29.04H82.9103V34.572H84.0983ZM95.9399 30.216C95.9399 30.664 95.8319 31.084 95.6159 31.476C95.4079 31.868 95.0759 32.184 94.6199 32.424C94.1719 32.664 93.6039 32.784 92.9159 32.784H91.5119V36H89.8319V27.624H92.9159C93.5639 27.624 94.1159 27.736 94.5719 27.96C95.0279 28.184 95.3679 28.492 95.5919 28.884C95.8239 29.276 95.9399 29.72 95.9399 30.216ZM92.8439 31.428C93.3079 31.428 93.6519 31.324 93.8759 31.116C94.0999 30.9 94.2119 30.6 94.2119 30.216C94.2119 29.4 93.7559 28.992 92.8439 28.992H91.5119V31.428H92.8439ZM101.453 36L99.6047 32.736H98.8127V36H97.1327V27.624H100.277C100.925 27.624 101.477 27.74 101.933 27.972C102.389 28.196 102.729 28.504 102.953 28.896C103.185 29.28 103.301 29.712 103.301 30.192C103.301 30.744 103.141 31.244 102.821 31.692C102.501 32.132 102.025 32.436 101.393 32.604L103.397 36H101.453ZM98.8127 31.476H100.217C100.673 31.476 101.013 31.368 101.237 31.152C101.461 30.928 101.573 30.62 101.573 30.228C101.573 29.844 101.461 29.548 101.237 29.34C101.013 29.124 100.673 29.016 100.217 29.016H98.8127V31.476ZM106.5 28.98V31.08H109.32V32.412H106.5V34.632H109.68V36H104.82V27.612H109.68V28.98H106.5ZM114.099 36.084C113.515 36.084 112.987 35.984 112.515 35.784C112.051 35.584 111.683 35.296 111.411 34.92C111.139 34.544 110.999 34.1 110.991 33.588H112.791C112.815 33.932 112.935 34.204 113.151 34.404C113.375 34.604 113.679 34.704 114.063 34.704C114.455 34.704 114.763 34.612 114.987 34.428C115.211 34.236 115.323 33.988 115.323 33.684C115.323 33.436 115.247 33.232 115.095 33.072C114.943 32.912 114.751 32.788 114.519 32.7C114.295 32.604 113.983 32.5 113.583 32.388C113.039 32.228 112.595 32.072 112.251 31.92C111.915 31.76 111.623 31.524 111.375 31.212C111.135 30.892 111.015 30.468 111.015 29.94C111.015 29.444 111.139 29.012 111.387 28.644C111.635 28.276 111.983 27.996 112.431 27.804C112.879 27.604 113.391 27.504 113.967 27.504C114.831 27.504 115.531 27.716 116.067 28.14C116.611 28.556 116.911 29.14 116.967 29.892H115.119C115.103 29.604 114.979 29.368 114.747 29.184C114.523 28.992 114.223 28.896 113.847 28.896C113.519 28.896 113.255 28.98 113.055 29.148C112.863 29.316 112.767 29.56 112.767 29.88C112.767 30.104 112.839 30.292 112.983 30.444C113.135 30.588 113.319 30.708 113.535 30.804C113.759 30.892 114.071 30.996 114.471 31.116C115.015 31.276 115.459 31.436 115.803 31.596C116.147 31.756 116.443 31.996 116.691 32.316C116.939 32.636 117.063 33.056 117.063 33.576C117.063 34.024 116.947 34.44 116.715 34.824C116.483 35.208 116.143 35.516 115.695 35.748C115.247 35.972 114.715 36.084 114.099 36.084ZM121.411 36.084C120.827 36.084 120.299 35.984 119.827 35.784C119.363 35.584 118.995 35.296 118.723 34.92C118.451 34.544 118.311 34.1 118.303 33.588H120.103C120.127 33.932 120.247 34.204 120.463 34.404C120.687 34.604 120.991 34.704 121.375 34.704C121.767 34.704 122.075 34.612 122.299 34.428C122.523 34.236 122.635 33.988 122.635 33.684C122.635 33.436 122.559 33.232 122.407 33.072C122.255 32.912 122.063 32.788 121.831 32.7C121.607 32.604 121.295 32.5 120.895 32.388C120.351 32.228 119.907 32.072 119.563 31.92C119.227 31.76 118.935 31.524 118.687 31.212C118.447 30.892 118.327 30.468 118.327 29.94C118.327 29.444 118.451 29.012 118.699 28.644C118.947 28.276 119.295 27.996 119.743 27.804C120.191 27.604 120.703 27.504 121.279 27.504C122.143 27.504 122.843 27.716 123.379 28.14C123.923 28.556 124.223 29.14 124.279 29.892H122.431C122.415 29.604 122.291 29.368 122.059 29.184C121.835 28.992 121.535 28.896 121.159 28.896C120.831 28.896 120.567 28.98 120.367 29.148C120.175 29.316 120.079 29.56 120.079 29.88C120.079 30.104 120.151 30.292 120.295 30.444C120.447 30.588 120.631 30.708 120.847 30.804C121.071 30.892 121.383 30.996 121.783 31.116C122.327 31.276 122.771 31.436 123.115 31.596C123.459 31.756 123.755 31.996 124.003 32.316C124.251 32.636 124.375 33.056 124.375 33.576C124.375 34.024 124.259 34.44 124.027 34.824C123.795 35.208 123.455 35.516 123.007 35.748C122.559 35.972 122.027 36.084 121.411 36.084Z" fill="#E8ECF2"/>
<path d="M37.1055 32.5379L35.9523 35.9023H35.9488L35.0559 38.4723C35.1191 38.4898 35.1789 38.5039 35.2422 38.5215H35.2527C35.8204 38.6729 36.4054 38.7497 36.993 38.75C37.286 38.7522 37.5787 38.731 37.8684 38.6867C38.256 38.6381 38.6384 38.5546 39.0109 38.4371C39.1023 38.409 39.1938 38.3773 39.2852 38.3457C39.1867 38.1348 38.9758 37.6672 38.9652 37.6461L37.1055 32.5379ZM30.8406 29.3457C30.4891 30.1402 30.25 31.1176 30.25 32C30.25 32.2215 30.2605 32.443 30.2816 32.6609C30.5242 35.1641 32.1414 37.2664 34.3633 38.2121C34.4547 38.2508 34.5496 38.2895 34.6445 38.3246L31.375 29.3492C31.0938 29.3387 31.041 29.3563 30.8406 29.3457Z" fill="#E8ECF2"/>
<path d="M43.1242 29.1664C42.973 28.8408 42.7954 28.528 42.5934 28.2313C42.5371 28.1469 42.4738 28.0625 42.4141 27.9781C41.6523 26.9557 40.6178 26.1686 39.4293 25.707C38.6541 25.4038 37.8289 25.2488 36.9965 25.25C35.9881 25.25 34.9926 25.4765 34.0836 25.9128C33.1745 26.3491 32.375 26.984 31.7441 27.7707C31.5156 28.054 31.3099 28.3549 31.1289 28.6707C31.6281 28.6742 32.2469 28.6742 32.3172 28.6742C32.9535 28.6742 33.9344 28.5969 33.9344 28.5969C34.2648 28.5758 34.3 29.0574 33.973 29.0961C33.973 29.0961 33.6426 29.1348 33.277 29.1524L35.4883 35.7266L36.8172 31.7434L35.875 29.1559C35.5445 29.1383 35.2387 29.0996 35.2387 29.0996C34.9082 29.082 34.9504 28.5793 35.2738 28.6004C35.2738 28.6004 36.2758 28.6777 36.8734 28.6777C37.5098 28.6777 38.4906 28.6004 38.4906 28.6004C38.8176 28.5793 38.8598 29.0609 38.5293 29.0996C38.5293 29.0996 38.2023 29.1383 37.8367 29.1559L40.027 35.6809L40.6352 33.6559C40.941 32.8684 41.0957 32.218 41.0957 31.6977C41.0957 30.9488 40.825 30.4285 40.593 30.0242C40.2871 29.5215 39.9988 29.0996 39.9988 28.6039C39.9988 28.0449 40.4207 27.5246 41.0184 27.5246H41.0957C42.0168 27.5 42.3191 28.4141 42.3578 29.0363V29.0574C42.3719 29.3106 42.3613 29.4969 42.3613 29.7184C42.3613 30.3301 42.2453 31.0227 41.9008 31.891L40.5297 35.8566L39.7457 38.1664C39.809 38.1383 39.8687 38.1102 39.932 38.0785C41.9254 37.1152 43.3773 35.1957 43.6832 32.9211C43.7286 32.6185 43.7509 32.313 43.75 32.007C43.7513 31.0258 43.5377 30.0562 43.1242 29.1664Z" fill="#E8ECF2"/>
<path d="M37 24.6875C38.6871 24.6884 40.322 25.2724 41.6278 26.3407C42.9336 27.4089 43.83 28.8957 44.1651 30.5492C44.5002 32.2027 44.2534 33.9211 43.4666 35.4135C42.6798 36.9059 41.4013 38.0804 39.8477 38.738C38.0606 39.4933 36.0467 39.5077 34.2491 38.7781C32.4514 38.0485 31.0172 36.6347 30.262 34.8477C29.5067 33.0606 29.4923 31.0467 30.2219 29.2491C30.9515 27.4514 32.3653 26.0172 34.1523 25.262C35.0532 24.8808 36.0218 24.6854 37 24.6875ZM37 24.125C32.6508 24.125 29.125 27.6508 29.125 32C29.125 36.3492 32.6508 39.875 37 39.875C41.3492 39.875 44.875 36.3492 44.875 32C44.875 27.6508 41.3492 24.125 37 24.125Z" fill="#E8ECF2"/>
</g>
<defs>
<filter id="filter0_dd_10_35" x="0" y="0" width="154" height="64" filterUnits="userSpaceOnUse" color-interpolation-filters="sRGB">
<feFlood flood-opacity="0" result="BackgroundImageFix"/>
<feColorMatrix in="SourceAlpha" type="matrix" values="0 0 0 0 0 0 0 0 0 0 0 0 0 0 0 0 0 0 127 0" result="hardAlpha"/>
<feOffset dx="6" dy="6"/>
<feGaussianBlur stdDeviation="6"/>
<feComposite in2="hardAlpha" operator="out"/>
<feColorMatrix type="matrix" values="0 0 0 0 0.0235294 0 0 0 0 0.0313726 0 0 0 0 0.0431373 0 0 0 0.5 0"/>
<feBlend mode="normal" in2="BackgroundImageFix" result="effect1_dropShadow_10_35"/>
<feColorMatrix in="SourceAlpha" type="matrix" values="0 0 0 0 0 0 0 0 0 0 0 0 0 0 0 0 0 0 127 0" result="hardAlpha"/>
<feOffset dx="-6" dy="-6"/>
<feGaussianBlur stdDeviation="6"/>
<feComposite in2="hardAlpha" operator="out"/>
<feColorMatrix type="matrix" values="0 0 0 0 0.0784314 0 0 0 0 0.101961 0 0 0 0 0.137255 0 0 0 0.5 0"/>
<feBlend mode="normal" in2="effect1_dropShadow_10_35" result="effect2_dropShadow_10_35"/>
<feBlend mode="normal" in="SourceGraphic" in2="effect2_dropShadow_10_35" result="shape"/>
</filter>
</defs>
</svg>
