<svg width="134" height="64" viewBox="0 0 134 64" fill="none" xmlns="http://www.w3.org/2000/svg">
<g filter="url(#filter0_dd_10_40)">
<rect x="18" y="18" width="98" height="28" rx="7" fill="#0D1117"/>
<path d="M58.488 27.624L55.656 33.084V36H53.976V33.084L51.132 27.624H53.028L54.828 31.452L56.616 27.624H58.488ZM63.3449 36.084C62.5609 36.084 61.8409 35.9 61.1849 35.532C60.5289 35.164 60.0089 34.656 59.6249 34.008C59.2409 33.352 59.0489 32.612 59.0489 31.788C59.0489 30.972 59.2409 30.24 59.6249 29.592C60.0089 28.936 60.5289 28.424 61.1849 28.056C61.8409 27.688 62.5609 27.504 63.3449 27.504C64.1369 27.504 64.8569 27.688 65.5049 28.056C66.1609 28.424 66.6769 28.936 67.0529 29.592C67.4369 30.24 67.6289 30.972 67.6289 31.788C67.6289 32.612 67.4369 33.352 67.0529 34.008C66.6769 34.656 66.1609 35.164 65.5049 35.532C64.8489 35.9 64.1289 36.084 63.3449 36.084ZM63.3449 34.584C63.8489 34.584 64.2929 34.472 64.6769 34.248C65.0609 34.016 65.3609 33.688 65.5769 33.264C65.7929 32.84 65.9009 32.348 65.9009 31.788C65.9009 31.228 65.7929 30.74 65.5769 30.324C65.3609 29.9 65.0609 29.576 64.6769 29.352C64.2929 29.128 63.8489 29.016 63.3449 29.016C62.8409 29.016 62.3929 29.128 62.0009 29.352C61.6169 29.576 61.3169 29.9 61.1009 30.324C60.8849 30.74 60.7769 31.228 60.7769 31.788C60.7769 32.348 60.8849 32.84 61.1009 33.264C61.3169 33.688 61.6169 34.016 62.0009 34.248C62.3929 34.472 62.8409 34.584 63.3449 34.584ZM70.5348 27.624V32.808C70.5348 33.376 70.6828 33.812 70.9788 34.116C71.2748 34.412 71.6908 34.56 72.2268 34.56C72.7708 34.56 73.1908 34.412 73.4868 34.116C73.7828 33.812 73.9308 33.376 73.9308 32.808V27.624H75.6228V32.796C75.6228 33.508 75.4668 34.112 75.1548 34.608C74.8508 35.096 74.4388 35.464 73.9188 35.712C73.4068 35.96 72.8348 36.084 72.2028 36.084C71.5788 36.084 71.0108 35.96 70.4988 35.712C69.9948 35.464 69.5948 35.096 69.2988 34.608C69.0028 34.112 68.8548 33.508 68.8548 32.796V27.624H70.5348ZM82.946 27.624V28.98H80.714V36H79.034V28.98H76.802V27.624H82.946ZM85.8278 27.624V32.808C85.8278 33.376 85.9758 33.812 86.2718 34.116C86.5678 34.412 86.9838 34.56 87.5198 34.56C88.0638 34.56 88.4838 34.412 88.7798 34.116C89.0758 33.812 89.2238 33.376 89.2238 32.808V27.624H90.9158V32.796C90.9158 33.508 90.7598 34.112 90.4478 34.608C90.1438 35.096 89.7318 35.464 89.2118 35.712C88.6998 35.96 88.1278 36.084 87.4958 36.084C86.8718 36.084 86.3038 35.96 85.7918 35.712C85.2878 35.464 84.8878 35.096 84.5918 34.608C84.2958 34.112 84.1478 33.508 84.1478 32.796V27.624H85.8278ZM97.2909 31.704C97.7629 31.792 98.1509 32.028 98.4549 32.412C98.7589 32.796 98.9109 33.236 98.9109 33.732C98.9109 34.18 98.7989 34.576 98.5749 34.92C98.3589 35.256 98.0429 35.52 97.6269 35.712C97.2109 35.904 96.7189 36 96.1509 36H92.5389V27.624H95.9949C96.5629 27.624 97.0509 27.716 97.4589 27.9C97.8749 28.084 98.1869 28.34 98.3949 28.668C98.6109 28.996 98.7189 29.368 98.7189 29.784C98.7189 30.272 98.5869 30.68 98.3229 31.008C98.0669 31.336 97.7229 31.568 97.2909 31.704ZM94.2189 31.08H95.7549C96.1549 31.08 96.4629 30.992 96.6789 30.816C96.8949 30.632 97.0029 30.372 97.0029 30.036C97.0029 29.7 96.8949 29.44 96.6789 29.256C96.4629 29.072 96.1549 28.98 95.7549 28.98H94.2189V31.08ZM95.9109 34.632C96.3189 34.632 96.6349 34.536 96.8589 34.344C97.0909 34.152 97.2069 33.88 97.2069 33.528C97.2069 33.168 97.0869 32.888 96.8469 32.688C96.6069 32.48 96.2829 32.376 95.8749 32.376H94.2189V34.632H95.9109ZM101.93 28.98V31.08H104.75V32.412H101.93V34.632H105.11V36H100.25V27.612H105.11V28.98H101.93Z" fill="#E8ECF2"/>
<g clip-path="url(#clip0_10_40)">
<path d="M45.8818 28.2309C45.8818 26.6489 44.7182 25.3762 43.2803 25.3762C41.3326 25.2852 39.3463 25.25 37.3164 25.25H36.6836C34.6586 25.25 32.6687 25.2852 30.7211 25.3766C29.2867 25.3766 28.123 26.6562 28.123 28.2383C28.0351 29.4895 27.9979 30.7411 28 31.9926C27.9965 33.2442 28.0363 34.4969 28.1195 35.7508C28.1195 37.3329 29.2832 38.6161 30.7175 38.6161C32.7636 38.711 34.8625 38.7532 36.9965 38.7496C39.134 38.7567 41.2269 38.7121 43.2754 38.6161C44.7133 38.6161 45.8769 37.3329 45.8769 35.7508C45.9613 34.4957 46 33.2442 45.9965 31.9891C46.0044 30.7375 45.9662 29.4848 45.8818 28.2309ZM35.2773 35.4414V28.5332L40.375 31.9856L35.2773 35.4414Z" fill="#E8ECF2"/>
</g>
</g>
<defs>
<filter id="filter0_dd_10_40" x="0" y="0" width="134" height="64" filterUnits="userSpaceOnUse" color-interpolation-filters="sRGB">
<feFlood flood-opacity="0" result="BackgroundImageFix"/>
<feColorMatrix in="SourceAlpha" type="matrix" values="0 0 0 0 0 0 0 0 0 0 0 0 0 0 0 0 0 0 127 0" result="hardAlpha"/>
<feOffset dx="6" dy="6"/>
<feGaussianBlur stdDeviation="6"/>
<feComposite in2="hardAlpha" operator="out"/>
<feColorMatrix type="matrix" values="0 0 0 0 0.0235294 0 0 0 0 0.0313726 0 0 0 0 0.0431373 0 0 0 0.5 0"/>
<feBlend mode="normal" in2="BackgroundImageFix" result="effect1_dropShadow_10_40"/>
<feColorMatrix in="SourceAlpha" type="matrix" values="0 0 0 0 0 0 0 0 0 0 0 0 0 0 0 0 0 0 127 0" result="hardAlpha"/>
<feOffset dx="-6" dy="-6"/>
<feGaussianBlur stdDeviation="6"/>
<feComposite in2="hardAlpha" operator="out"/>
<feColorMatrix type="matrix" values="0 0 0 0 0.0784314 0 0 0 0 0.101961 0 0 0 0 0.137255 0 0 0 0.5 0"/>
<feBlend mode="normal" in2="effect1_dropShadow_10_40" result="effect2_dropShadow_10_40"/>
<feBlend mode="normal" in="SourceGraphic" in2="effect2_dropShadow_10_40" result="shape"/>
</filter>
<clipPath id="clip0_10_40">
<rect width="18" height="18" fill="white" transform="translate(28 23)"/>
</clipPath>
</defs>
</svg>
